<svg width="163" height="38" viewBox="0 0 163 38" fill="none" xmlns="http://www.w3.org/2000/svg">
<path d="M24.84 6.84C24.84 7.38 24.705 7.95 24.435 8.55C24.195 9.15 23.895 9.735 23.535 10.305C23.175 10.875 22.77 11.4 22.32 11.88C21.87 12.33 21.435 12.705 21.015 13.005C19.875 13.845 18.615 14.655 17.235 15.435C15.885 16.185 14.565 16.815 13.275 17.325C13.215 17.355 13.08 17.415 12.87 17.505C12.66 17.565 12.525 17.565 12.465 17.505C12.405 17.445 12.45 17.34 12.6 17.19C12.75 17.01 12.87 16.89 12.96 16.83C13.17 16.62 13.44 16.365 13.77 16.065C14.13 15.765 14.49 15.48 14.85 15.21C15.24 14.91 15.615 14.625 15.975 14.355C16.365 14.085 16.71 13.875 17.01 13.725C17.22 13.605 17.685 13.275 18.405 12.735C19.155 12.165 19.95 11.52 20.79 10.8C21.63 10.05 22.41 9.3 23.13 8.55C23.88 7.8 24.345 7.185 24.525 6.705C24.645 6.495 24.735 6.42 24.795 6.48C24.825 6.51 24.84 6.57 24.84 6.66C24.84 6.75 24.84 6.81 24.84 6.84ZM5.22 23.535C6.33 23.685 7.41 23.91 8.46 24.21C9.51 24.48 10.485 25.005 11.385 25.785C12.435 26.685 13.515 27.69 14.625 28.8C15.735 29.88 16.755 30.945 17.685 31.995C17.745 32.055 17.835 32.175 17.955 32.355C18.075 32.505 18.105 32.625 18.045 32.715C18.015 32.775 17.895 32.775 17.685 32.715C17.505 32.625 17.385 32.55 17.325 32.49C17.055 32.34 16.725 32.145 16.335 31.905C15.975 31.635 15.6 31.35 15.21 31.05C14.82 30.75 14.445 30.465 14.085 30.195C13.725 29.895 13.425 29.625 13.185 29.385C13.035 29.235 12.63 28.905 11.97 28.395C11.34 27.855 10.59 27.3 9.72 26.73C8.85 26.13 7.935 25.575 6.975 25.065C6.045 24.555 5.205 24.21 4.455 24.03C4.215 23.97 4.095 23.82 4.095 23.58C4.125 23.34 4.155 23.13 4.185 22.95C4.245 22.59 4.32 22.14 4.41 21.6C4.53 21.06 4.635 20.505 4.725 19.935C4.845 19.365 4.965 18.81 5.085 18.27C5.205 17.73 5.325 17.265 5.445 16.875C5.535 16.605 5.7 15.93 5.94 14.85C6.18 13.77 6.42 12.57 6.66 11.25C6.9 9.93 7.08 8.655 7.2 7.425C7.32 6.195 7.305 5.295 7.155 4.725C7.095 4.455 7.11 4.32 7.2 4.32C7.26 4.32 7.305 4.365 7.335 4.455C7.365 4.515 7.41 4.575 7.47 4.635C7.8 5.145 8.055 5.76 8.235 6.48C8.415 7.2 8.52 7.965 8.55 8.775C8.61 9.555 8.595 10.335 8.505 11.115C8.445 11.895 8.34 12.57 8.19 13.14C7.86 14.4 7.485 15.66 7.065 16.92C6.645 18.15 6.195 19.395 5.715 20.655C6.045 20.175 6.36 19.725 6.66 19.305C6.96 18.855 7.23 18.435 7.47 18.045L7.515 17.82C7.815 16.38 8.175 14.925 8.595 13.455C9.045 11.985 9.3 10.395 9.36 8.685C9.42 8.535 9.465 8.46 9.495 8.46C9.525 8.46 9.555 8.49 9.585 8.55C9.615 8.61 9.645 8.67 9.675 8.73C10.005 9.54 10.125 10.605 10.035 11.925C9.945 13.215 9.765 14.565 9.495 15.975C9.855 15.675 10.2 15.39 10.53 15.12C10.89 14.85 11.28 14.58 11.7 14.31C12.84 13.53 14.01 12.78 15.21 12.06C16.41 11.34 17.565 10.605 18.675 9.855C19.815 9.105 20.865 8.34 21.825 7.56C22.785 6.78 23.61 5.925 24.3 4.995C24.39 4.905 24.45 4.89 24.48 4.95C24.51 4.95 24.51 4.995 24.48 5.085C24.48 5.145 24.48 5.19 24.48 5.22C24.03 6.45 23.34 7.545 22.41 8.505C21.51 9.435 20.475 10.305 19.305 11.115C18.165 11.925 16.965 12.69 15.705 13.41C14.445 14.13 13.245 14.895 12.105 15.705C10.695 16.665 9.375 17.805 8.145 19.125C6.915 20.445 5.94 21.915 5.22 23.535ZM7.38 23.265C7.23 23.265 7.02 23.265 6.75 23.265C6.51 23.235 6.285 23.235 6.075 23.265C6.195 23.025 6.33 22.785 6.48 22.545C6.66 22.305 6.825 22.065 6.975 21.825C7.155 21.585 7.365 21.33 7.605 21.06C7.875 20.76 8.13 20.505 8.37 20.295C8.64 20.055 8.865 19.89 9.045 19.8C9.255 19.68 9.39 19.68 9.45 19.8C9.48 19.83 9.45 19.905 9.36 20.025C9.3 20.145 9.21 20.295 9.09 20.475C8.97 20.625 8.85 20.775 8.73 20.925C8.64 21.045 8.58 21.135 8.55 21.195C8.22 21.615 7.98 21.99 7.83 22.32C7.68 22.62 7.53 22.935 7.38 23.265ZM24.615 35.46C24.555 35.52 24.465 35.535 24.345 35.505C24.255 35.445 24.15 35.385 24.03 35.325C23.16 34.935 22.335 34.455 21.555 33.885C20.805 33.315 20.07 32.7 19.35 32.04C18.63 31.38 17.91 30.705 17.19 30.015C16.5 29.295 15.795 28.59 15.075 27.9C14.565 27.42 14.025 26.925 13.455 26.415C12.885 25.905 12.3 25.44 11.7 25.02C11.1 24.57 10.47 24.195 9.81 23.895C9.18 23.565 8.535 23.355 7.875 23.265C8.265 22.695 8.895 22.05 9.765 21.33C10.635 20.61 11.58 19.905 12.6 19.215C13.62 18.525 14.625 17.865 15.615 17.235C16.605 16.605 17.415 16.095 18.045 15.705C19.095 15.045 20.145 14.34 21.195 13.59C22.275 12.84 23.265 11.925 24.165 10.845C24.255 10.725 24.345 10.68 24.435 10.71C24.435 10.77 24.42 10.83 24.39 10.89C24.36 10.92 24.345 10.965 24.345 11.025C24.195 11.775 23.745 12.57 22.995 13.41C22.275 14.22 21.45 15 20.52 15.75C19.59 16.5 18.645 17.205 17.685 17.865C16.725 18.495 15.96 19.005 15.39 19.395C14.85 19.755 14.28 20.1 13.68 20.43C13.11 20.76 12.525 21.09 11.925 21.42C11.325 21.72 10.74 22.005 10.17 22.275C9.63 22.515 9.12 22.74 8.64 22.95C9.42 22.95 10.305 23.19 11.295 23.67C12.315 24.15 13.32 24.735 14.31 25.425C15.3 26.085 16.215 26.79 17.055 27.54C17.895 28.26 18.54 28.86 18.99 29.34C19.95 30.39 20.895 31.41 21.825 32.4C22.785 33.39 23.625 34.245 24.345 34.965C24.585 35.205 24.675 35.37 24.615 35.46ZM6.165 3.51C6.585 4.95 6.72 6.45 6.57 8.01C6.42 9.54 6.12 11.115 5.67 12.735C5.25 14.355 4.77 16.005 4.23 17.685C3.69 19.365 3.225 21.03 2.835 22.68C2.595 23.73 2.4 24.825 2.25 25.965C2.13 27.105 2.085 28.26 2.115 29.43C2.175 30.57 2.31 31.695 2.52 32.805C2.76 33.885 3.135 34.89 3.645 35.82C3.765 36.06 3.81 36.18 3.78 36.18C3.72 36.18 3.66 36.15 3.6 36.09C3.54 36.03 3.495 36 3.465 36C2.625 35.01 2.01 33.945 1.62 32.805C1.23 31.635 0.99 30.435 0.9 29.205C0.81 27.975 0.84 26.73 0.99 25.47C1.17 24.21 1.395 22.98 1.665 21.78C2.055 20.13 2.505 18.495 3.015 16.875C3.525 15.225 3.99 13.635 4.41 12.105C4.86 10.545 5.235 9.045 5.535 7.605C5.835 6.165 5.97 4.785 5.94 3.465C5.94 3.285 5.955 3.195 5.985 3.195C6.015 3.165 6.045 3.21 6.075 3.33C6.135 3.42 6.165 3.48 6.165 3.51ZM27.45 36.9C27.45 36.96 27.42 37.005 27.36 37.035C27.3 37.065 27.24 37.095 27.18 37.125C26.04 37.545 24.93 37.725 23.85 37.665C22.8 37.635 21.765 37.455 20.745 37.125C19.755 36.825 18.795 36.42 17.865 35.91C16.965 35.4 16.11 34.89 15.3 34.38C14.49 33.87 13.71 33.285 12.96 32.625C12.21 31.965 11.475 31.29 10.755 30.6C10.035 29.91 9.315 29.235 8.595 28.575C7.905 27.915 7.215 27.33 6.525 26.82L5.13 31.5C5.07 31.65 5.01 31.785 4.95 31.905C4.92 32.025 4.875 32.07 4.815 32.04C4.755 32.01 4.71 31.935 4.68 31.815C4.68 31.665 4.68 31.515 4.68 31.365C4.71 30.495 4.785 29.61 4.905 28.71C5.025 27.81 5.175 26.91 5.355 26.01C5.175 25.89 4.95 25.755 4.68 25.605C4.41 25.455 4.155 25.305 3.915 25.155C3.855 25.125 3.78 25.08 3.69 25.02C3.6 24.93 3.57 24.855 3.6 24.795C3.6 24.765 3.675 24.75 3.825 24.75C4.905 24.84 5.955 25.2 6.975 25.83C8.025 26.43 9.06 27.165 10.08 28.035C11.13 28.875 12.18 29.79 13.23 30.78C14.28 31.77 15.375 32.715 16.515 33.615C17.955 34.725 19.605 35.595 21.465 36.225C23.325 36.885 25.215 37.095 27.135 36.855C27.345 36.795 27.45 36.81 27.45 36.9ZM5.04 36.18C4.98 36.18 4.89 36.15 4.77 36.09C4.71 36.06 4.665 36.015 4.635 35.955C4.245 35.505 3.93 35.085 3.69 34.695C3.48 34.305 3.3 33.675 3.15 32.805C3.09 32.475 3.045 32.055 3.015 31.545C3.015 31.035 3.03 30.54 3.06 30.06C3.09 29.58 3.135 29.175 3.195 28.845C3.285 28.515 3.39 28.35 3.51 28.35C3.54 28.35 3.57 28.425 3.6 28.575C3.66 28.725 3.705 28.905 3.735 29.115C3.765 29.295 3.78 29.49 3.78 29.7C3.81 29.88 3.825 30 3.825 30.06C3.885 30.72 3.93 31.26 3.96 31.68C4.02 32.1 4.08 32.475 4.14 32.805C4.29 33.765 4.59 34.77 5.04 35.82C5.07 35.88 5.085 35.955 5.085 36.045C5.115 36.135 5.1 36.18 5.04 36.18ZM21.33 35.28C21.54 35.31 21.795 35.37 22.095 35.46C22.425 35.52 22.68 35.58 22.86 35.64C23.64 35.85 24.285 36 24.795 36.09C25.335 36.21 25.965 36.285 26.685 36.315C26.745 36.315 26.82 36.315 26.91 36.315C27.03 36.315 27.09 36.345 27.09 36.405C27.09 36.525 26.94 36.6 26.64 36.63C26.28 36.69 25.965 36.72 25.695 36.72C25.425 36.72 25.08 36.705 24.66 36.675C24.42 36.645 24.135 36.6 23.805 36.54C23.475 36.48 23.145 36.39 22.815 36.27C22.485 36.18 22.17 36.09 21.87 36C21.6 35.88 21.405 35.76 21.285 35.64C21.165 35.52 21.12 35.415 21.15 35.325C21.15 35.295 21.21 35.28 21.33 35.28ZM49.828 21.825C49.318 22.875 48.718 23.94 48.028 25.02C47.338 26.07 46.618 27.015 45.868 27.855C45.838 27.915 45.763 28.02 45.643 28.17C45.523 28.29 45.418 28.335 45.328 28.305C45.268 28.245 45.253 28.14 45.283 27.99C45.313 27.84 45.343 27.72 45.373 27.63C45.523 27.15 45.748 26.52 46.048 25.74C46.348 24.96 46.663 24.33 46.993 23.85C47.083 23.7 47.263 23.28 47.533 22.59C47.833 21.9 48.118 21.135 48.388 20.295C48.658 19.425 48.853 18.585 48.973 17.775C49.123 16.965 49.108 16.365 48.928 15.975C48.928 15.975 48.928 15.93 48.928 15.84V15.795C49.078 15.795 49.183 15.855 49.243 15.975C49.573 16.365 49.813 16.815 49.963 17.325C50.143 17.835 50.248 18.36 50.278 18.9C50.308 19.44 50.278 19.98 50.188 20.52C50.128 21.03 50.008 21.465 49.828 21.825ZM51.313 19.125C51.643 19.725 51.733 20.475 51.583 21.375C51.463 22.245 51.223 23.145 50.863 24.075C50.533 24.975 50.143 25.845 49.693 26.685C49.273 27.495 48.928 28.155 48.658 28.665C48.208 29.535 47.653 30.42 46.993 31.32C46.363 32.19 45.778 32.97 45.238 33.66C45.088 33.87 44.953 33.975 44.833 33.975C44.773 33.915 44.743 33.84 44.743 33.75C44.773 33.66 44.803 33.57 44.833 33.48C45.313 31.92 45.913 30.48 46.633 29.16C47.353 27.81 48.103 26.415 48.883 24.975C49.393 24.075 49.858 23.145 50.278 22.185C50.698 21.225 50.968 20.175 51.088 19.035C51.088 18.915 51.118 18.855 51.178 18.855C51.208 18.915 51.238 18.96 51.268 18.99C51.298 19.02 51.313 19.065 51.313 19.125ZM39.343 21.825C38.833 22.875 38.233 23.94 37.543 25.02C36.853 26.07 36.133 27.015 35.383 27.855C35.353 27.915 35.278 28.02 35.158 28.17C35.038 28.29 34.933 28.335 34.843 28.305C34.783 28.245 34.768 28.14 34.798 27.99C34.828 27.84 34.858 27.72 34.888 27.63C35.038 27.15 35.263 26.52 35.563 25.74C35.863 24.96 36.178 24.33 36.508 23.85C36.598 23.7 36.778 23.28 37.048 22.59C37.348 21.9 37.633 21.135 37.903 20.295C38.173 19.425 38.383 18.585 38.533 17.775C38.683 16.965 38.668 16.365 38.488 15.975C38.458 15.945 38.443 15.9 38.443 15.84C38.443 15.81 38.458 15.795 38.488 15.795C38.608 15.795 38.698 15.855 38.758 15.975C39.088 16.365 39.328 16.815 39.478 17.325C39.658 17.835 39.763 18.36 39.793 18.9C39.823 19.44 39.793 19.98 39.703 20.52C39.643 21.03 39.523 21.465 39.343 21.825ZM40.738 18C40.918 18 41.098 18.225 41.278 18.675C41.488 19.095 41.638 19.755 41.728 20.655C41.878 21.765 41.848 22.92 41.638 24.12C41.458 25.29 41.218 26.4 40.918 27.45C40.918 27.51 40.903 27.615 40.873 27.765C40.843 27.915 40.768 28.005 40.648 28.035C40.588 28.035 40.528 27.96 40.468 27.81C40.408 27.66 40.378 27.555 40.378 27.495C40.288 27.165 40.213 26.775 40.153 26.325C40.093 25.845 40.063 25.365 40.063 24.885C39.883 25.305 39.703 25.71 39.523 26.1C39.343 26.49 39.163 26.85 38.983 27.18V27.63C39.013 28.95 39.283 30.3 39.793 31.68C40.303 33.03 41.173 34.185 42.403 35.145C42.283 34.845 42.193 34.635 42.133 34.515C42.103 34.365 41.953 34.095 41.683 33.705C41.533 33.525 41.398 33.285 41.278 32.985C41.158 32.655 41.053 32.355 40.963 32.085C40.873 31.785 40.813 31.53 40.783 31.32C40.783 31.11 40.828 31.005 40.918 31.005C41.068 30.945 41.203 31.02 41.323 31.23C41.473 31.44 41.593 31.635 41.683 31.815C41.623 31.185 41.653 30.555 41.773 29.925C41.893 29.265 41.983 28.665 42.043 28.125C42.133 27.345 42.208 26.655 42.268 26.055C42.328 25.425 42.373 24.675 42.403 23.805C42.463 22.875 42.463 21.855 42.403 20.745C42.343 19.635 42.103 18.555 41.683 17.505C41.623 17.415 41.638 17.37 41.728 17.37C41.788 17.37 41.833 17.385 41.863 17.415C41.893 17.445 41.938 17.475 41.998 17.505C42.388 17.805 42.703 18.225 42.943 18.765C43.213 19.275 43.408 19.86 43.528 20.52C43.678 21.15 43.768 21.825 43.798 22.545C43.858 23.235 43.888 23.895 43.888 24.525C44.338 23.715 44.803 22.905 45.283 22.095C45.763 21.285 46.183 20.49 46.543 19.71C46.933 18.9 47.233 18.105 47.443 17.325C47.653 16.545 47.743 15.78 47.713 15.03C47.713 14.94 47.728 14.895 47.758 14.895C47.848 14.865 47.893 14.91 47.893 15.03C48.343 16.02 48.478 17.025 48.298 18.045C48.148 19.065 47.833 20.085 47.353 21.105C46.903 22.125 46.363 23.145 45.733 24.165C45.103 25.155 44.548 26.145 44.068 27.135C43.468 28.395 43.033 29.775 42.763 31.275C42.523 32.775 42.613 34.35 43.033 36V36.045C43.003 36.075 42.988 36.09 42.988 36.09C42.928 36.09 42.883 36.075 42.853 36.045C42.823 36.045 42.793 36.03 42.763 36C42.673 35.88 42.568 35.76 42.448 35.64C42.358 35.52 42.208 35.4 41.998 35.28C40.618 34.56 39.613 33.69 38.983 32.67C38.383 31.62 37.993 30.525 37.813 29.385C37.333 30.135 36.808 30.885 36.238 31.635C35.698 32.385 35.203 33.06 34.753 33.66C34.603 33.87 34.468 33.975 34.348 33.975C34.288 33.915 34.258 33.84 34.258 33.75C34.288 33.66 34.318 33.57 34.348 33.48C34.828 31.92 35.443 30.45 36.193 29.07C36.943 27.66 37.723 26.25 38.533 24.84C38.773 24.42 38.998 24.015 39.208 23.625C39.448 23.205 39.658 22.785 39.838 22.365C40.048 21.945 40.213 21.48 40.333 20.97C40.483 20.46 40.603 19.875 40.693 19.215C40.723 19.005 40.708 18.75 40.648 18.45C40.618 18.15 40.648 18 40.738 18ZM31.243 20.52C31.243 21.63 31.183 22.8 31.063 24.03C30.943 25.26 30.733 26.4 30.433 27.45C30.433 27.51 30.418 27.615 30.388 27.765C30.358 27.915 30.283 28.005 30.163 28.035C30.103 28.035 30.043 27.96 29.983 27.81C29.923 27.66 29.893 27.555 29.893 27.495C29.833 27.255 29.773 26.97 29.713 26.64C29.683 26.28 29.653 25.92 29.623 25.56C29.593 25.2 29.563 24.84 29.533 24.48C29.533 24.12 29.548 23.805 29.578 23.535C29.608 23.355 29.593 22.905 29.533 22.185C29.473 21.465 29.383 20.685 29.263 19.845C29.143 19.005 28.978 18.195 28.768 17.415C28.558 16.635 28.303 16.11 28.003 15.84C27.943 15.78 27.898 15.72 27.868 15.66C27.868 15.57 27.883 15.525 27.913 15.525C27.973 15.525 28.033 15.555 28.093 15.615C28.183 15.645 28.258 15.66 28.318 15.66C28.738 15.87 29.128 16.17 29.488 16.56C29.848 16.95 30.148 17.37 30.388 17.82C30.658 18.27 30.868 18.735 31.018 19.215C31.168 19.695 31.243 20.13 31.243 20.52ZM37.408 15.12C37.858 16.11 37.993 17.115 37.813 18.135C37.663 19.125 37.348 20.13 36.868 21.15C36.418 22.14 35.878 23.145 35.248 24.165C34.618 25.155 34.063 26.145 33.583 27.135C32.983 28.395 32.548 29.775 32.278 31.275C32.038 32.775 32.128 34.35 32.548 36V36.045C32.518 36.075 32.503 36.09 32.503 36.09C32.443 36.09 32.398 36.075 32.368 36.045C32.338 36.045 32.323 36.03 32.323 36C32.233 35.88 32.128 35.76 32.008 35.64C31.888 35.52 31.723 35.4 31.513 35.28C30.643 34.83 29.923 34.305 29.353 33.705C28.783 33.105 28.333 32.46 28.003 31.77C27.703 31.08 27.478 30.36 27.328 29.61C27.208 28.86 27.148 28.11 27.148 27.36C27.118 26.28 27.133 25.2 27.193 24.12C27.283 23.01 27.328 21.945 27.328 20.925C27.358 19.905 27.313 18.93 27.193 18C27.073 17.04 26.818 16.17 26.428 15.39C26.428 15.33 26.428 15.3 26.428 15.3C26.488 15.24 26.548 15.24 26.608 15.3C26.668 15.33 26.713 15.345 26.743 15.345C27.523 16.065 28.048 16.905 28.318 17.865C28.588 18.825 28.738 19.845 28.768 20.925C28.798 22.005 28.753 23.115 28.633 24.255C28.513 25.395 28.468 26.52 28.498 27.63C28.528 28.29 28.603 28.965 28.723 29.655C28.843 30.345 29.038 31.02 29.308 31.68C29.578 32.31 29.923 32.925 30.343 33.525C30.793 34.125 31.318 34.665 31.918 35.145C31.798 34.845 31.708 34.635 31.648 34.515C31.588 34.365 31.438 34.095 31.198 33.705C31.048 33.525 30.913 33.285 30.793 32.985C30.673 32.655 30.568 32.355 30.478 32.085C30.388 31.785 30.328 31.53 30.298 31.32C30.298 31.11 30.343 31.005 30.433 31.005C30.583 30.945 30.718 31.02 30.838 31.23C30.988 31.44 31.108 31.635 31.198 31.815C31.168 31.185 31.198 30.555 31.288 29.925C31.408 29.265 31.498 28.665 31.558 28.125C31.648 27.345 31.723 26.655 31.783 26.055C31.843 25.425 31.888 24.675 31.918 23.805C31.978 22.875 31.978 21.855 31.918 20.745C31.888 19.635 31.648 18.555 31.198 17.505C31.198 17.415 31.213 17.37 31.243 17.37C31.303 17.37 31.348 17.385 31.378 17.415C31.408 17.445 31.453 17.475 31.513 17.505C31.903 17.805 32.218 18.225 32.458 18.765C32.728 19.275 32.923 19.86 33.043 20.52C33.193 21.15 33.283 21.825 33.313 22.545C33.373 23.235 33.403 23.895 33.403 24.525C33.853 23.715 34.318 22.905 34.798 22.095C35.278 21.285 35.698 20.49 36.058 19.71C36.448 18.9 36.748 18.105 36.958 17.325C37.168 16.545 37.258 15.78 37.228 15.03C37.228 14.94 37.258 14.895 37.318 14.895C37.348 14.865 37.363 14.88 37.363 14.94C37.393 15 37.408 15.06 37.408 15.12ZM33.763 36C33.763 36.12 33.733 36.18 33.673 36.18C33.643 36.18 33.583 36.15 33.493 36.09C33.433 36.06 33.373 36.03 33.313 36C33.073 35.82 32.893 35.565 32.773 35.235C32.683 34.905 32.668 34.41 32.728 33.75C32.728 33.48 32.758 33.18 32.818 32.85C32.878 32.52 32.953 32.22 33.043 31.95C33.133 31.65 33.223 31.425 33.313 31.275C33.403 31.095 33.493 31.02 33.583 31.05C33.733 31.11 33.793 31.305 33.763 31.635C33.763 31.935 33.763 32.16 33.763 32.31C33.733 33.09 33.718 33.795 33.718 34.425C33.718 35.055 33.733 35.58 33.763 36ZM44.248 36C44.248 36.12 44.218 36.18 44.158 36.18C44.128 36.18 44.068 36.15 43.978 36.09C43.918 36.06 43.858 36.03 43.798 36C43.558 35.82 43.378 35.565 43.258 35.235C43.168 34.905 43.153 34.41 43.213 33.75C43.213 33.48 43.243 33.18 43.303 32.85C43.363 32.52 43.438 32.22 43.528 31.95C43.618 31.65 43.708 31.425 43.798 31.275C43.888 31.095 43.978 31.02 44.068 31.05C44.218 31.11 44.278 31.305 44.248 31.635C44.248 31.935 44.248 32.16 44.248 32.31C44.218 33.09 44.203 33.795 44.203 34.425C44.203 35.055 44.218 35.58 44.248 36ZM69.5071 20.16C69.2671 21.36 68.8621 22.56 68.2921 23.76C67.7221 24.96 67.1821 26.085 66.6721 27.135C66.6421 27.195 66.5671 27.3 66.4471 27.45C66.3571 27.6 66.2821 27.675 66.2221 27.675C66.1321 27.645 66.0871 27.555 66.0871 27.405C66.0871 27.225 66.0871 27.105 66.0871 27.045C66.1171 26.775 66.1621 26.46 66.2221 26.1C66.3121 25.71 66.3871 25.32 66.4471 24.93C66.5071 24.51 66.5671 24.12 66.6271 23.76C66.7171 23.37 66.8071 23.025 66.8971 22.725C67.1671 21.705 67.3921 20.835 67.5721 20.115C67.7521 19.365 67.8871 18.69 67.9771 18.09C68.0671 17.49 68.1121 16.92 68.1121 16.38C68.1421 15.84 68.1121 15.255 68.0221 14.625C67.9921 14.385 68.0071 14.235 68.0671 14.175C68.1271 14.145 68.2021 14.175 68.2921 14.265C68.3821 14.355 68.4571 14.445 68.5171 14.535C69.0271 15.345 69.3721 16.245 69.5521 17.235C69.7321 18.195 69.7171 19.17 69.5071 20.16ZM70.5871 17.145C70.9771 17.715 71.1721 18.465 71.1721 19.395C71.1721 20.325 71.0821 21.285 70.9021 22.275C70.7221 23.235 70.4971 24.165 70.2271 25.065C69.9571 25.965 69.7621 26.685 69.6421 27.225C69.4021 28.275 69.0721 29.325 68.6521 30.375C68.2321 31.425 67.8721 32.355 67.5721 33.165C67.5421 33.255 67.4971 33.36 67.4371 33.48C67.3771 33.57 67.3171 33.615 67.2571 33.615C67.1971 33.615 67.1671 33.555 67.1671 33.435C67.1671 33.315 67.1671 33.21 67.1671 33.12C67.0771 31.47 67.2571 29.865 67.7071 28.305C68.1571 26.715 68.6371 25.11 69.1471 23.49C69.4471 22.5 69.7321 21.495 70.0021 20.475C70.2721 19.425 70.3921 18.285 70.3621 17.055C70.3621 16.935 70.3771 16.875 70.4071 16.875L70.5871 17.145ZM66.3571 16.38C64.5271 17.13 62.9671 18.21 61.6771 19.62C60.4171 21 59.4421 22.56 58.7521 24.3C58.4521 25.08 58.2271 25.785 58.0771 26.415C57.9271 27.015 57.8071 27.675 57.7171 28.395C57.6871 28.545 57.7321 28.695 57.8521 28.845C57.9721 28.995 58.0921 28.995 58.2121 28.845C58.7521 28.185 59.4421 27.345 60.2821 26.325C61.1221 25.305 61.9621 24.225 62.8021 23.085C63.6421 21.945 64.3921 20.79 65.0521 19.62C65.7421 18.45 66.1771 17.37 66.3571 16.38ZM63.3421 31.635C62.8921 32.265 62.4571 32.85 62.0371 33.39C61.6171 33.93 61.1521 34.41 60.6421 34.83C60.1321 35.22 59.5621 35.535 58.9321 35.775C58.3021 36.015 57.5821 36.15 56.7721 36.18C55.4221 36.24 54.3871 35.895 53.6671 35.145C52.9771 34.395 52.4971 33.48 52.2271 32.4C51.9571 31.32 51.8521 30.21 51.9121 29.07C52.0021 27.9 52.1671 26.94 52.4071 26.19C52.7371 25.14 53.1271 24.15 53.5771 23.22C54.0571 22.26 54.5521 21.405 55.0621 20.655C55.6021 19.875 56.1421 19.215 56.6821 18.675C57.2521 18.105 57.8071 17.67 58.3471 17.37C58.3771 17.37 58.4371 17.34 58.5271 17.28C58.6471 17.22 58.7071 17.235 58.7071 17.325C58.7371 17.325 58.7221 17.37 58.6621 17.46C58.6021 17.55 58.5421 17.625 58.4821 17.685C56.9221 19.305 55.6771 21.135 54.7471 23.175C53.8471 25.215 53.3371 27.315 53.2171 29.475C53.1871 30.015 53.2021 30.6 53.2621 31.23C53.3521 31.86 53.5021 32.46 53.7121 33.03C53.9521 33.57 54.2821 34.035 54.7021 34.425C55.1221 34.785 55.6921 34.965 56.4121 34.965C56.9821 34.965 57.5071 34.875 57.9871 34.695C58.4671 34.485 58.9171 34.23 59.3371 33.93C59.7571 33.6 60.1321 33.255 60.4621 32.895C60.8221 32.505 61.1371 32.145 61.4071 31.815C62.0071 31.065 62.5621 30.285 63.0721 29.475C63.0721 28.875 63.1021 28.29 63.1621 27.72C63.2521 27.15 63.3721 26.58 63.5221 26.01C63.6121 25.59 63.6871 25.26 63.7471 25.02C63.8371 24.75 63.9121 24.51 63.9721 24.3C64.0621 24.06 64.1371 23.82 64.1971 23.58C64.2871 23.31 64.4071 22.965 64.5571 22.545C64.0771 23.385 63.5971 24.18 63.1171 24.93C62.6671 25.65 62.1721 26.355 61.6321 27.045C61.1221 27.705 60.5821 28.365 60.0121 29.025C59.4721 29.655 58.8721 30.3 58.2121 30.96C57.7021 31.47 57.2821 31.635 56.9521 31.455C56.6221 31.275 56.4271 30.855 56.3671 30.195C56.3071 29.175 56.3521 28.185 56.5021 27.225C56.6821 26.265 56.9821 25.26 57.4021 24.21C57.7921 23.25 58.2721 22.32 58.8421 21.42C59.4421 20.52 60.1171 19.71 60.8671 18.99C61.6471 18.24 62.5021 17.61 63.4321 17.1C64.3621 16.56 65.3521 16.2 66.4021 16.02C66.4621 15.69 66.5071 15.405 66.5371 15.165C66.5971 14.925 66.6421 14.685 66.6721 14.445C66.7321 14.115 66.7621 13.95 66.7621 13.95C66.8221 13.92 66.8821 13.95 66.9421 14.04C67.0321 14.13 67.1071 14.25 67.1671 14.4C67.5271 15.39 67.6471 16.38 67.5271 17.37C67.4071 18.36 67.1821 19.365 66.8521 20.385C66.5521 21.405 66.1921 22.455 65.7721 23.535C65.3521 24.585 65.0071 25.65 64.7371 26.73C64.3771 28.26 64.2721 29.85 64.4221 31.5C64.6021 33.12 65.2471 34.59 66.3571 35.91C66.4471 36.03 66.4921 36.09 66.4921 36.09C66.4621 36.12 66.3721 36.09 66.2221 36C65.3521 35.46 64.6921 34.815 64.2421 34.065C63.8221 33.285 63.5221 32.475 63.3421 31.635ZM64.9171 15.705C64.9771 15.765 64.9621 15.81 64.8721 15.84C64.8121 15.87 64.6621 15.915 64.4221 15.975C64.0321 16.095 63.5521 16.32 62.9821 16.65C62.4421 16.98 61.8571 17.4 61.2271 17.91C60.6271 18.42 60.0271 19.02 59.4271 19.71C58.8271 20.37 58.3021 21.09 57.8521 21.87C57.4021 22.68 57.0121 23.475 56.6821 24.255C56.3821 25.035 56.1271 25.755 55.9171 26.415C55.7371 27.045 55.6021 27.6 55.5121 28.08C55.4221 28.53 55.3771 28.845 55.3771 29.025C55.3771 29.475 55.3771 29.955 55.3771 30.465C55.3771 30.945 55.4371 31.38 55.5571 31.77C55.6771 32.16 55.8871 32.46 56.1871 32.67C56.4871 32.88 56.9371 32.94 57.5371 32.85C57.5671 32.85 57.6421 32.835 57.7621 32.805C57.8821 32.745 58.0021 32.7 58.1221 32.67C58.2421 32.61 58.3471 32.565 58.4371 32.535C58.5571 32.505 58.6321 32.49 58.6621 32.49C58.6921 32.55 58.6621 32.625 58.5721 32.715C58.5121 32.805 58.4221 32.91 58.3021 33.03C58.1821 33.12 58.0621 33.21 57.9421 33.3C57.8521 33.39 57.7921 33.45 57.7621 33.48C57.0121 33.93 56.3821 34.065 55.8721 33.885C55.3621 33.705 54.9571 33.375 54.6571 32.895C54.3871 32.385 54.1921 31.8 54.0721 31.14C53.9821 30.45 53.9521 29.835 53.9821 29.295C54.0421 28.245 54.2071 27.21 54.4771 26.19C54.7471 25.14 55.0921 24.09 55.5121 23.04C55.8421 22.23 56.3371 21.405 56.9971 20.565C57.6571 19.695 58.3921 18.9 59.2021 18.18C60.0421 17.46 60.9121 16.875 61.8121 16.425C62.7121 15.945 63.5821 15.69 64.4221 15.66C64.7221 15.66 64.8871 15.675 64.9171 15.705ZM67.5721 35.91C67.6321 36 67.6471 36.06 67.6171 36.09C67.5271 36.09 67.4071 36.06 67.2571 36C67.1671 35.94 66.9271 35.76 66.5371 35.46C66.1471 35.16 65.8621 34.68 65.6821 34.02C65.6221 33.78 65.5621 33.48 65.5021 33.12C65.4721 32.73 65.4571 32.37 65.4571 32.04C65.4571 31.71 65.4721 31.425 65.5021 31.185C65.5621 30.945 65.6371 30.825 65.7271 30.825C65.8171 30.825 65.9071 31.005 65.9971 31.365C66.1171 31.725 66.1921 31.95 66.2221 32.04C66.3121 32.46 66.3871 32.835 66.4471 33.165C66.5371 33.465 66.6271 33.75 66.7171 34.02C66.8371 34.35 66.9871 34.725 67.1671 35.145C67.3771 35.565 67.5121 35.82 67.5721 35.91ZM77.6285 21.015C77.3885 22.035 77.0435 23.115 76.5935 24.255C76.1735 25.365 75.6935 26.4 75.1535 27.36C75.1535 27.42 75.1085 27.525 75.0185 27.675C74.9585 27.795 74.8685 27.855 74.7485 27.855C74.6885 27.855 74.6435 27.765 74.6135 27.585C74.6135 27.405 74.6285 27.285 74.6585 27.225C74.6585 26.745 74.7185 26.115 74.8385 25.335C74.9585 24.525 75.1085 23.865 75.2885 23.355C75.3485 23.175 75.4385 22.74 75.5585 22.05C75.7085 21.36 75.8285 20.595 75.9185 19.755C76.0385 18.885 76.0985 18.06 76.0985 17.28C76.1285 16.47 76.0385 15.87 75.8285 15.48V15.3C75.9485 15.21 76.0835 15.24 76.2335 15.39C76.6235 15.72 76.9235 16.125 77.1335 16.605C77.3735 17.085 77.5385 17.595 77.6285 18.135C77.7485 18.645 77.7935 19.155 77.7635 19.665C77.7635 20.175 77.7185 20.625 77.6285 21.015ZM79.3835 20.835C79.7135 20.415 80.0285 20.115 80.3285 19.935C80.6285 19.755 80.9285 19.605 81.2285 19.485C81.2585 19.485 81.3335 19.47 81.4535 19.44C81.5735 19.41 81.6635 19.44 81.7235 19.53C81.7835 19.62 81.7685 19.725 81.6785 19.845C81.5885 19.965 81.5135 20.055 81.4535 20.115C81.2435 20.325 81.0035 20.565 80.7335 20.835C80.4935 21.075 80.2685 21.315 80.0585 21.555C79.7585 21.885 79.5185 22.275 79.3385 22.725C79.1585 23.145 79.0235 23.58 78.9335 24.03C79.4435 23.49 79.9235 22.98 80.3735 22.5C80.8535 22.02 81.3635 21.57 81.9035 21.15C82.5935 20.64 83.1935 19.98 83.7035 19.17C84.2135 18.36 84.5735 17.175 84.7835 15.615C84.8435 15.465 84.9185 15.375 85.0085 15.345C85.0985 15.315 85.1435 15.42 85.1435 15.66C85.2335 17.4 85.0535 18.78 84.6035 19.8C84.1535 20.82 83.4785 21.675 82.5785 22.365C82.0985 22.725 81.6185 23.115 81.1385 23.535C80.6585 23.955 80.1935 24.42 79.7435 24.93C79.3235 25.44 78.9335 26.04 78.5735 26.73C78.2135 27.42 77.8985 28.215 77.6285 29.115C77.4185 29.805 77.2085 30.465 76.9985 31.095C76.7885 31.695 76.5635 32.28 76.3235 32.85C76.2635 33.06 76.1735 33.165 76.0535 33.165C75.9635 33.135 75.9185 32.985 75.9185 32.715C75.7685 31.275 75.8585 29.85 76.1885 28.44C76.5485 27 76.9685 25.515 77.4485 23.985C77.6585 23.235 77.8985 22.485 78.1685 21.735C78.4685 20.985 78.6035 20.13 78.5735 19.17C78.5735 18.84 78.7085 18.495 78.9785 18.135C79.2485 17.775 79.5785 17.445 79.9685 17.145C80.3585 16.815 80.7635 16.545 81.1835 16.335C81.6035 16.095 81.9635 15.93 82.2635 15.84C82.5335 15.75 82.6685 15.765 82.6685 15.885C82.6685 16.005 82.5785 16.155 82.3985 16.335C81.7685 16.905 81.1235 17.58 80.4635 18.36C79.8335 19.14 79.4735 19.965 79.3835 20.835ZM75.4685 35.955C75.4385 35.985 75.4085 36 75.3785 36C75.3785 35.97 75.3035 35.91 75.1535 35.82C74.2535 35.16 73.5485 34.44 73.0385 33.66C72.5285 32.88 72.1535 32.085 71.9135 31.275C71.7035 30.435 71.6135 29.61 71.6435 28.8C71.6735 27.96 71.7785 27.15 71.9585 26.37C72.1985 25.32 72.4835 24.285 72.8135 23.265C73.1735 22.215 73.5035 21.21 73.8035 20.25C74.1035 19.26 74.3285 18.3 74.4785 17.37C74.6285 16.41 74.6285 15.495 74.4785 14.625C74.4785 14.565 74.5235 14.52 74.6135 14.49C74.6435 14.49 74.6735 14.52 74.7035 14.58C74.7335 14.61 74.7635 14.64 74.7935 14.67C75.3635 15.63 75.6485 16.62 75.6485 17.64C75.6485 18.63 75.5135 19.65 75.2435 20.7C74.9735 21.72 74.6285 22.77 74.2085 23.85C73.8185 24.9 73.5035 25.965 73.2635 27.045C72.9635 28.425 72.9335 29.895 73.1735 31.455C73.4435 33.015 74.1485 34.41 75.2885 35.64C75.3485 35.73 75.4085 35.79 75.4685 35.82C75.5285 35.85 75.5285 35.895 75.4685 35.955ZM76.8185 36C76.7585 36 76.6985 35.985 76.6385 35.955L76.4585 35.865C76.0385 35.595 75.6635 35.31 75.3335 35.01C75.0035 34.68 74.7185 34.215 74.4785 33.615C74.3885 33.405 74.3135 33.135 74.2535 32.805C74.1935 32.445 74.1485 32.115 74.1185 31.815C74.1185 31.515 74.1335 31.26 74.1635 31.05C74.2235 30.84 74.3135 30.75 74.4335 30.78C74.5235 30.78 74.6135 30.9 74.7035 31.14C74.8235 31.38 74.9135 31.62 74.9735 31.86C75.0335 32.19 75.0935 32.505 75.1535 32.805C75.2435 33.105 75.3485 33.375 75.4685 33.615C75.7985 34.365 76.2335 35.085 76.7735 35.775C76.8335 35.925 76.8485 36 76.8185 36ZM84.1535 15.795C84.1535 16.425 83.9735 16.98 83.6135 17.46C83.2535 17.94 82.8185 18.345 82.3085 18.675C82.2185 18.735 82.1585 18.735 82.1285 18.675C82.0985 18.585 82.0835 18.525 82.0835 18.495C82.0835 18.315 82.1585 18.105 82.3085 17.865C82.4585 17.595 82.6235 17.325 82.8035 17.055C83.0135 16.755 83.2085 16.455 83.3885 16.155C83.5685 15.855 83.6885 15.585 83.7485 15.345C83.8385 15.195 83.9285 15.195 84.0185 15.345C84.1085 15.495 84.1535 15.645 84.1535 15.795ZM102.29 20.16C102.05 21.36 101.645 22.56 101.075 23.76C100.505 24.96 99.9653 26.085 99.4553 27.135C99.4253 27.195 99.3503 27.3 99.2303 27.45C99.1403 27.6 99.0653 27.675 99.0053 27.675C98.9153 27.645 98.8703 27.555 98.8703 27.405C98.8703 27.225 98.8703 27.105 98.8703 27.045C98.9003 26.775 98.9453 26.46 99.0053 26.1C99.0953 25.71 99.1703 25.32 99.2303 24.93C99.2903 24.51 99.3503 24.12 99.4103 23.76C99.5003 23.37 99.5903 23.025 99.6803 22.725C99.9503 21.705 100.175 20.835 100.355 20.115C100.535 19.365 100.67 18.69 100.76 18.09C100.85 17.49 100.895 16.92 100.895 16.38C100.925 15.84 100.895 15.255 100.805 14.625C100.775 14.385 100.79 14.235 100.85 14.175C100.91 14.145 100.985 14.175 101.075 14.265C101.165 14.355 101.24 14.445 101.3 14.535C101.81 15.345 102.155 16.245 102.335 17.235C102.515 18.195 102.5 19.17 102.29 20.16ZM103.37 17.145C103.76 17.715 103.955 18.465 103.955 19.395C103.955 20.325 103.865 21.285 103.685 22.275C103.505 23.235 103.28 24.165 103.01 25.065C102.74 25.965 102.545 26.685 102.425 27.225C102.185 28.275 101.855 29.325 101.435 30.375C101.015 31.425 100.655 32.355 100.355 33.165C100.325 33.255 100.28 33.36 100.22 33.48C100.16 33.57 100.1 33.615 100.04 33.615C99.9803 33.615 99.9503 33.555 99.9503 33.435C99.9503 33.315 99.9503 33.21 99.9503 33.12C99.8603 31.47 100.04 29.865 100.49 28.305C100.94 26.715 101.42 25.11 101.93 23.49C102.23 22.5 102.515 21.495 102.785 20.475C103.055 19.425 103.175 18.285 103.145 17.055C103.145 16.935 103.16 16.875 103.19 16.875L103.37 17.145ZM99.1403 16.38C97.3103 17.13 95.7503 18.21 94.4603 19.62C93.2003 21 92.2253 22.56 91.5353 24.3C91.2353 25.08 91.0103 25.785 90.8603 26.415C90.7103 27.015 90.5903 27.675 90.5003 28.395C90.4703 28.545 90.5153 28.695 90.6353 28.845C90.7553 28.995 90.8753 28.995 90.9953 28.845C91.5353 28.185 92.2253 27.345 93.0653 26.325C93.9053 25.305 94.7453 24.225 95.5853 23.085C96.4253 21.945 97.1753 20.79 97.8353 19.62C98.5253 18.45 98.9603 17.37 99.1403 16.38ZM96.1253 31.635C95.6753 32.265 95.2403 32.85 94.8203 33.39C94.4003 33.93 93.9353 34.41 93.4253 34.83C92.9153 35.22 92.3453 35.535 91.7153 35.775C91.0853 36.015 90.3653 36.15 89.5553 36.18C88.2053 36.24 87.1703 35.895 86.4503 35.145C85.7603 34.395 85.2803 33.48 85.0103 32.4C84.7403 31.32 84.6353 30.21 84.6953 29.07C84.7853 27.9 84.9503 26.94 85.1903 26.19C85.5203 25.14 85.9103 24.15 86.3603 23.22C86.8403 22.26 87.3353 21.405 87.8453 20.655C88.3853 19.875 88.9253 19.215 89.4653 18.675C90.0353 18.105 90.5903 17.67 91.1303 17.37C91.1603 17.37 91.2203 17.34 91.3103 17.28C91.4303 17.22 91.4903 17.235 91.4903 17.325C91.5203 17.325 91.5053 17.37 91.4453 17.46C91.3853 17.55 91.3253 17.625 91.2653 17.685C89.7053 19.305 88.4603 21.135 87.5303 23.175C86.6303 25.215 86.1203 27.315 86.0003 29.475C85.9703 30.015 85.9853 30.6 86.0453 31.23C86.1353 31.86 86.2853 32.46 86.4953 33.03C86.7353 33.57 87.0653 34.035 87.4853 34.425C87.9053 34.785 88.4753 34.965 89.1953 34.965C89.7653 34.965 90.2903 34.875 90.7703 34.695C91.2503 34.485 91.7003 34.23 92.1203 33.93C92.5403 33.6 92.9153 33.255 93.2453 32.895C93.6053 32.505 93.9203 32.145 94.1903 31.815C94.7903 31.065 95.3453 30.285 95.8553 29.475C95.8553 28.875 95.8853 28.29 95.9453 27.72C96.0353 27.15 96.1553 26.58 96.3053 26.01C96.3953 25.59 96.4703 25.26 96.5303 25.02C96.6203 24.75 96.6953 24.51 96.7553 24.3C96.8453 24.06 96.9203 23.82 96.9803 23.58C97.0703 23.31 97.1903 22.965 97.3403 22.545C96.8603 23.385 96.3803 24.18 95.9003 24.93C95.4503 25.65 94.9553 26.355 94.4153 27.045C93.9053 27.705 93.3653 28.365 92.7953 29.025C92.2553 29.655 91.6553 30.3 90.9953 30.96C90.4853 31.47 90.0653 31.635 89.7353 31.455C89.4053 31.275 89.2103 30.855 89.1503 30.195C89.0903 29.175 89.1353 28.185 89.2853 27.225C89.4653 26.265 89.7653 25.26 90.1853 24.21C90.5753 23.25 91.0553 22.32 91.6253 21.42C92.2253 20.52 92.9003 19.71 93.6503 18.99C94.4303 18.24 95.2853 17.61 96.2153 17.1C97.1453 16.56 98.1353 16.2 99.1853 16.02C99.2453 15.69 99.2903 15.405 99.3203 15.165C99.3803 14.925 99.4253 14.685 99.4553 14.445C99.5153 14.115 99.5453 13.95 99.5453 13.95C99.6053 13.92 99.6653 13.95 99.7253 14.04C99.8153 14.13 99.8903 14.25 99.9503 14.4C100.31 15.39 100.43 16.38 100.31 17.37C100.19 18.36 99.9653 19.365 99.6353 20.385C99.3353 21.405 98.9753 22.455 98.5553 23.535C98.1353 24.585 97.7903 25.65 97.5203 26.73C97.1603 28.26 97.0553 29.85 97.2053 31.5C97.3853 33.12 98.0303 34.59 99.1403 35.91C99.2303 36.03 99.2753 36.09 99.2753 36.09C99.2453 36.12 99.1553 36.09 99.0053 36C98.1353 35.46 97.4753 34.815 97.0253 34.065C96.6053 33.285 96.3053 32.475 96.1253 31.635ZM97.7003 15.705C97.7603 15.765 97.7453 15.81 97.6553 15.84C97.5953 15.87 97.4453 15.915 97.2053 15.975C96.8153 16.095 96.3353 16.32 95.7653 16.65C95.2253 16.98 94.6403 17.4 94.0103 17.91C93.4103 18.42 92.8103 19.02 92.2103 19.71C91.6103 20.37 91.0853 21.09 90.6353 21.87C90.1853 22.68 89.7953 23.475 89.4653 24.255C89.1653 25.035 88.9103 25.755 88.7003 26.415C88.5203 27.045 88.3853 27.6 88.2953 28.08C88.2053 28.53 88.1603 28.845 88.1603 29.025C88.1603 29.475 88.1603 29.955 88.1603 30.465C88.1603 30.945 88.2203 31.38 88.3403 31.77C88.4603 32.16 88.6703 32.46 88.9703 32.67C89.2703 32.88 89.7203 32.94 90.3203 32.85C90.3503 32.85 90.4253 32.835 90.5453 32.805C90.6653 32.745 90.7853 32.7 90.9053 32.67C91.0253 32.61 91.1303 32.565 91.2203 32.535C91.3403 32.505 91.4153 32.49 91.4453 32.49C91.4753 32.55 91.4453 32.625 91.3553 32.715C91.2953 32.805 91.2053 32.91 91.0853 33.03C90.9653 33.12 90.8453 33.21 90.7253 33.3C90.6353 33.39 90.5753 33.45 90.5453 33.48C89.7953 33.93 89.1653 34.065 88.6553 33.885C88.1453 33.705 87.7403 33.375 87.4403 32.895C87.1703 32.385 86.9753 31.8 86.8553 31.14C86.7653 30.45 86.7353 29.835 86.7653 29.295C86.8253 28.245 86.9903 27.21 87.2603 26.19C87.5303 25.14 87.8753 24.09 88.2953 23.04C88.6253 22.23 89.1203 21.405 89.7803 20.565C90.4403 19.695 91.1753 18.9 91.9853 18.18C92.8253 17.46 93.6953 16.875 94.5953 16.425C95.4953 15.945 96.3653 15.69 97.2053 15.66C97.5053 15.66 97.6703 15.675 97.7003 15.705ZM100.355 35.91C100.415 36 100.43 36.06 100.4 36.09C100.31 36.09 100.19 36.06 100.04 36C99.9503 35.94 99.7103 35.76 99.3203 35.46C98.9303 35.16 98.6453 34.68 98.4653 34.02C98.4053 33.78 98.3453 33.48 98.2853 33.12C98.2553 32.73 98.2403 32.37 98.2403 32.04C98.2403 31.71 98.2553 31.425 98.2853 31.185C98.3453 30.945 98.4203 30.825 98.5103 30.825C98.6003 30.825 98.6903 31.005 98.7803 31.365C98.9003 31.725 98.9753 31.95 99.0053 32.04C99.0953 32.46 99.1703 32.835 99.2303 33.165C99.3203 33.465 99.4103 33.75 99.5003 34.02C99.6203 34.35 99.7703 34.725 99.9503 35.145C100.16 35.565 100.295 35.82 100.355 35.91Z" fill="#23A455"/>
<path d="M112.572 13.14C112.152 14.76 111.627 16.44 110.997 18.18C110.397 19.92 109.767 21.57 109.107 23.13C109.077 23.19 109.002 23.34 108.882 23.58C108.762 23.79 108.672 23.88 108.612 23.85C108.522 23.85 108.477 23.73 108.477 23.49C108.507 23.22 108.537 23.04 108.567 22.95C108.597 22.59 108.657 22.14 108.747 21.6C108.867 21.06 108.972 20.505 109.062 19.935C109.182 19.365 109.302 18.81 109.422 18.27C109.572 17.73 109.707 17.265 109.827 16.875C109.917 16.605 110.082 15.93 110.322 14.85C110.562 13.77 110.787 12.57 110.997 11.25C111.237 9.93 111.417 8.655 111.537 7.425C111.657 6.195 111.657 5.295 111.537 4.725C111.477 4.455 111.477 4.32 111.537 4.32C111.597 4.32 111.642 4.365 111.672 4.455C111.732 4.515 111.792 4.575 111.852 4.635C112.182 5.145 112.437 5.76 112.617 6.48C112.797 7.2 112.902 7.965 112.932 8.775C112.992 9.555 112.977 10.335 112.887 11.115C112.827 11.895 112.722 12.57 112.572 13.14ZM110.547 3.51C110.967 4.95 111.102 6.45 110.952 8.01C110.802 9.54 110.502 11.115 110.052 12.735C109.632 14.355 109.152 16.005 108.612 17.685C108.072 19.365 107.607 21.03 107.217 22.68C106.857 24.24 106.602 25.785 106.452 27.315C106.332 28.845 106.437 30.405 106.767 31.995C106.857 31.845 106.947 31.74 107.037 31.68C107.157 31.62 107.277 31.545 107.397 31.455C107.397 31.095 107.397 30.735 107.397 30.375C107.397 29.985 107.412 29.64 107.442 29.34C107.472 29.04 107.517 28.8 107.577 28.62C107.637 28.44 107.727 28.35 107.847 28.35C107.877 28.35 107.907 28.425 107.937 28.575C107.997 28.725 108.042 28.905 108.072 29.115C108.102 29.295 108.132 29.49 108.162 29.7C108.192 29.88 108.207 30 108.207 30.06C108.237 30.3 108.252 30.48 108.252 30.6C108.252 30.72 108.282 30.855 108.342 31.005C108.402 30.975 108.492 30.945 108.612 30.915C108.762 30.855 108.912 30.81 109.062 30.78C109.212 28.62 109.557 26.475 110.097 24.345C110.637 22.185 111.237 20.01 111.897 17.82C112.317 16.41 112.707 14.97 113.067 13.5C113.457 12 113.682 10.395 113.742 8.685C113.742 8.535 113.787 8.46 113.877 8.46C113.907 8.46 113.922 8.49 113.922 8.55C113.922 8.61 113.952 8.67 114.012 8.73C114.342 9.54 114.462 10.605 114.372 11.925C114.282 13.215 114.102 14.565 113.832 15.975C113.562 17.355 113.247 18.705 112.887 20.025C112.527 21.315 112.257 22.35 112.077 23.13C111.747 24.39 111.372 25.68 110.952 27C110.532 28.29 110.127 29.505 109.737 30.645C110.307 30.555 110.907 30.495 111.537 30.465C112.197 30.435 112.797 30.435 113.337 30.465C113.877 30.465 114.342 30.48 114.732 30.51C115.152 30.51 115.422 30.51 115.542 30.51C116.412 30.54 117.312 30.645 118.242 30.825C119.172 31.005 119.982 31.155 120.672 31.275C120.912 31.335 121.032 31.395 121.032 31.455C121.032 31.515 120.987 31.56 120.897 31.59C120.807 31.62 120.732 31.65 120.672 31.68C119.352 32.1 118.017 32.28 116.667 32.22C115.347 32.13 113.967 32.01 112.527 31.86C111.987 31.8 111.417 31.755 110.817 31.725C110.247 31.695 109.677 31.71 109.107 31.77C108.537 31.8 107.982 31.905 107.442 32.085C106.932 32.235 106.467 32.49 106.047 32.85C105.387 31.14 105.102 29.34 105.192 27.45C105.282 25.56 105.552 23.67 106.002 21.78C106.392 20.13 106.842 18.495 107.352 16.875C107.862 15.225 108.327 13.635 108.747 12.105C109.197 10.545 109.557 9.045 109.827 7.605C110.127 6.165 110.262 4.785 110.232 3.465C110.292 3.285 110.337 3.195 110.367 3.195C110.397 3.165 110.427 3.21 110.457 3.33C110.487 3.42 110.517 3.48 110.547 3.51ZM123.102 30.375C123.162 30.285 123.207 30.3 123.237 30.42C123.297 30.51 123.297 30.63 123.237 30.78C123.057 31.23 122.877 31.62 122.697 31.95C122.547 32.28 122.232 32.61 121.752 32.94C121.542 33.09 121.287 33.225 120.987 33.345C120.687 33.465 120.402 33.555 120.132 33.615C119.862 33.675 119.622 33.705 119.412 33.705C119.202 33.705 119.097 33.645 119.097 33.525C119.067 33.435 119.187 33.315 119.457 33.165C119.757 33.015 119.967 32.91 120.087 32.85C120.327 32.7 120.567 32.565 120.807 32.445C121.047 32.295 121.287 32.13 121.527 31.95C121.767 31.71 122.022 31.47 122.292 31.23C122.592 30.99 122.862 30.705 123.102 30.375ZM123.327 31.725C123.417 31.575 123.462 31.56 123.462 31.68C123.462 31.8 123.447 31.89 123.417 31.95C122.967 32.97 122.442 33.75 121.842 34.29C121.272 34.83 120.642 35.235 119.952 35.505C119.292 35.745 118.587 35.895 117.837 35.955C117.117 35.985 116.397 36 115.677 36C113.667 35.97 111.702 35.895 109.782 35.775C107.892 35.625 106.182 35.7 104.652 36C104.592 36 104.532 36 104.472 36C104.412 36.03 104.442 36 104.562 35.91C105.282 35.19 106.092 34.755 106.992 34.605C107.892 34.455 108.837 34.44 109.827 34.56C110.847 34.65 111.882 34.8 112.932 35.01C113.982 35.22 115.002 35.34 115.992 35.37C117.252 35.4 118.542 35.145 119.862 34.605C121.212 34.035 122.367 33.075 123.327 31.725ZM116.442 33.795C116.442 33.855 116.382 33.9 116.262 33.93C116.142 33.96 116.052 33.975 115.992 33.975C115.542 34.065 114.927 34.125 114.147 34.155C113.397 34.185 112.707 34.17 112.077 34.11C111.927 34.11 111.582 34.095 111.042 34.065C110.502 34.005 109.872 33.99 109.152 34.02C108.462 34.02 107.757 34.095 107.037 34.245C106.317 34.395 105.702 34.65 105.192 35.01C105.072 35.13 104.982 35.145 104.922 35.055C104.922 35.025 104.937 34.965 104.967 34.875C105.027 34.755 105.072 34.68 105.102 34.65C105.522 33.99 106.167 33.495 107.037 33.165C107.937 32.805 108.837 32.58 109.737 32.49C110.697 32.4 111.732 32.46 112.842 32.67C113.952 32.85 115.002 33.09 115.992 33.39C116.022 33.39 116.097 33.435 116.217 33.525C116.367 33.615 116.442 33.705 116.442 33.795ZM142.149 20.16C141.909 21.36 141.504 22.56 140.934 23.76C140.364 24.96 139.824 26.085 139.314 27.135C139.284 27.195 139.209 27.3 139.089 27.45C138.999 27.6 138.924 27.675 138.864 27.675C138.774 27.645 138.729 27.555 138.729 27.405C138.729 27.225 138.729 27.105 138.729 27.045C138.759 26.775 138.804 26.46 138.864 26.1C138.954 25.71 139.029 25.32 139.089 24.93C139.149 24.51 139.209 24.12 139.269 23.76C139.359 23.37 139.449 23.025 139.539 22.725C139.809 21.705 140.034 20.835 140.214 20.115C140.394 19.365 140.529 18.69 140.619 18.09C140.709 17.49 140.754 16.92 140.754 16.38C140.784 15.84 140.754 15.255 140.664 14.625C140.634 14.385 140.649 14.235 140.709 14.175C140.769 14.145 140.844 14.175 140.934 14.265C141.024 14.355 141.099 14.445 141.159 14.535C141.669 15.345 142.014 16.245 142.194 17.235C142.374 18.195 142.359 19.17 142.149 20.16ZM143.229 17.145C143.619 17.715 143.814 18.465 143.814 19.395C143.814 20.325 143.724 21.285 143.544 22.275C143.364 23.235 143.139 24.165 142.869 25.065C142.599 25.965 142.404 26.685 142.284 27.225C142.044 28.275 141.714 29.325 141.294 30.375C140.874 31.425 140.514 32.355 140.214 33.165C140.184 33.255 140.139 33.36 140.079 33.48C140.019 33.57 139.959 33.615 139.899 33.615C139.839 33.615 139.809 33.555 139.809 33.435C139.809 33.315 139.809 33.21 139.809 33.12C139.719 31.47 139.899 29.865 140.349 28.305C140.799 26.715 141.279 25.11 141.789 23.49C142.089 22.5 142.374 21.495 142.644 20.475C142.914 19.425 143.034 18.285 143.004 17.055C143.004 16.935 143.019 16.875 143.049 16.875L143.229 17.145ZM138.999 16.38C137.169 17.13 135.609 18.21 134.319 19.62C133.059 21 132.084 22.56 131.394 24.3C131.094 25.08 130.869 25.785 130.719 26.415C130.569 27.015 130.449 27.675 130.359 28.395C130.329 28.545 130.374 28.695 130.494 28.845C130.614 28.995 130.734 28.995 130.854 28.845C131.394 28.185 132.084 27.345 132.924 26.325C133.764 25.305 134.604 24.225 135.444 23.085C136.284 21.945 137.034 20.79 137.694 19.62C138.384 18.45 138.819 17.37 138.999 16.38ZM135.984 31.635C135.534 32.265 135.099 32.85 134.679 33.39C134.259 33.93 133.794 34.41 133.284 34.83C132.774 35.22 132.204 35.535 131.574 35.775C130.944 36.015 130.224 36.15 129.414 36.18C128.064 36.24 127.029 35.895 126.309 35.145C125.619 34.395 125.139 33.48 124.869 32.4C124.599 31.32 124.494 30.21 124.554 29.07C124.644 27.9 124.809 26.94 125.049 26.19C125.379 25.14 125.769 24.15 126.219 23.22C126.699 22.26 127.194 21.405 127.704 20.655C128.244 19.875 128.784 19.215 129.324 18.675C129.894 18.105 130.449 17.67 130.989 17.37C131.019 17.37 131.079 17.34 131.169 17.28C131.289 17.22 131.349 17.235 131.349 17.325C131.379 17.325 131.364 17.37 131.304 17.46C131.244 17.55 131.184 17.625 131.124 17.685C129.564 19.305 128.319 21.135 127.389 23.175C126.489 25.215 125.979 27.315 125.859 29.475C125.829 30.015 125.844 30.6 125.904 31.23C125.994 31.86 126.144 32.46 126.354 33.03C126.594 33.57 126.924 34.035 127.344 34.425C127.764 34.785 128.334 34.965 129.054 34.965C129.624 34.965 130.149 34.875 130.629 34.695C131.109 34.485 131.559 34.23 131.979 33.93C132.399 33.6 132.774 33.255 133.104 32.895C133.464 32.505 133.779 32.145 134.049 31.815C134.649 31.065 135.204 30.285 135.714 29.475C135.714 28.875 135.744 28.29 135.804 27.72C135.894 27.15 136.014 26.58 136.164 26.01C136.254 25.59 136.329 25.26 136.389 25.02C136.479 24.75 136.554 24.51 136.614 24.3C136.704 24.06 136.779 23.82 136.839 23.58C136.929 23.31 137.049 22.965 137.199 22.545C136.719 23.385 136.239 24.18 135.759 24.93C135.309 25.65 134.814 26.355 134.274 27.045C133.764 27.705 133.224 28.365 132.654 29.025C132.114 29.655 131.514 30.3 130.854 30.96C130.344 31.47 129.924 31.635 129.594 31.455C129.264 31.275 129.069 30.855 129.009 30.195C128.949 29.175 128.994 28.185 129.144 27.225C129.324 26.265 129.624 25.26 130.044 24.21C130.434 23.25 130.914 22.32 131.484 21.42C132.084 20.52 132.759 19.71 133.509 18.99C134.289 18.24 135.144 17.61 136.074 17.1C137.004 16.56 137.994 16.2 139.044 16.02C139.104 15.69 139.149 15.405 139.179 15.165C139.239 14.925 139.284 14.685 139.314 14.445C139.374 14.115 139.404 13.95 139.404 13.95C139.464 13.92 139.524 13.95 139.584 14.04C139.674 14.13 139.749 14.25 139.809 14.4C140.169 15.39 140.289 16.38 140.169 17.37C140.049 18.36 139.824 19.365 139.494 20.385C139.194 21.405 138.834 22.455 138.414 23.535C137.994 24.585 137.649 25.65 137.379 26.73C137.019 28.26 136.914 29.85 137.064 31.5C137.244 33.12 137.889 34.59 138.999 35.91C139.089 36.03 139.134 36.09 139.134 36.09C139.104 36.12 139.014 36.09 138.864 36C137.994 35.46 137.334 34.815 136.884 34.065C136.464 33.285 136.164 32.475 135.984 31.635ZM137.559 15.705C137.619 15.765 137.604 15.81 137.514 15.84C137.454 15.87 137.304 15.915 137.064 15.975C136.674 16.095 136.194 16.32 135.624 16.65C135.084 16.98 134.499 17.4 133.869 17.91C133.269 18.42 132.669 19.02 132.069 19.71C131.469 20.37 130.944 21.09 130.494 21.87C130.044 22.68 129.654 23.475 129.324 24.255C129.024 25.035 128.769 25.755 128.559 26.415C128.379 27.045 128.244 27.6 128.154 28.08C128.064 28.53 128.019 28.845 128.019 29.025C128.019 29.475 128.019 29.955 128.019 30.465C128.019 30.945 128.079 31.38 128.199 31.77C128.319 32.16 128.529 32.46 128.829 32.67C129.129 32.88 129.579 32.94 130.179 32.85C130.209 32.85 130.284 32.835 130.404 32.805C130.524 32.745 130.644 32.7 130.764 32.67C130.884 32.61 130.989 32.565 131.079 32.535C131.199 32.505 131.274 32.49 131.304 32.49C131.334 32.55 131.304 32.625 131.214 32.715C131.154 32.805 131.064 32.91 130.944 33.03C130.824 33.12 130.704 33.21 130.584 33.3C130.494 33.39 130.434 33.45 130.404 33.48C129.654 33.93 129.024 34.065 128.514 33.885C128.004 33.705 127.599 33.375 127.299 32.895C127.029 32.385 126.834 31.8 126.714 31.14C126.624 30.45 126.594 29.835 126.624 29.295C126.684 28.245 126.849 27.21 127.119 26.19C127.389 25.14 127.734 24.09 128.154 23.04C128.484 22.23 128.979 21.405 129.639 20.565C130.299 19.695 131.034 18.9 131.844 18.18C132.684 17.46 133.554 16.875 134.454 16.425C135.354 15.945 136.224 15.69 137.064 15.66C137.364 15.66 137.529 15.675 137.559 15.705ZM140.214 35.91C140.274 36 140.289 36.06 140.259 36.09C140.169 36.09 140.049 36.06 139.899 36C139.809 35.94 139.569 35.76 139.179 35.46C138.789 35.16 138.504 34.68 138.324 34.02C138.264 33.78 138.204 33.48 138.144 33.12C138.114 32.73 138.099 32.37 138.099 32.04C138.099 31.71 138.114 31.425 138.144 31.185C138.204 30.945 138.279 30.825 138.369 30.825C138.459 30.825 138.549 31.005 138.639 31.365C138.759 31.725 138.834 31.95 138.864 32.04C138.954 32.46 139.029 32.835 139.089 33.165C139.179 33.465 139.269 33.75 139.359 34.02C139.479 34.35 139.629 34.725 139.809 35.145C140.019 35.565 140.154 35.82 140.214 35.91ZM154.725 27.54C154.335 28.26 153.9 29.04 153.42 29.88C152.94 30.69 152.475 31.275 152.025 31.635C151.575 31.995 151.26 32.115 151.08 31.995C150.9 31.875 150.69 31.605 150.45 31.185C150.21 30.825 150.09 30.645 150.09 30.645C150 30.675 149.955 30.78 149.955 30.96C149.955 31.14 149.985 31.305 150.045 31.455C150.225 32.055 150.435 32.475 150.675 32.715C150.945 32.925 151.32 32.955 151.8 32.805C152.34 32.655 152.865 32.325 153.375 31.815C153.915 31.305 154.38 30.795 154.77 30.285C155.67 29.055 156.375 27.75 156.885 26.37C157.425 24.99 157.725 23.58 157.785 22.14C157.845 20.82 157.68 19.965 157.29 19.575C156.9 19.185 156.405 19.065 155.805 19.215C155.235 19.335 154.605 19.65 153.915 20.16C153.255 20.64 152.655 21.105 152.115 21.555C152.295 21.105 152.535 20.67 152.835 20.25C153.165 19.83 153.525 19.47 153.915 19.17C154.335 18.84 154.785 18.6 155.265 18.45C155.775 18.27 156.285 18.21 156.795 18.27C157.095 18.3 157.365 18.45 157.605 18.72C157.845 18.99 158.04 19.335 158.19 19.755C158.34 20.145 158.43 20.61 158.46 21.15C158.52 21.69 158.52 22.245 158.46 22.815C158.31 23.955 158.085 25.095 157.785 26.235C157.515 27.375 157.155 28.425 156.705 29.385C156.645 29.535 156.54 29.745 156.39 30.015C156.27 30.285 156.24 30.45 156.3 30.51C156.36 30.57 156.495 30.48 156.705 30.24C156.945 29.97 157.125 29.775 157.245 29.655C157.785 28.935 158.265 28.125 158.685 27.225C159.105 26.295 159.42 25.35 159.63 24.39C159.87 23.43 160.005 22.47 160.035 21.51C160.065 20.52 159.975 19.59 159.765 18.72C159.585 17.97 159.21 17.46 158.64 17.19C158.1 16.92 157.5 16.83 156.84 16.92C156.18 17.01 155.52 17.22 154.86 17.55C154.2 17.88 153.66 18.24 153.24 18.63C153.42 18.18 153.66 17.79 153.96 17.46C154.29 17.1 154.65 16.8 155.04 16.56C155.46 16.29 155.895 16.11 156.345 16.02C156.825 15.9 157.305 15.87 157.785 15.93C158.625 16.02 159.255 16.35 159.675 16.92C160.125 17.49 160.425 18.15 160.575 18.9C160.755 19.62 160.83 20.385 160.8 21.195C160.8 21.975 160.77 22.635 160.71 23.175C160.56 24.435 160.275 25.68 159.855 26.91C159.435 28.14 158.91 29.28 158.28 30.33C157.77 31.17 157.095 31.995 156.255 32.805C155.445 33.615 154.56 34.26 153.6 34.74C152.64 35.22 151.65 35.475 150.63 35.505C149.61 35.505 148.65 35.13 147.75 34.38C147.15 33.87 146.715 33.195 146.445 32.355C146.205 31.485 146.04 30.66 145.95 29.88C145.8 28.53 145.815 27.18 145.995 25.83C146.205 24.45 146.505 23.175 146.895 22.005C147.495 20.175 148.17 18.33 148.92 16.47C149.7 14.61 150.36 12.78 150.9 10.98C151.47 9.18 151.83 7.44 151.98 5.76C152.13 4.08 151.89 2.49 151.26 0.989997C151.23 0.929998 151.2 0.869998 151.17 0.809997C151.17 0.749998 151.155 0.719998 151.125 0.719998C151.035 0.749998 150.99 0.779997 150.99 0.809997C151.02 0.839998 151.035 0.869999 151.035 0.899999C151.215 2.34 151.155 3.84 150.855 5.4C150.555 6.96 150.12 8.58 149.55 10.26C149.01 11.94 148.395 13.68 147.705 15.48C147.015 17.25 146.355 19.08 145.725 20.97C145.305 22.32 144.96 23.76 144.69 25.29C144.45 26.82 144.45 28.38 144.69 29.97C145.02 32.13 145.905 33.735 147.345 34.785C148.785 35.835 150.585 36.24 152.745 36C154.305 35.82 155.685 35.19 156.885 34.11C158.085 33.03 159.09 31.725 159.9 30.195C160.5 29.025 161.01 27.795 161.43 26.505C161.88 25.185 162.15 23.85 162.24 22.5C162.3 21.66 162.285 20.79 162.195 19.89C162.135 18.99 161.94 18.165 161.61 17.415C161.31 16.635 160.845 16.005 160.215 15.525C159.615 15.015 158.805 14.73 157.785 14.67C157.185 14.64 156.51 14.79 155.76 15.12C155.04 15.45 154.47 15.84 154.05 16.29C154.32 15.39 154.56 14.475 154.77 13.545C155.01 12.585 155.19 11.67 155.31 10.8C155.43 9.93 155.475 9.12 155.445 8.37C155.445 7.59 155.34 6.93 155.13 6.39C155.07 6.15 155.01 6.03 154.95 6.03C154.92 6.03 154.905 6.15 154.905 6.39C154.845 8.31 154.53 10.14 153.96 11.88C153.39 13.59 152.82 15.225 152.25 16.785C151.8 18.045 151.32 19.305 150.81 20.565C150.33 21.795 149.91 23.025 149.55 24.255C149.22 25.485 148.98 26.7 148.83 27.9C148.68 29.07 148.71 30.21 148.92 31.32C148.95 31.44 148.995 31.59 149.055 31.77C149.145 31.92 149.22 31.995 149.28 31.995C149.34 31.995 149.355 31.92 149.325 31.77C149.325 31.62 149.34 31.47 149.37 31.32C149.52 30.27 149.805 29.01 150.225 27.54C150.645 26.04 151.14 24.54 151.71 23.04C152.04 22.74 152.43 22.395 152.88 22.005C153.36 21.585 153.825 21.21 154.275 20.88C154.755 20.55 155.19 20.31 155.58 20.16C155.97 19.98 156.255 19.965 156.435 20.115C156.675 20.355 156.765 20.805 156.705 21.465C156.645 22.095 156.495 22.8 156.255 23.58C156.045 24.36 155.79 25.125 155.49 25.875C155.19 26.595 154.935 27.15 154.725 27.54ZM153.42 11.385C153.6 10.755 153.735 10.005 153.825 9.135C153.945 8.235 153.99 7.35 153.96 6.48C153.93 5.58 153.81 4.74 153.6 3.96C153.42 3.15 153.135 2.505 152.745 2.025C152.685 1.965 152.625 1.905 152.565 1.845C152.505 1.755 152.445 1.71 152.385 1.71C152.295 1.71 152.31 1.86 152.43 2.16C152.7 2.76 152.79 3.66 152.7 4.86C152.61 6.03 152.43 7.29 152.16 8.64C151.89 9.99 151.575 11.31 151.215 12.6C150.855 13.89 150.525 14.91 150.225 15.66C150.045 16.08 149.85 16.59 149.64 17.19C149.46 17.79 149.28 18.405 149.1 19.035C148.92 19.635 148.74 20.235 148.56 20.835C148.41 21.405 148.29 21.9 148.2 22.32C148.2 22.47 148.17 22.68 148.11 22.95C148.08 23.22 148.08 23.355 148.11 23.355C148.26 23.415 148.38 23.31 148.47 23.04C148.59 22.77 148.695 22.605 148.785 22.545C149.625 20.835 150.45 19.035 151.26 17.145C152.1 15.225 152.82 13.305 153.42 11.385ZM148.605 32.805C148.875 33.255 149.22 33.63 149.64 33.93C150.06 34.2 150.48 34.38 150.9 34.47C151.05 34.5 151.215 34.545 151.395 34.605C151.575 34.635 151.665 34.71 151.665 34.83C151.635 34.92 151.5 34.995 151.26 35.055C151.14 35.085 151.005 35.1 150.855 35.1C150.345 35.07 149.835 34.98 149.325 34.83C148.845 34.68 148.335 34.245 147.795 33.525C147.435 33.045 147.165 32.505 146.985 31.905C146.835 31.305 146.745 30.735 146.715 30.195C146.685 29.655 146.7 29.205 146.76 28.845C146.85 28.485 146.97 28.32 147.12 28.35C147.15 28.35 147.195 28.44 147.255 28.62C147.315 28.77 147.36 28.965 147.39 29.205C147.45 29.415 147.495 29.625 147.525 29.835C147.585 30.015 147.63 30.15 147.66 30.24C147.78 30.75 147.885 31.17 147.975 31.5C148.065 31.83 148.275 32.265 148.605 32.805Z" fill="#12542B"/>
</svg>
