<svg width="46" height="45" viewBox="0 0 46 45" fill="none" xmlns="http://www.w3.org/2000/svg">
<path d="M45.6146 22.5C45.6146 34.9264 35.4034 45 22.8073 45C10.2112 45 0 34.9264 0 22.5C0 10.0736 10.2112 0 22.8073 0C35.4034 0 45.6146 10.0736 45.6146 22.5Z" fill="#DFEBE9"/>
<path d="M33.25 15.6527H29.5V14.2066C29.5 14.093 29.4156 14 29.3125 14H28C27.8969 14 27.8125 14.093 27.8125 14.2066V15.6527H24.3438V14.2066C24.3438 14.093 24.2594 14 24.1562 14H22.8438C22.7406 14 22.6562 14.093 22.6562 14.2066V15.6527H19.1875V14.2066C19.1875 14.093 19.1031 14 19 14H17.6875C17.5844 14 17.5 14.093 17.5 14.2066V15.6527H13.75C13.3352 15.6527 13 16.022 13 16.4791V31.3536C13 31.8107 13.3352 32.18 13.75 32.18H33.25C33.6648 32.18 34 31.8107 34 31.3536V16.4791C34 16.022 33.6648 15.6527 33.25 15.6527ZM21.4375 27.635C21.4375 27.7486 21.3531 27.8416 21.25 27.8416H16.9375C16.8344 27.8416 16.75 27.7486 16.75 27.635V26.3954C16.75 26.2818 16.8344 26.1888 16.9375 26.1888H21.25C21.3531 26.1888 21.4375 26.2818 21.4375 26.3954V27.635ZM21.4375 24.1229C21.4375 24.2366 21.3531 24.3295 21.25 24.3295H16.9375C16.8344 24.3295 16.75 24.2366 16.75 24.1229V22.8834C16.75 22.7698 16.8344 22.6768 16.9375 22.6768H21.25C21.3531 22.6768 21.4375 22.7698 21.4375 22.8834V24.1229ZM30.2148 21.7652L26.3477 27.6711C26.3131 27.7239 26.2677 27.7669 26.2151 27.7966C26.1626 27.8262 26.1044 27.8417 26.0453 27.8417C25.9863 27.8417 25.928 27.8262 25.8755 27.7966C25.8229 27.7669 25.7775 27.7239 25.743 27.6711L23.0664 23.5858C22.9773 23.4489 23.0664 23.2578 23.2188 23.2578H24.5055C24.625 23.2578 24.7375 23.3224 24.8078 23.4283L26.0453 25.316L28.4758 21.6051C28.5461 21.4966 28.6586 21.4347 28.7781 21.4347H30.0625C30.2148 21.4373 30.3039 21.6283 30.2148 21.7652Z" fill="#252B42"/>
</svg>
