<svg width="46" height="45" viewBox="0 0 46 45" fill="none" xmlns="http://www.w3.org/2000/svg">
<path d="M45.6146 22.5C45.6146 34.9264 35.4034 45 22.8073 45C10.2112 45 0 34.9264 0 22.5C0 10.0736 10.2112 0 22.8073 0C35.4034 0 45.6146 10.0736 45.6146 22.5Z" fill="#DFEBE9"/>
<path d="M28.53 18.5611C28.46 18.5501 28.39 18.5501 28.32 18.5611C26.77 18.506 25.54 17.1067 25.54 15.3879C25.54 13.636 26.83 12.2036 28.43 12.2036C30.02 12.2036 31.32 13.625 31.32 15.3879C31.31 17.1067 30.08 18.506 28.53 18.5611Z" fill="#1E617A"/>
<path d="M31.7901 26.1967C30.6701 27.0231 29.1001 27.3316 27.6501 27.1223C28.0301 26.2188 28.2301 25.2161 28.2401 24.1584C28.2401 23.0566 28.0201 22.0098 27.6001 21.0953C29.0801 20.875 30.6501 21.1835 31.7801 22.0098C33.3601 23.1557 33.3601 25.0398 31.7901 26.1967Z" fill="#1E617A"/>
<path d="M17.4399 18.5611C17.5099 18.5501 17.5799 18.5501 17.6499 18.5611C19.1999 18.506 20.4299 17.1067 20.4299 15.3879C20.4299 13.625 19.1399 12.2036 17.5399 12.2036C15.9499 12.2036 14.6599 13.625 14.6599 15.3879C14.6599 17.1067 15.8899 18.506 17.4399 18.5611Z" fill="#1E617A"/>
<path d="M17.5501 24.1583C17.5501 25.2271 17.7601 26.2408 18.1401 27.1553C16.7301 27.3206 15.2601 26.99 14.1801 26.2077C12.6001 25.0508 12.6001 23.1667 14.1801 22.0098C15.2501 21.2165 16.7601 20.897 18.1801 21.0733C17.7701 21.9988 17.5501 23.0455 17.5501 24.1583Z" fill="#1E617A"/>
<path d="M23.12 27.4857C23.04 27.4747 22.95 27.4747 22.86 27.4857C21.02 27.4196 19.55 25.7559 19.55 23.7065C19.56 21.6131 21.09 19.9163 23 19.9163C24.9 19.9163 26.44 21.6131 26.44 23.7065C26.43 25.7559 24.97 27.4196 23.12 27.4857Z" fill="#1E617A"/>
<path d="M19.87 29.7665C18.36 30.8793 18.36 32.7083 19.87 33.8101C21.59 35.0772 24.41 35.0772 26.13 33.8101C27.64 32.6973 27.64 30.8683 26.13 29.7665C24.42 28.4994 21.6 28.4994 19.87 29.7665Z" fill="#1E617A"/>
</svg>
