<svg width="46" height="45" viewBox="0 0 46 45" fill="none" xmlns="http://www.w3.org/2000/svg">
<path d="M45.6146 22.5C45.6146 34.9264 35.4034 45 22.8073 45C10.2112 45 0 34.9264 0 22.5C0 10.0736 10.2112 0 22.8073 0C35.4034 0 45.6146 10.0736 45.6146 22.5Z" fill="#DFEBE9"/>
<path d="M19.625 23.125H24.125V24.25H19.625V23.125ZM19.625 20.3125H26.375V21.4375H19.625V20.3125ZM19.625 25.9375H22.4375V27.0625H19.625V25.9375Z" fill="#1E617A"/>
<path d="M28.0625 15.8125H26.375V15.25C26.375 14.9516 26.2565 14.6655 26.0455 14.4545C25.8345 14.2435 25.5484 14.125 25.25 14.125H20.75C20.4516 14.125 20.1655 14.2435 19.9545 14.4545C19.7435 14.6655 19.625 14.9516 19.625 15.25V15.8125H17.9375C17.6391 15.8125 17.353 15.931 17.142 16.142C16.931 16.353 16.8125 16.6391 16.8125 16.9375V28.75C16.8125 29.0484 16.931 29.3345 17.142 29.5455C17.353 29.7565 17.6391 29.875 17.9375 29.875H28.0625C28.3609 29.875 28.647 29.7565 28.858 29.5455C29.069 29.3345 29.1875 29.0484 29.1875 28.75V16.9375C29.1875 16.6391 29.069 16.353 28.858 16.142C28.647 15.931 28.3609 15.8125 28.0625 15.8125ZM20.75 15.25H25.25V17.5H20.75V15.25ZM28.0625 28.75H17.9375V16.9375H19.625V18.625H26.375V16.9375H28.0625V28.75Z" fill="#1E617A"/>
</svg>
