<svg width="46" height="45" viewBox="0 0 46 45" fill="none" xmlns="http://www.w3.org/2000/svg">
<ellipse cx="23.0747" cy="22.5" rx="22.7856" ry="22.5" fill="#DFEBE9"/>
<path d="M25.4039 24.1152H26.771V26.6574L28.9949 27.9285L28.3113 29.1004L25.4039 27.4417V24.1152ZM29.0496 19.6078H16.2896V29.5241H20.546C20.1541 28.7037 19.9353 27.7842 19.9353 26.8196C19.9353 25.146 20.6075 23.5409 21.804 22.3575C23.0005 21.1741 24.6233 20.5092 26.3153 20.5092C27.2906 20.5092 28.2202 20.7256 29.0496 21.1132V19.6078ZM16.2896 31.3271C15.8062 31.3271 15.3425 31.1371 15.0007 30.799C14.6588 30.4609 14.4668 30.0023 14.4668 29.5241V16.9033C14.4668 15.9027 15.278 15.1003 16.2896 15.1003H17.2011V13.2974H19.0239V15.1003H26.3153V13.2974H28.1382V15.1003H29.0496C29.5331 15.1003 29.9967 15.2903 30.3386 15.6284C30.6804 15.9665 30.8725 16.4251 30.8725 16.9033V22.4024C32.0026 23.5382 32.6953 25.0978 32.6953 26.8196C32.6953 28.4933 32.0231 30.0983 30.8267 31.2818C29.6302 32.4652 28.0074 33.13 26.3153 33.13C24.5745 33.13 22.9977 32.4449 21.8493 31.3271H16.2896ZM26.3153 22.4474C25.143 22.4474 24.0186 22.9081 23.1896 23.728C22.3606 24.548 21.8949 25.6601 21.8949 26.8196C21.8949 29.2356 23.8727 31.1918 26.3153 31.1918C26.8958 31.1918 27.4706 31.0788 28.0069 30.859C28.5433 30.6393 29.0306 30.3173 29.441 29.9113C29.8515 29.5053 30.1771 29.0233 30.3993 28.4928C30.6214 27.9624 30.7357 27.3938 30.7357 26.8196C30.7357 24.4037 28.7579 22.4474 26.3153 22.4474Z" fill="#1E617A"/>
</svg>
