<svg width="243" height="314" viewBox="0 0 243 314" fill="none" xmlns="http://www.w3.org/2000/svg">
<g clip-path="url(#clip0_556_7143)">
<rect width="243" height="314" rx="12" fill="white"/>
<rect width="243" height="314" rx="12" fill="white" fill-opacity="0.11"/>
<path d="M26.2461 36.7812H28.0723L32.7305 48.373L37.3789 36.7812H39.2148L33.4336 51H32.0078L26.2461 36.7812ZM25.6504 36.7812H27.2617L27.5254 45.4531V51H25.6504V36.7812ZM38.1895 36.7812H39.8008V51H37.9258V45.4531L38.1895 36.7812ZM42.3594 45.834V45.6094C42.3594 44.8477 42.4701 44.1413 42.6914 43.4902C42.9128 42.8327 43.2318 42.263 43.6484 41.7812C44.0651 41.293 44.5697 40.9154 45.1621 40.6484C45.7546 40.375 46.4186 40.2383 47.1543 40.2383C47.8965 40.2383 48.5638 40.375 49.1562 40.6484C49.7552 40.9154 50.263 41.293 50.6797 41.7812C51.1029 42.263 51.4251 42.8327 51.6465 43.4902C51.8678 44.1413 51.9785 44.8477 51.9785 45.6094V45.834C51.9785 46.5957 51.8678 47.3021 51.6465 47.9531C51.4251 48.6042 51.1029 49.1738 50.6797 49.6621C50.263 50.1439 49.7585 50.5215 49.166 50.7949C48.5801 51.0618 47.916 51.1953 47.1738 51.1953C46.4316 51.1953 45.7643 51.0618 45.1719 50.7949C44.5794 50.5215 44.0716 50.1439 43.6484 49.6621C43.2318 49.1738 42.9128 48.6042 42.6914 47.9531C42.4701 47.3021 42.3594 46.5957 42.3594 45.834ZM44.166 45.6094V45.834C44.166 46.3613 44.2279 46.8594 44.3516 47.3281C44.4753 47.7904 44.6608 48.2005 44.9082 48.5586C45.1621 48.9167 45.4779 49.1999 45.8555 49.4082C46.2331 49.61 46.6725 49.7109 47.1738 49.7109C47.6686 49.7109 48.1016 49.61 48.4727 49.4082C48.8503 49.1999 49.1628 48.9167 49.4102 48.5586C49.6576 48.2005 49.8431 47.7904 49.9668 47.3281C50.097 46.8594 50.1621 46.3613 50.1621 45.834V45.6094C50.1621 45.0885 50.097 44.597 49.9668 44.1348C49.8431 43.666 49.6543 43.2526 49.4004 42.8945C49.153 42.5299 48.8405 42.2435 48.4629 42.0352C48.0918 41.8268 47.6556 41.7227 47.1543 41.7227C46.6595 41.7227 46.2233 41.8268 45.8457 42.0352C45.4746 42.2435 45.1621 42.5299 44.9082 42.8945C44.6608 43.2526 44.4753 43.666 44.3516 44.1348C44.2279 44.597 44.166 45.0885 44.166 45.6094ZM56.0508 42.6895V51H54.2441V40.4336H55.9531L56.0508 42.6895ZM55.6211 45.3164L54.8691 45.2871C54.8757 44.5645 54.9831 43.8971 55.1914 43.2852C55.3997 42.6667 55.6927 42.1296 56.0703 41.6738C56.4479 41.2181 56.8971 40.8665 57.418 40.6191C57.9453 40.3652 58.528 40.2383 59.166 40.2383C59.6868 40.2383 60.1556 40.3099 60.5723 40.4531C60.9889 40.5898 61.3438 40.8112 61.6367 41.1172C61.9362 41.4232 62.1641 41.8203 62.3203 42.3086C62.4766 42.7904 62.5547 43.3796 62.5547 44.0762V51H60.7383V44.0566C60.7383 43.5033 60.6569 43.0605 60.4941 42.7285C60.3314 42.39 60.0938 42.1458 59.7812 41.9961C59.4688 41.8398 59.0846 41.7617 58.6289 41.7617C58.1797 41.7617 57.7695 41.8561 57.3984 42.0449C57.0339 42.2337 56.7181 42.4941 56.4512 42.8262C56.1908 43.1582 55.9857 43.5391 55.8359 43.9688C55.6927 44.3919 55.6211 44.8411 55.6211 45.3164ZM66.9395 48.8516V50.3066C66.9395 50.8991 66.7897 51.5241 66.4902 52.1816C66.1908 52.8457 65.7708 53.3991 65.2305 53.8418L64.2051 53.1289C64.4134 52.8424 64.5892 52.5495 64.7324 52.25C64.8757 51.957 64.9831 51.651 65.0547 51.332C65.1328 51.0195 65.1719 50.6875 65.1719 50.3359V48.8516H66.9395ZM79.7422 38.041L75.0352 51H73.1113L78.5312 36.7812H79.7715L79.7422 38.041ZM83.6875 51L78.9707 38.041L78.9414 36.7812H80.1816L85.6211 51H83.6875ZM83.4434 45.7363V47.2793H75.4551V45.7363H83.4434ZM93.5996 48.5586V40.4336H95.416V51H93.6875L93.5996 48.5586ZM93.9414 46.332L94.6934 46.3125C94.6934 47.0156 94.6185 47.6667 94.4688 48.2656C94.3255 48.8581 94.0911 49.3724 93.7656 49.8086C93.4401 50.2448 93.0137 50.5866 92.4863 50.834C91.959 51.0749 91.3177 51.1953 90.5625 51.1953C90.0482 51.1953 89.5762 51.1204 89.1465 50.9707C88.7233 50.821 88.3587 50.5898 88.0527 50.2773C87.7467 49.9648 87.5091 49.5579 87.3398 49.0566C87.1771 48.5553 87.0957 47.9531 87.0957 47.25V40.4336H88.9023V47.2695C88.9023 47.7448 88.9544 48.1387 89.0586 48.4512C89.1693 48.7572 89.3158 49.0013 89.498 49.1836C89.6868 49.3594 89.8952 49.4831 90.123 49.5547C90.3574 49.6263 90.5983 49.6621 90.8457 49.6621C91.6139 49.6621 92.2227 49.5156 92.6719 49.2227C93.1211 48.9232 93.4434 48.5228 93.6387 48.0215C93.8405 47.5137 93.9414 46.9505 93.9414 46.332ZM105.016 40.4336H106.656V50.7754C106.656 51.7064 106.467 52.5007 106.09 53.1582C105.712 53.8158 105.185 54.3138 104.508 54.6523C103.837 54.9974 103.062 55.1699 102.184 55.1699C101.819 55.1699 101.389 55.1113 100.895 54.9941C100.406 54.8835 99.9245 54.6914 99.4492 54.418C98.9805 54.151 98.5866 53.7897 98.2676 53.334L99.2148 52.2598C99.6576 52.7936 100.12 53.1647 100.602 53.373C101.09 53.5814 101.572 53.6855 102.047 53.6855C102.62 53.6855 103.115 53.5781 103.531 53.3633C103.948 53.1484 104.27 52.8294 104.498 52.4062C104.732 51.9896 104.85 51.4753 104.85 50.8633V42.7578L105.016 40.4336ZM97.7402 45.834V45.6289C97.7402 44.8216 97.8346 44.0892 98.0234 43.4316C98.2188 42.7676 98.4954 42.1979 98.8535 41.7227C99.2181 41.2474 99.6576 40.8828 100.172 40.6289C100.686 40.3685 101.266 40.2383 101.91 40.2383C102.574 40.2383 103.154 40.3555 103.648 40.5898C104.15 40.8177 104.573 41.153 104.918 41.5957C105.27 42.0319 105.546 42.5592 105.748 43.1777C105.95 43.7962 106.09 44.4961 106.168 45.2773V46.1758C106.096 46.9505 105.956 47.6471 105.748 48.2656C105.546 48.8841 105.27 49.4115 104.918 49.8477C104.573 50.2839 104.15 50.6191 103.648 50.8535C103.147 51.0814 102.561 51.1953 101.891 51.1953C101.259 51.1953 100.686 51.0618 100.172 50.7949C99.6641 50.528 99.2279 50.1536 98.8633 49.6719C98.4987 49.1901 98.2188 48.6237 98.0234 47.9727C97.8346 47.3151 97.7402 46.6022 97.7402 45.834ZM99.5469 45.6289V45.834C99.5469 46.3613 99.599 46.8561 99.7031 47.3184C99.8138 47.7806 99.9798 48.1875 100.201 48.5391C100.429 48.8906 100.719 49.1673 101.07 49.3691C101.422 49.5645 101.842 49.6621 102.33 49.6621C102.929 49.6621 103.424 49.5352 103.814 49.2812C104.205 49.0273 104.514 48.6921 104.742 48.2754C104.977 47.8587 105.159 47.4062 105.289 46.918V44.5645C105.217 44.2064 105.107 43.8613 104.957 43.5293C104.814 43.1908 104.625 42.8913 104.391 42.6309C104.163 42.3639 103.88 42.1523 103.541 41.9961C103.202 41.8398 102.805 41.7617 102.35 41.7617C101.855 41.7617 101.428 41.8659 101.07 42.0742C100.719 42.276 100.429 42.556 100.201 42.9141C99.9798 43.2656 99.8138 43.6758 99.7031 44.1445C99.599 44.6068 99.5469 45.1016 99.5469 45.6289ZM120.104 36.7031V51H118.297V38.959L114.654 40.2871V38.6562L119.82 36.7031H120.104ZM134.605 36.7812V37.7969L128.717 51H126.812L132.691 38.2656H124.996V36.7812H134.605Z" fill="#1C1B1F"/>
<g clip-path="url(#clip1_556_7143)">
<path fill-rule="evenodd" clip-rule="evenodd" d="M214.06 31.5899L215.41 32.9399C216.2 33.7199 216.2 34.9899 215.41 35.7699L202.18 48.9999H198V44.8199L208.4 34.4099L211.23 31.5899C212.01 30.8099 213.28 30.8099 214.06 31.5899ZM200 46.9999L201.41 47.0599L211.23 37.2299L209.82 35.8199L200 45.6399V46.9999Z" fill="#49454F"/>
</g>
<path d="M243 75H0V77H243V75Z" fill="#CAC4D0" mask="url(#path-2-inside-1_556_7143)"/>
<path d="M28.9316 100.373L25.958 109H24.1602L27.9062 99.0469H29.0547L28.9316 100.373ZM31.4199 109L28.4395 100.373L28.3096 99.0469H29.4648L33.2246 109H31.4199ZM31.2764 105.309V106.669H25.8623V105.309H31.2764ZM38.643 107.257V101.604H40.2973V109H38.7387L38.643 107.257ZM38.8754 105.719L39.4291 105.705C39.4291 106.202 39.3744 106.66 39.265 107.079C39.1557 107.494 38.987 107.856 38.7592 108.166C38.5313 108.471 38.2396 108.711 37.8842 108.884C37.5287 109.052 37.1026 109.137 36.6059 109.137C36.2458 109.137 35.9154 109.084 35.6146 108.979C35.3139 108.875 35.0541 108.713 34.8354 108.494C34.6212 108.275 34.4548 107.991 34.3363 107.64C34.2178 107.289 34.1586 106.869 34.1586 106.382V101.604H35.8061V106.396C35.8061 106.664 35.838 106.89 35.9018 107.072C35.9656 107.25 36.0521 107.394 36.1615 107.503C36.2709 107.612 36.3985 107.69 36.5443 107.735C36.6902 107.781 36.8451 107.804 37.0092 107.804C37.4786 107.804 37.8477 107.713 38.1166 107.53C38.39 107.343 38.5837 107.093 38.6977 106.778C38.8161 106.464 38.8754 106.111 38.8754 105.719ZM46.823 101.604H48.3201V108.795C48.3201 109.46 48.1788 110.025 47.8963 110.49C47.6137 110.955 47.2195 111.308 46.7137 111.55C46.2078 111.796 45.6222 111.919 44.9568 111.919C44.6743 111.919 44.3598 111.878 44.0135 111.796C43.6717 111.714 43.339 111.582 43.0154 111.399C42.6964 111.222 42.4298 110.987 42.2156 110.695L42.9881 109.725C43.2524 110.039 43.5441 110.269 43.8631 110.415C44.1821 110.561 44.5171 110.634 44.868 110.634C45.2462 110.634 45.5675 110.563 45.8318 110.422C46.1007 110.285 46.3081 110.082 46.4539 109.813C46.5997 109.545 46.6727 109.216 46.6727 108.829V103.278L46.823 101.604ZM41.7986 105.384V105.24C41.7986 104.68 41.867 104.169 42.0037 103.709C42.1404 103.244 42.3364 102.845 42.5916 102.513C42.8468 102.175 43.1567 101.918 43.5213 101.74C43.8859 101.558 44.2983 101.467 44.7586 101.467C45.2371 101.467 45.645 101.553 45.9822 101.727C46.324 101.9 46.6089 102.148 46.8367 102.472C47.0646 102.791 47.2423 103.174 47.3699 103.62C47.5021 104.062 47.6001 104.554 47.6639 105.097V105.555C47.6046 106.083 47.5044 106.566 47.3631 107.004C47.2218 107.441 47.035 107.82 46.8025 108.139C46.5701 108.458 46.283 108.704 45.9412 108.877C45.604 109.05 45.2052 109.137 44.7449 109.137C44.2938 109.137 43.8859 109.043 43.5213 108.856C43.1613 108.67 42.8514 108.408 42.5916 108.07C42.3364 107.733 42.1404 107.337 42.0037 106.881C41.867 106.421 41.7986 105.922 41.7986 105.384ZM43.4461 105.24V105.384C43.4461 105.721 43.478 106.035 43.5418 106.327C43.6102 106.619 43.7127 106.876 43.8494 107.1C43.9907 107.318 44.1684 107.492 44.3826 107.619C44.6014 107.742 44.8589 107.804 45.1551 107.804C45.5424 107.804 45.8592 107.722 46.1053 107.558C46.3559 107.394 46.5473 107.173 46.6795 106.895C46.8162 106.612 46.9119 106.298 46.9666 105.951V104.714C46.9393 104.445 46.8823 104.194 46.7957 103.962C46.7137 103.729 46.602 103.527 46.4607 103.354C46.3195 103.176 46.1417 103.039 45.9275 102.943C45.7133 102.843 45.4604 102.793 45.1688 102.793C44.8725 102.793 44.615 102.857 44.3963 102.984C44.1775 103.112 43.9975 103.287 43.8563 103.511C43.7195 103.734 43.617 103.994 43.5486 104.29C43.4803 104.586 43.4461 104.903 43.4461 105.24ZM54.5793 107.257V101.604H56.2336V109H54.675L54.5793 107.257ZM54.8117 105.719L55.3654 105.705C55.3654 106.202 55.3107 106.66 55.2014 107.079C55.092 107.494 54.9234 107.856 54.6955 108.166C54.4676 108.471 54.176 108.711 53.8205 108.884C53.465 109.052 53.0389 109.137 52.5422 109.137C52.1822 109.137 51.8518 109.084 51.551 108.979C51.2502 108.875 50.9904 108.713 50.7717 108.494C50.5575 108.275 50.3911 107.991 50.2727 107.64C50.1542 107.289 50.0949 106.869 50.0949 106.382V101.604H51.7424V106.396C51.7424 106.664 51.7743 106.89 51.8381 107.072C51.9019 107.25 51.9885 107.394 52.0979 107.503C52.2072 107.612 52.3348 107.69 52.4807 107.735C52.6265 107.781 52.7814 107.804 52.9455 107.804C53.4149 107.804 53.784 107.713 54.0529 107.53C54.3264 107.343 54.5201 107.093 54.634 106.778C54.7525 106.464 54.8117 106.111 54.8117 105.719ZM62.1715 106.997C62.1715 106.833 62.1305 106.685 62.0484 106.553C61.9664 106.416 61.8092 106.293 61.5768 106.184C61.3489 106.074 61.0117 105.974 60.565 105.883C60.1731 105.796 59.8131 105.694 59.485 105.575C59.1614 105.452 58.8834 105.304 58.651 105.131C58.4186 104.958 58.2385 104.753 58.1109 104.516C57.9833 104.279 57.9195 104.005 57.9195 103.695C57.9195 103.395 57.9856 103.11 58.1178 102.841C58.2499 102.572 58.4391 102.335 58.6852 102.13C58.9313 101.925 59.2298 101.763 59.5807 101.645C59.9361 101.526 60.3326 101.467 60.7701 101.467C61.3899 101.467 61.9208 101.572 62.3629 101.781C62.8095 101.986 63.1513 102.267 63.3883 102.622C63.6253 102.973 63.7438 103.369 63.7438 103.812H62.0963C62.0963 103.616 62.0462 103.433 61.9459 103.265C61.8502 103.091 61.7044 102.952 61.5084 102.848C61.3124 102.738 61.0663 102.684 60.7701 102.684C60.4876 102.684 60.2529 102.729 60.066 102.82C59.8837 102.907 59.747 103.021 59.6559 103.162C59.5693 103.303 59.526 103.458 59.526 103.627C59.526 103.75 59.5488 103.862 59.5943 103.962C59.6445 104.058 59.7265 104.146 59.8404 104.229C59.9544 104.306 60.1093 104.379 60.3053 104.447C60.5058 104.516 60.7564 104.582 61.0572 104.646C61.6223 104.764 62.1077 104.917 62.5133 105.104C62.9234 105.286 63.2379 105.523 63.4566 105.814C63.6754 106.102 63.7848 106.466 63.7848 106.908C63.7848 107.236 63.7141 107.537 63.5729 107.811C63.4361 108.079 63.2356 108.314 62.9713 108.515C62.707 108.711 62.3902 108.863 62.0211 108.973C61.6565 109.082 61.2464 109.137 60.7906 109.137C60.1207 109.137 59.5533 109.018 59.0885 108.781C58.6236 108.54 58.2704 108.232 58.0289 107.858C57.7919 107.48 57.6734 107.088 57.6734 106.683H59.2662C59.2844 106.988 59.3688 107.232 59.5191 107.414C59.6741 107.592 59.8655 107.722 60.0934 107.804C60.3258 107.881 60.565 107.92 60.8111 107.92C61.1074 107.92 61.3557 107.881 61.5563 107.804C61.7568 107.722 61.9094 107.612 62.0143 107.476C62.1191 107.334 62.1715 107.175 62.1715 106.997ZM68.7178 101.604V102.807H64.5479V101.604H68.7178ZM65.751 99.792H67.3984V106.956C67.3984 107.184 67.4303 107.359 67.4941 107.482C67.5625 107.601 67.6559 107.681 67.7744 107.722C67.8929 107.763 68.0319 107.783 68.1914 107.783C68.3053 107.783 68.4147 107.776 68.5195 107.763C68.6243 107.749 68.7087 107.735 68.7725 107.722L68.7793 108.979C68.6426 109.021 68.4831 109.057 68.3008 109.089C68.123 109.121 67.918 109.137 67.6855 109.137C67.3073 109.137 66.9723 109.071 66.6807 108.938C66.389 108.802 66.1611 108.581 65.9971 108.275C65.833 107.97 65.751 107.564 65.751 107.059V99.792ZM80.2518 107.688V109H73.5799V107.872L76.8201 104.338C77.1756 103.937 77.4559 103.59 77.6609 103.299C77.866 103.007 78.0096 102.745 78.0916 102.513C78.1782 102.276 78.2215 102.046 78.2215 101.822C78.2215 101.508 78.1622 101.232 78.0438 100.995C77.9298 100.754 77.7612 100.564 77.5379 100.428C77.3146 100.286 77.0434 100.216 76.7244 100.216C76.3553 100.216 76.0454 100.296 75.7947 100.455C75.5441 100.615 75.3549 100.836 75.2273 101.118C75.0997 101.396 75.0359 101.715 75.0359 102.075H73.3885C73.3885 101.496 73.5206 100.968 73.785 100.489C74.0493 100.006 74.4321 99.6234 74.9334 99.3408C75.4347 99.0537 76.0385 98.9102 76.7449 98.9102C77.4103 98.9102 77.9754 99.0218 78.4402 99.2451C78.9051 99.4684 79.2583 99.7852 79.4998 100.195C79.7459 100.605 79.8689 101.091 79.8689 101.651C79.8689 101.961 79.8188 102.269 79.7186 102.574C79.6183 102.88 79.4747 103.185 79.2879 103.49C79.1056 103.791 78.8891 104.094 78.6385 104.399C78.3878 104.7 78.1121 105.006 77.8113 105.315L75.658 107.688H80.2518ZM88.1242 103.189V104.816C88.1242 105.596 88.0467 106.261 87.8918 106.812C87.7414 107.359 87.5227 107.804 87.2355 108.146C86.9484 108.487 86.6044 108.738 86.2033 108.897C85.8068 109.057 85.3625 109.137 84.8703 109.137C84.4784 109.137 84.1138 109.087 83.7766 108.986C83.4439 108.886 83.1431 108.729 82.8742 108.515C82.6053 108.3 82.3752 108.025 82.1838 107.688C81.9969 107.346 81.8511 106.938 81.7463 106.464C81.646 105.99 81.5959 105.441 81.5959 104.816V103.189C81.5959 102.406 81.6734 101.745 81.8283 101.207C81.9833 100.665 82.2043 100.225 82.4914 99.8877C82.7785 99.5459 83.1203 99.2975 83.5168 99.1426C83.9178 98.9876 84.3645 98.9102 84.8566 98.9102C85.2531 98.9102 85.6177 98.9603 85.9504 99.0605C86.2876 99.1562 86.5884 99.3089 86.8527 99.5186C87.1216 99.7282 87.3495 100.002 87.5363 100.339C87.7277 100.672 87.8736 101.075 87.9738 101.549C88.0741 102.018 88.1242 102.565 88.1242 103.189ZM86.4768 105.049V102.943C86.4768 102.547 86.454 102.198 86.4084 101.897C86.3628 101.592 86.2945 101.335 86.2033 101.125C86.1167 100.911 86.0074 100.738 85.8752 100.605C85.743 100.469 85.5926 100.371 85.424 100.312C85.2554 100.248 85.0663 100.216 84.8566 100.216C84.6014 100.216 84.3736 100.266 84.173 100.366C83.9725 100.462 83.8039 100.617 83.6672 100.831C83.5305 101.045 83.4257 101.328 83.3527 101.679C83.2844 102.025 83.2502 102.447 83.2502 102.943V105.049C83.2502 105.45 83.273 105.803 83.3186 106.108C83.3641 106.414 83.4325 106.676 83.5236 106.895C83.6148 107.109 83.7242 107.286 83.8518 107.428C83.9839 107.564 84.1343 107.665 84.3029 107.729C84.4761 107.792 84.6652 107.824 84.8703 107.824C85.1301 107.824 85.3602 107.774 85.5607 107.674C85.7613 107.574 85.9299 107.414 86.0666 107.195C86.2033 106.972 86.3059 106.683 86.3742 106.327C86.4426 105.972 86.4768 105.546 86.4768 105.049ZM96.3658 107.688V109H89.6939V107.872L92.9342 104.338C93.2896 103.937 93.5699 103.59 93.775 103.299C93.9801 103.007 94.1236 102.745 94.2057 102.513C94.2923 102.276 94.3355 102.046 94.3355 101.822C94.3355 101.508 94.2763 101.232 94.1578 100.995C94.0439 100.754 93.8753 100.564 93.652 100.428C93.4286 100.286 93.1575 100.216 92.8385 100.216C92.4693 100.216 92.1594 100.296 91.9088 100.455C91.6581 100.615 91.469 100.836 91.3414 101.118C91.2138 101.396 91.15 101.715 91.15 102.075H89.5025C89.5025 101.496 89.6347 100.968 89.899 100.489C90.1633 100.006 90.5462 99.6234 91.0475 99.3408C91.5488 99.0537 92.1526 98.9102 92.859 98.9102C93.5244 98.9102 94.0895 99.0218 94.5543 99.2451C95.0191 99.4684 95.3723 99.7852 95.6139 100.195C95.86 100.605 95.983 101.091 95.983 101.651C95.983 101.961 95.9329 102.269 95.8326 102.574C95.7324 102.88 95.5888 103.185 95.402 103.49C95.2197 103.791 95.0032 104.094 94.7525 104.399C94.5019 104.7 94.2262 105.006 93.9254 105.315L91.7721 107.688H96.3658ZM99.6855 103.278H100.67C101.053 103.278 101.369 103.212 101.62 103.08C101.875 102.948 102.064 102.766 102.188 102.533C102.311 102.301 102.372 102.034 102.372 101.733C102.372 101.419 102.315 101.15 102.201 100.927C102.092 100.699 101.923 100.523 101.695 100.4C101.472 100.277 101.187 100.216 100.841 100.216C100.549 100.216 100.285 100.275 100.048 100.394C99.8154 100.507 99.6309 100.672 99.4941 100.886C99.3574 101.095 99.2891 101.346 99.2891 101.638H97.6348C97.6348 101.109 97.7738 100.64 98.0518 100.229C98.3298 99.8193 98.708 99.498 99.1865 99.2656C99.6696 99.0286 100.212 98.9102 100.813 98.9102C101.456 98.9102 102.017 99.0173 102.495 99.2314C102.978 99.4411 103.354 99.7555 103.623 100.175C103.892 100.594 104.026 101.114 104.026 101.733C104.026 102.016 103.96 102.303 103.828 102.595C103.696 102.886 103.5 103.153 103.24 103.395C102.98 103.632 102.657 103.825 102.27 103.976C101.882 104.121 101.433 104.194 100.923 104.194H99.6855V103.278ZM99.6855 104.563V103.661H100.923C101.506 103.661 102.003 103.729 102.413 103.866C102.828 104.003 103.165 104.192 103.425 104.434C103.685 104.671 103.874 104.942 103.992 105.247C104.115 105.552 104.177 105.876 104.177 106.218C104.177 106.683 104.092 107.097 103.924 107.462C103.76 107.822 103.525 108.127 103.22 108.378C102.914 108.629 102.557 108.818 102.146 108.945C101.741 109.073 101.299 109.137 100.82 109.137C100.392 109.137 99.9818 109.077 99.5898 108.959C99.1979 108.84 98.847 108.665 98.5371 108.433C98.2272 108.196 97.9811 107.902 97.7988 107.551C97.6211 107.195 97.5322 106.785 97.5322 106.32H99.1797C99.1797 106.617 99.248 106.879 99.3848 107.106C99.526 107.33 99.722 107.505 99.9727 107.633C100.228 107.76 100.52 107.824 100.848 107.824C101.194 107.824 101.493 107.763 101.743 107.64C101.994 107.517 102.185 107.334 102.317 107.093C102.454 106.851 102.522 106.56 102.522 106.218C102.522 105.83 102.447 105.516 102.297 105.274C102.146 105.033 101.932 104.855 101.654 104.741C101.376 104.623 101.048 104.563 100.67 104.563H99.6855Z" fill="#49454F"/>
<path d="M118.25 102.5L122 106.25L125.75 102.5H118.25Z" fill="#49454F"/>
<g clip-path="url(#clip2_556_7143)">
<path d="M162.705 99.41L161.295 98L155.295 104L161.295 110L162.705 108.59L158.125 104L162.705 99.41Z" fill="#49454F"/>
</g>
<g clip-path="url(#clip3_556_7143)">
<path d="M204.705 98L203.295 99.41L207.875 104L203.295 108.59L204.705 110L210.705 104L204.705 98Z" fill="#49454F"/>
</g>
<path d="M27.9031 149.01C27.9031 148.811 27.8718 148.635 27.8093 148.483C27.7507 148.327 27.6453 148.186 27.4929 148.061C27.3445 147.936 27.1375 147.817 26.8718 147.704C26.6101 147.59 26.2781 147.475 25.8757 147.358C25.4539 147.233 25.073 147.094 24.7332 146.942C24.3933 146.786 24.1023 146.608 23.8601 146.409C23.6179 146.209 23.4324 145.981 23.3035 145.723C23.1746 145.465 23.1101 145.17 23.1101 144.838C23.1101 144.506 23.1785 144.2 23.3152 143.918C23.4519 143.637 23.6472 143.393 23.9011 143.186C24.1589 142.975 24.4656 142.811 24.821 142.694C25.1765 142.577 25.573 142.518 26.0105 142.518C26.6511 142.518 27.1941 142.641 27.6394 142.887C28.0886 143.129 28.4304 143.448 28.6648 143.842C28.8992 144.233 29.0164 144.651 29.0164 145.096H27.8914C27.8914 144.776 27.823 144.493 27.6863 144.247C27.5496 143.997 27.3425 143.801 27.0652 143.661C26.7878 143.516 26.4363 143.444 26.0105 143.444C25.6082 143.444 25.2761 143.504 25.0144 143.625C24.7527 143.747 24.5574 143.911 24.4285 144.118C24.3035 144.325 24.241 144.561 24.241 144.827C24.241 145.006 24.2781 145.17 24.3523 145.319C24.4304 145.463 24.5496 145.598 24.7097 145.723C24.8738 145.848 25.0808 145.963 25.3308 146.069C25.5847 146.174 25.8875 146.276 26.239 146.374C26.7234 146.51 27.1414 146.663 27.4929 146.831C27.8445 146.999 28.1335 147.188 28.3601 147.399C28.5906 147.606 28.7605 147.842 28.8699 148.108C28.9832 148.37 29.0398 148.667 29.0398 148.999C29.0398 149.346 28.9695 149.661 28.8289 149.942C28.6882 150.223 28.4871 150.463 28.2253 150.663C27.9636 150.862 27.6492 151.016 27.282 151.125C26.9187 151.231 26.5125 151.284 26.0632 151.284C25.6687 151.284 25.28 151.229 24.8972 151.12C24.5183 151.01 24.1726 150.846 23.8601 150.627C23.5515 150.409 23.3035 150.139 23.116 149.819C22.9324 149.495 22.8406 149.12 22.8406 148.694H23.9656C23.9656 148.987 24.0222 149.239 24.1355 149.45C24.2488 149.657 24.4031 149.829 24.5984 149.965C24.7976 150.102 25.0222 150.204 25.2722 150.27C25.5261 150.333 25.7898 150.364 26.0632 150.364C26.4578 150.364 26.7917 150.309 27.0652 150.2C27.3386 150.09 27.5457 149.934 27.6863 149.731C27.8308 149.528 27.9031 149.288 27.9031 149.01Z" fill="#1C1B1F"/>
<path d="M53.895 142.635H54.9907L57.7856 149.59L60.5747 142.635H61.6763L58.2075 151.167H57.3521L53.895 142.635ZM53.5376 142.635H54.5044L54.6626 147.838V151.167H53.5376V142.635ZM61.061 142.635H62.0278V151.167H60.9028V147.838L61.061 142.635Z" fill="#1C1B1F"/>
<path d="M90.2053 142.635V151.167H89.092V142.635H90.2053ZM92.9475 142.635V143.561H86.3557V142.635H92.9475Z" fill="#1C1B1F"/>
<path d="M119.408 148.588L121.102 142.635H121.922L121.447 144.95L119.625 151.167H118.811L119.408 148.588ZM117.656 142.635L119.004 148.471L119.408 151.167H118.6L116.531 142.635H117.656ZM124.113 148.465L125.432 142.635H126.562L124.5 151.167H123.691L124.113 148.465ZM122.045 142.635L123.691 148.588L124.289 151.167H123.475L121.717 144.95L121.236 142.635H122.045Z" fill="#1C1B1F"/>
<path d="M153.919 142.635V151.167H152.806V142.635H153.919ZM156.662 142.635V143.561H150.07V142.635H156.662Z" fill="#1C1B1F"/>
<path d="M184.019 142.635V151.167H182.888V142.635H184.019ZM187.593 146.473V147.399H183.773V146.473H187.593ZM188.173 142.635V143.561H183.773V142.635H188.173Z" fill="#1C1B1F"/>
<path d="M219.046 149.01C219.046 148.811 219.015 148.635 218.952 148.483C218.894 148.327 218.788 148.186 218.636 148.061C218.487 147.936 218.28 147.817 218.015 147.704C217.753 147.59 217.421 147.475 217.019 147.358C216.597 147.233 216.216 147.094 215.876 146.942C215.536 146.786 215.245 146.608 215.003 146.409C214.761 146.209 214.575 145.981 214.446 145.723C214.317 145.465 214.253 145.17 214.253 144.838C214.253 144.506 214.321 144.2 214.458 143.918C214.595 143.637 214.79 143.393 215.044 143.186C215.302 142.975 215.608 142.811 215.964 142.694C216.319 142.577 216.716 142.518 217.153 142.518C217.794 142.518 218.337 142.641 218.782 142.887C219.231 143.129 219.573 143.448 219.808 143.842C220.042 144.233 220.159 144.651 220.159 145.096H219.034C219.034 144.776 218.966 144.493 218.829 144.247C218.692 143.997 218.485 143.801 218.208 143.661C217.931 143.516 217.579 143.444 217.153 143.444C216.751 143.444 216.419 143.504 216.157 143.625C215.896 143.747 215.7 143.911 215.571 144.118C215.446 144.325 215.384 144.561 215.384 144.827C215.384 145.006 215.421 145.17 215.495 145.319C215.573 145.463 215.692 145.598 215.853 145.723C216.017 145.848 216.224 145.963 216.474 146.069C216.728 146.174 217.03 146.276 217.382 146.374C217.866 146.51 218.284 146.663 218.636 146.831C218.987 146.999 219.276 147.188 219.503 147.399C219.733 147.606 219.903 147.842 220.013 148.108C220.126 148.37 220.183 148.667 220.183 148.999C220.183 149.346 220.112 149.661 219.972 149.942C219.831 150.223 219.63 150.463 219.368 150.663C219.106 150.862 218.792 151.016 218.425 151.125C218.062 151.231 217.655 151.284 217.206 151.284C216.812 151.284 216.423 151.229 216.04 151.12C215.661 151.01 215.315 150.846 215.003 150.627C214.694 150.409 214.446 150.139 214.259 149.819C214.075 149.495 213.983 149.12 213.983 148.694H215.108C215.108 148.987 215.165 149.239 215.278 149.45C215.392 149.657 215.546 149.829 215.741 149.965C215.94 150.102 216.165 150.204 216.415 150.27C216.669 150.333 216.933 150.364 217.206 150.364C217.601 150.364 217.935 150.309 218.208 150.2C218.481 150.09 218.688 149.934 218.829 149.731C218.974 149.528 219.046 149.288 219.046 149.01Z" fill="#1C1B1F"/>
<g clip-path="url(#clip4_556_7143)">
<path d="M90.5393 172.922V181.5H89.4553V174.275L87.2698 175.072V174.094L90.3694 172.922H90.5393Z" fill="#1C1B1F"/>
</g>
<g clip-path="url(#clip5_556_7143)">
<path d="M124.424 180.609V181.5H118.84V180.721L121.635 177.609C121.979 177.227 122.244 176.902 122.432 176.637C122.623 176.367 122.756 176.127 122.83 175.916C122.908 175.701 122.947 175.482 122.947 175.26C122.947 174.979 122.889 174.725 122.771 174.498C122.658 174.268 122.49 174.084 122.268 173.947C122.045 173.811 121.775 173.742 121.459 173.742C121.08 173.742 120.764 173.816 120.51 173.965C120.26 174.109 120.072 174.312 119.947 174.574C119.822 174.836 119.76 175.137 119.76 175.477H118.676C118.676 174.996 118.781 174.557 118.992 174.158C119.203 173.76 119.516 173.443 119.93 173.209C120.344 172.971 120.854 172.852 121.459 172.852C121.998 172.852 122.459 172.947 122.842 173.139C123.225 173.326 123.518 173.592 123.721 173.936C123.928 174.275 124.031 174.674 124.031 175.131C124.031 175.381 123.988 175.635 123.902 175.893C123.82 176.146 123.705 176.4 123.557 176.654C123.412 176.908 123.242 177.158 123.047 177.404C122.855 177.65 122.65 177.893 122.432 178.131L120.146 180.609H124.424Z" fill="#1C1B1F"/>
</g>
<g clip-path="url(#clip6_556_7143)">
<path d="M152.273 176.701H153.046C153.425 176.701 153.738 176.639 153.984 176.514C154.234 176.385 154.419 176.211 154.541 175.992C154.666 175.77 154.728 175.52 154.728 175.242C154.728 174.914 154.673 174.639 154.564 174.416C154.455 174.193 154.291 174.025 154.072 173.912C153.853 173.799 153.576 173.742 153.24 173.742C152.935 173.742 152.666 173.803 152.431 173.924C152.201 174.041 152.019 174.209 151.886 174.428C151.757 174.646 151.693 174.904 151.693 175.201H150.609C150.609 174.768 150.718 174.373 150.937 174.018C151.156 173.662 151.462 173.379 151.857 173.168C152.255 172.957 152.716 172.852 153.24 172.852C153.755 172.852 154.207 172.943 154.593 173.127C154.98 173.307 155.281 173.576 155.496 173.936C155.71 174.291 155.818 174.734 155.818 175.266C155.818 175.48 155.767 175.711 155.666 175.957C155.568 176.199 155.414 176.426 155.203 176.637C154.996 176.848 154.726 177.021 154.394 177.158C154.062 177.291 153.664 177.357 153.199 177.357H152.273V176.701ZM152.273 177.592V176.941H153.199C153.742 176.941 154.191 177.006 154.546 177.135C154.902 177.264 155.181 177.436 155.384 177.65C155.591 177.865 155.736 178.102 155.818 178.359C155.904 178.613 155.947 178.867 155.947 179.121C155.947 179.52 155.878 179.873 155.742 180.182C155.609 180.49 155.419 180.752 155.173 180.967C154.931 181.182 154.646 181.344 154.318 181.453C153.99 181.562 153.632 181.617 153.246 181.617C152.875 181.617 152.525 181.564 152.197 181.459C151.873 181.354 151.585 181.201 151.335 181.002C151.085 180.799 150.89 180.551 150.75 180.258C150.609 179.961 150.539 179.623 150.539 179.244H151.623C151.623 179.541 151.687 179.801 151.816 180.023C151.949 180.246 152.136 180.42 152.378 180.545C152.625 180.666 152.914 180.727 153.246 180.727C153.578 180.727 153.863 180.67 154.101 180.557C154.343 180.439 154.529 180.264 154.658 180.029C154.791 179.795 154.857 179.5 154.857 179.145C154.857 178.789 154.783 178.498 154.634 178.271C154.486 178.041 154.275 177.871 154.001 177.762C153.732 177.648 153.414 177.592 153.046 177.592H152.273Z" fill="#1C1B1F"/>
</g>
<g clip-path="url(#clip7_556_7143)">
<path d="M188.314 178.629V179.52H182.15V178.881L185.97 172.969H186.855L185.906 174.68L183.38 178.629H188.314ZM187.124 172.969V181.5H186.04V172.969H187.124Z" fill="#1C1B1F"/>
</g>
<g clip-path="url(#clip8_556_7143)">
<path d="M215.776 177.439L214.909 177.217L215.337 172.969H219.714V173.971H216.257L215.999 176.291C216.155 176.201 216.353 176.117 216.591 176.039C216.833 175.961 217.11 175.922 217.423 175.922C217.817 175.922 218.171 175.99 218.483 176.127C218.796 176.26 219.062 176.451 219.28 176.701C219.503 176.951 219.673 177.252 219.79 177.604C219.907 177.955 219.966 178.348 219.966 178.781C219.966 179.191 219.909 179.568 219.796 179.912C219.687 180.256 219.521 180.557 219.298 180.814C219.075 181.068 218.794 181.266 218.454 181.406C218.118 181.547 217.722 181.617 217.265 181.617C216.921 181.617 216.595 181.57 216.286 181.477C215.981 181.379 215.708 181.232 215.466 181.037C215.228 180.838 215.032 180.592 214.88 180.299C214.731 180.002 214.638 179.654 214.599 179.256H215.63C215.677 179.576 215.771 179.846 215.911 180.064C216.052 180.283 216.235 180.449 216.462 180.562C216.692 180.672 216.96 180.727 217.265 180.727C217.522 180.727 217.751 180.682 217.95 180.592C218.149 180.502 218.317 180.373 218.454 180.205C218.591 180.037 218.694 179.834 218.765 179.596C218.839 179.357 218.876 179.09 218.876 178.793C218.876 178.523 218.839 178.273 218.765 178.043C218.69 177.812 218.579 177.611 218.431 177.439C218.286 177.268 218.108 177.135 217.897 177.041C217.687 176.943 217.444 176.895 217.171 176.895C216.808 176.895 216.532 176.943 216.345 177.041C216.161 177.139 215.972 177.271 215.776 177.439Z" fill="#0A5F59"/>
</g>
<rect x="197.571" y="158" width="39" height="39" rx="19.5" stroke="#0A5F59"/>
<g clip-path="url(#clip9_556_7143)">
<path d="M27.4226 203.29H27.5164V204.21H27.4226C26.8484 204.21 26.3679 204.304 25.9812 204.491C25.5945 204.675 25.2878 204.923 25.0613 205.235C24.8347 205.544 24.6707 205.892 24.5691 206.278C24.4714 206.665 24.4226 207.058 24.4226 207.456V208.71C24.4226 209.089 24.4675 209.425 24.5574 209.718C24.6472 210.007 24.7703 210.251 24.9265 210.45C25.0828 210.649 25.2585 210.8 25.4539 210.901C25.6531 211.003 25.8601 211.054 26.075 211.054C26.325 211.054 26.5476 211.007 26.7429 210.913C26.9382 210.815 27.1023 210.681 27.2351 210.509C27.3718 210.333 27.4753 210.126 27.5457 209.888C27.616 209.649 27.6511 209.388 27.6511 209.103C27.6511 208.849 27.6199 208.604 27.5574 208.37C27.4949 208.132 27.3992 207.921 27.2703 207.737C27.1414 207.55 26.9792 207.403 26.7839 207.298C26.5925 207.188 26.364 207.134 26.0984 207.134C25.7976 207.134 25.5164 207.208 25.2546 207.356C24.9968 207.501 24.7839 207.692 24.616 207.931C24.4519 208.165 24.3582 208.421 24.3347 208.698L23.7605 208.692C23.8152 208.255 23.9167 207.882 24.0652 207.573C24.2175 207.261 24.405 207.007 24.6277 206.812C24.8542 206.612 25.1062 206.468 25.3835 206.378C25.6648 206.284 25.9617 206.237 26.2742 206.237C26.7 206.237 27.0671 206.317 27.3757 206.478C27.6843 206.638 27.9382 206.853 28.1375 207.122C28.3367 207.388 28.4832 207.688 28.5769 208.024C28.6746 208.356 28.7234 208.698 28.7234 209.05C28.7234 209.452 28.6667 209.829 28.5535 210.181C28.4402 210.532 28.2703 210.841 28.0437 211.106C27.821 211.372 27.5457 211.579 27.2175 211.728C26.8894 211.876 26.5085 211.95 26.075 211.95C25.614 211.95 25.2117 211.856 24.8679 211.669C24.5242 211.478 24.239 211.224 24.0125 210.907C23.7859 210.591 23.616 210.239 23.5027 209.853C23.3894 209.466 23.3328 209.073 23.3328 208.675V208.165C23.3328 207.563 23.3933 206.974 23.5144 206.396C23.6355 205.817 23.8445 205.294 24.1414 204.825C24.4421 204.356 24.8582 203.983 25.3894 203.706C25.9207 203.429 26.5984 203.29 27.4226 203.29Z" fill="#1C1B1F"/>
</g>
<g clip-path="url(#clip10_556_7143)">
<path d="M60.6333 203.302V203.911L57.1001 211.833H55.9575L59.4849 204.192H54.8677V203.302H60.6333Z" fill="#1C1B1F"/>
</g>
<g clip-path="url(#clip11_556_7143)">
<path d="M92.3557 209.524C92.3557 210.044 92.2346 210.485 91.9924 210.849C91.7542 211.208 91.4299 211.481 91.0198 211.669C90.6135 211.856 90.1545 211.95 89.6428 211.95C89.1311 211.95 88.6702 211.856 88.26 211.669C87.8499 211.481 87.5256 211.208 87.2874 210.849C87.0491 210.485 86.9299 210.044 86.9299 209.524C86.9299 209.185 86.9944 208.874 87.1233 208.593C87.2561 208.308 87.4417 208.06 87.6799 207.849C87.9221 207.638 88.2073 207.476 88.5354 207.362C88.8674 207.245 89.2327 207.187 89.6311 207.187C90.1545 207.187 90.6213 207.288 91.0315 207.491C91.4417 207.69 91.7639 207.966 91.9983 208.317C92.2366 208.669 92.3557 209.071 92.3557 209.524ZM91.2659 209.501C91.2659 209.185 91.1975 208.905 91.0608 208.663C90.9241 208.417 90.7327 208.226 90.4866 208.089C90.2405 207.952 89.9553 207.884 89.6311 207.884C89.2991 207.884 89.012 207.952 88.7698 208.089C88.5315 208.226 88.3459 208.417 88.2131 208.663C88.0803 208.905 88.0139 209.185 88.0139 209.501C88.0139 209.829 88.0784 210.11 88.2073 210.345C88.3401 210.575 88.5276 210.753 88.7698 210.878C89.0159 210.999 89.3069 211.06 89.6428 211.06C89.9788 211.06 90.2678 210.999 90.51 210.878C90.7522 210.753 90.9377 210.575 91.0667 210.345C91.1995 210.11 91.2659 209.829 91.2659 209.501ZM92.1565 205.522C92.1565 205.937 92.0471 206.31 91.8284 206.642C91.6096 206.974 91.3108 207.235 90.9319 207.427C90.553 207.618 90.1233 207.714 89.6428 207.714C89.1545 207.714 88.719 207.618 88.3362 207.427C87.9573 207.235 87.6604 206.974 87.4456 206.642C87.2307 206.31 87.1233 205.937 87.1233 205.522C87.1233 205.026 87.2307 204.604 87.4456 204.257C87.6643 203.909 87.9631 203.644 88.342 203.46C88.7209 203.276 89.1526 203.185 89.637 203.185C90.1252 203.185 90.5588 203.276 90.9377 203.46C91.3167 203.644 91.6135 203.909 91.8284 204.257C92.0471 204.604 92.1565 205.026 92.1565 205.522ZM91.0725 205.54C91.0725 205.255 91.012 205.003 90.8909 204.784C90.7698 204.565 90.6018 204.394 90.387 204.269C90.1721 204.14 89.9221 204.075 89.637 204.075C89.3518 204.075 89.1018 204.136 88.887 204.257C88.676 204.374 88.51 204.542 88.3889 204.761C88.2717 204.979 88.2131 205.239 88.2131 205.54C88.2131 205.833 88.2717 206.089 88.3889 206.308C88.51 206.526 88.678 206.696 88.8928 206.817C89.1077 206.938 89.3577 206.999 89.6428 206.999C89.928 206.999 90.176 206.938 90.387 206.817C90.6018 206.696 90.7698 206.526 90.8909 206.308C91.012 206.089 91.0725 205.833 91.0725 205.54Z" fill="#1C1B1F"/>
</g>
<g clip-path="url(#clip12_556_7143)">
<path d="M119.912 210.925H120.023C120.648 210.925 121.156 210.837 121.547 210.661C121.938 210.485 122.238 210.249 122.449 209.952C122.66 209.655 122.805 209.321 122.883 208.95C122.961 208.575 123 208.19 123 207.796V206.489C123 206.103 122.955 205.759 122.865 205.458C122.779 205.157 122.658 204.905 122.502 204.702C122.35 204.499 122.176 204.345 121.98 204.239C121.785 204.134 121.578 204.081 121.359 204.081C121.109 204.081 120.885 204.132 120.686 204.233C120.49 204.331 120.324 204.47 120.188 204.649C120.055 204.829 119.953 205.04 119.883 205.282C119.812 205.524 119.777 205.788 119.777 206.073C119.777 206.327 119.809 206.573 119.871 206.812C119.934 207.05 120.029 207.265 120.158 207.456C120.287 207.647 120.447 207.8 120.639 207.913C120.834 208.022 121.062 208.077 121.324 208.077C121.566 208.077 121.793 208.03 122.004 207.937C122.219 207.839 122.408 207.708 122.572 207.544C122.74 207.376 122.873 207.187 122.971 206.976C123.072 206.765 123.131 206.544 123.146 206.313H123.662C123.662 206.638 123.598 206.958 123.469 207.274C123.344 207.587 123.168 207.872 122.941 208.13C122.715 208.388 122.449 208.595 122.145 208.751C121.84 208.903 121.508 208.979 121.148 208.979C120.727 208.979 120.361 208.897 120.053 208.733C119.744 208.569 119.49 208.351 119.291 208.077C119.096 207.804 118.949 207.499 118.852 207.163C118.758 206.823 118.711 206.479 118.711 206.132C118.711 205.726 118.768 205.345 118.881 204.989C118.994 204.634 119.162 204.321 119.385 204.052C119.607 203.778 119.883 203.565 120.211 203.413C120.543 203.261 120.926 203.185 121.359 203.185C121.848 203.185 122.264 203.282 122.607 203.478C122.951 203.673 123.23 203.935 123.445 204.263C123.664 204.591 123.824 204.96 123.926 205.37C124.027 205.78 124.078 206.202 124.078 206.636V207.028C124.078 207.47 124.049 207.919 123.99 208.376C123.936 208.829 123.828 209.263 123.668 209.677C123.512 210.091 123.283 210.462 122.982 210.79C122.682 211.114 122.289 211.372 121.805 211.563C121.324 211.751 120.73 211.845 120.023 211.845H119.912V210.925Z" fill="#1C1B1F"/>
</g>
<g clip-path="url(#clip13_556_7143)">
<path d="M150.678 203.255V211.833H149.594V204.608L147.409 205.405V204.427L150.508 203.255H150.678ZM159.621 206.888V208.188C159.621 208.888 159.559 209.478 159.434 209.958C159.309 210.438 159.129 210.825 158.895 211.118C158.66 211.411 158.377 211.624 158.045 211.757C157.717 211.886 157.346 211.95 156.932 211.95C156.604 211.95 156.301 211.909 156.024 211.827C155.746 211.745 155.496 211.614 155.274 211.435C155.055 211.251 154.867 211.013 154.711 210.72C154.555 210.427 154.436 210.071 154.354 209.653C154.272 209.235 154.231 208.747 154.231 208.188V206.888C154.231 206.188 154.293 205.603 154.418 205.13C154.547 204.657 154.729 204.278 154.963 203.993C155.198 203.704 155.479 203.497 155.807 203.372C156.139 203.247 156.51 203.185 156.92 203.185C157.252 203.185 157.557 203.226 157.834 203.308C158.116 203.386 158.366 203.513 158.584 203.688C158.803 203.86 158.989 204.091 159.141 204.38C159.297 204.665 159.416 205.015 159.498 205.429C159.58 205.843 159.621 206.329 159.621 206.888ZM158.532 208.364V206.706C158.532 206.323 158.508 205.987 158.461 205.698C158.418 205.405 158.354 205.155 158.268 204.948C158.182 204.741 158.073 204.573 157.94 204.444C157.811 204.315 157.66 204.222 157.489 204.163C157.321 204.101 157.131 204.069 156.92 204.069C156.662 204.069 156.434 204.118 156.235 204.216C156.035 204.31 155.867 204.46 155.731 204.667C155.598 204.874 155.496 205.146 155.426 205.481C155.356 205.817 155.321 206.226 155.321 206.706V208.364C155.321 208.747 155.342 209.085 155.385 209.378C155.432 209.671 155.5 209.925 155.59 210.14C155.68 210.351 155.789 210.524 155.918 210.661C156.047 210.798 156.196 210.899 156.364 210.966C156.535 211.028 156.725 211.06 156.932 211.06C157.198 211.06 157.43 211.009 157.629 210.907C157.828 210.806 157.994 210.647 158.127 210.433C158.264 210.214 158.366 209.935 158.432 209.595C158.498 209.251 158.532 208.841 158.532 208.364Z" fill="#1C1B1F"/>
</g>
<g clip-path="url(#clip14_556_7143)">
<path d="M182.536 203.255V211.833H181.452V204.608L179.266 205.405V204.427L182.366 203.255H182.536ZM189.686 203.255V211.833H188.602V204.608L186.416 205.405V204.427L189.516 203.255H189.686Z" fill="#1C1B1F"/>
</g>
<g clip-path="url(#clip15_556_7143)">
<path d="M214.393 203.255V211.833H213.309V204.608L211.123 205.405V204.427L214.223 203.255H214.393ZM223.57 210.942V211.833H217.986V211.054L220.781 207.942C221.125 207.56 221.39 207.235 221.578 206.97C221.769 206.7 221.902 206.46 221.976 206.249C222.054 206.034 222.094 205.815 222.094 205.593C222.094 205.312 222.035 205.058 221.918 204.831C221.804 204.601 221.637 204.417 221.414 204.28C221.191 204.144 220.922 204.075 220.605 204.075C220.226 204.075 219.91 204.149 219.656 204.298C219.406 204.442 219.219 204.646 219.094 204.907C218.969 205.169 218.906 205.47 218.906 205.81H217.822C217.822 205.329 217.928 204.89 218.138 204.491C218.349 204.093 218.662 203.776 219.076 203.542C219.49 203.304 220 203.185 220.605 203.185C221.144 203.185 221.605 203.28 221.988 203.472C222.371 203.659 222.664 203.925 222.867 204.269C223.074 204.608 223.178 205.007 223.178 205.464C223.178 205.714 223.135 205.968 223.049 206.226C222.967 206.479 222.851 206.733 222.703 206.987C222.558 207.241 222.388 207.491 222.193 207.737C222.002 207.983 221.797 208.226 221.578 208.464L219.293 210.942H223.57Z" fill="#1C1B1F"/>
</g>
<g clip-path="url(#clip16_556_7143)">
<path d="M23.25 233.588V242.167H22.166V234.942L19.9804 235.739V234.76L23.08 233.588H23.25ZM28.4195 237.368H29.1929C29.5718 237.368 29.8843 237.305 30.1304 237.18C30.3804 237.051 30.566 236.877 30.6871 236.659C30.8121 236.436 30.8746 236.186 30.8746 235.909C30.8746 235.581 30.8199 235.305 30.7105 235.083C30.6011 234.86 30.4371 234.692 30.2183 234.579C29.9996 234.465 29.7222 234.409 29.3863 234.409C29.0816 234.409 28.8121 234.469 28.5777 234.59C28.3472 234.708 28.1656 234.875 28.0328 235.094C27.9039 235.313 27.8394 235.571 27.8394 235.868H26.7554C26.7554 235.434 26.8648 235.04 27.0835 234.684C27.3023 234.329 27.6089 234.045 28.0035 233.834C28.4019 233.624 28.8628 233.518 29.3863 233.518C29.9019 233.518 30.3531 233.61 30.7398 233.793C31.1265 233.973 31.4273 234.243 31.6421 234.602C31.857 234.958 31.9644 235.401 31.9644 235.932C31.9644 236.147 31.9136 236.377 31.8121 236.624C31.7144 236.866 31.5601 237.092 31.3492 237.303C31.1421 237.514 30.8726 237.688 30.5406 237.825C30.2085 237.958 29.8101 238.024 29.3453 238.024H28.4195V237.368ZM28.4195 238.258V237.608H29.3453C29.8882 237.608 30.3375 237.672 30.6929 237.801C31.0484 237.93 31.3277 238.102 31.5308 238.317C31.7378 238.532 31.8824 238.768 31.9644 239.026C32.0503 239.28 32.0933 239.534 32.0933 239.788C32.0933 240.186 32.025 240.54 31.8882 240.848C31.7554 241.157 31.566 241.418 31.3199 241.633C31.0777 241.848 30.7925 242.01 30.4644 242.12C30.1363 242.229 29.7789 242.284 29.3921 242.284C29.021 242.284 28.6714 242.231 28.3433 242.125C28.0191 242.02 27.732 241.868 27.482 241.668C27.232 241.465 27.0367 241.217 26.896 240.924C26.7554 240.627 26.6851 240.29 26.6851 239.911H27.7691C27.7691 240.208 27.8335 240.467 27.9625 240.69C28.0953 240.913 28.2828 241.086 28.525 241.211C28.771 241.333 29.0601 241.393 29.3921 241.393C29.7242 241.393 30.0093 241.336 30.2476 241.223C30.4898 241.106 30.6753 240.93 30.8042 240.696C30.9371 240.461 31.0035 240.167 31.0035 239.811C31.0035 239.456 30.9292 239.165 30.7808 238.938C30.6324 238.708 30.4214 238.538 30.148 238.428C29.8785 238.315 29.5601 238.258 29.1929 238.258H28.4195Z" fill="#1C1B1F"/>
</g>
<g clip-path="url(#clip17_556_7143)">
<path d="M55.1071 233.588V242.167H54.0231V234.942L51.8376 235.739V234.76L54.9372 233.588H55.1071ZM64.4603 239.295V240.186H58.2962V239.547L62.1165 233.635H63.0013L62.0521 235.346L59.5267 239.295H64.4603ZM63.2708 233.635V242.167H62.1868V233.635H63.2708Z" fill="#1C1B1F"/>
</g>
<g clip-path="url(#clip18_556_7143)">
<path d="M86.9643 233.588V242.167H85.8803V234.942L83.6948 235.739V234.76L86.7944 233.588H86.9643ZM91.9229 238.106L91.0557 237.883L91.4834 233.635H95.8604V234.637H92.4034L92.1456 236.958C92.3018 236.868 92.4991 236.784 92.7374 236.706C92.9795 236.627 93.2569 236.588 93.5694 236.588C93.9639 236.588 94.3174 236.657 94.6299 236.793C94.9424 236.926 95.2081 237.118 95.4268 237.368C95.6495 237.618 95.8194 237.918 95.9366 238.27C96.0538 238.622 96.1124 239.014 96.1124 239.448C96.1124 239.858 96.0557 240.235 95.9424 240.579C95.8331 240.922 95.667 241.223 95.4444 241.481C95.2217 241.735 94.9405 241.932 94.6006 242.073C94.2647 242.213 93.8682 242.284 93.4112 242.284C93.0674 242.284 92.7413 242.237 92.4327 242.143C92.128 242.045 91.8545 241.899 91.6124 241.704C91.3741 241.504 91.1788 241.258 91.0264 240.965C90.878 240.668 90.7842 240.321 90.7452 239.922H91.7764C91.8233 240.243 91.917 240.512 92.0577 240.731C92.1983 240.95 92.3819 241.116 92.6084 241.229C92.8389 241.338 93.1065 241.393 93.4112 241.393C93.669 241.393 93.8975 241.348 94.0967 241.258C94.2959 241.168 94.4639 241.04 94.6006 240.872C94.7374 240.704 94.8409 240.5 94.9112 240.262C94.9854 240.024 95.0225 239.756 95.0225 239.459C95.0225 239.19 94.9854 238.94 94.9112 238.709C94.837 238.479 94.7256 238.278 94.5772 238.106C94.4327 237.934 94.2549 237.801 94.044 237.708C93.8331 237.61 93.5909 237.561 93.3174 237.561C92.9542 237.561 92.6788 237.61 92.4913 237.708C92.3077 237.805 92.1182 237.938 91.9229 238.106Z" fill="#1C1B1F"/>
</g>
<g clip-path="url(#clip19_556_7143)">
<path d="M118.821 233.588V242.167H117.738V234.942L115.552 235.739V234.76L118.652 233.588H118.821ZM126.569 233.624H126.663V234.543H126.569C125.995 234.543 125.514 234.637 125.128 234.825C124.741 235.008 124.434 235.256 124.208 235.569C123.981 235.877 123.817 236.225 123.716 236.612C123.618 236.999 123.569 237.391 123.569 237.79V239.043C123.569 239.422 123.614 239.758 123.704 240.051C123.794 240.34 123.917 240.584 124.073 240.784C124.229 240.983 124.405 241.133 124.6 241.235C124.8 241.336 125.007 241.387 125.221 241.387C125.471 241.387 125.694 241.34 125.889 241.247C126.085 241.149 126.249 241.014 126.382 240.842C126.518 240.667 126.622 240.459 126.692 240.221C126.763 239.983 126.798 239.721 126.798 239.436C126.798 239.182 126.766 238.938 126.704 238.704C126.641 238.465 126.546 238.254 126.417 238.071C126.288 237.883 126.126 237.737 125.93 237.631C125.739 237.522 125.511 237.467 125.245 237.467C124.944 237.467 124.663 237.542 124.401 237.69C124.143 237.834 123.93 238.026 123.763 238.264C123.598 238.499 123.505 238.754 123.481 239.032L122.907 239.026C122.962 238.588 123.063 238.215 123.212 237.907C123.364 237.594 123.552 237.34 123.774 237.145C124.001 236.946 124.253 236.801 124.53 236.711C124.811 236.618 125.108 236.571 125.421 236.571C125.846 236.571 126.214 236.651 126.522 236.811C126.831 236.971 127.085 237.186 127.284 237.456C127.483 237.721 127.63 238.022 127.723 238.358C127.821 238.69 127.87 239.032 127.87 239.383C127.87 239.786 127.813 240.163 127.7 240.514C127.587 240.866 127.417 241.174 127.19 241.44C126.968 241.706 126.692 241.913 126.364 242.061C126.036 242.209 125.655 242.284 125.221 242.284C124.761 242.284 124.358 242.19 124.014 242.002C123.671 241.811 123.386 241.557 123.159 241.241C122.932 240.924 122.763 240.573 122.649 240.186C122.536 239.799 122.479 239.407 122.479 239.008V238.499C122.479 237.897 122.54 237.307 122.661 236.729C122.782 236.151 122.991 235.627 123.288 235.159C123.589 234.69 124.005 234.317 124.536 234.04C125.067 233.762 125.745 233.624 126.569 233.624Z" fill="#1C1B1F"/>
</g>
<g clip-path="url(#clip20_556_7143)">
<rect x="133.357" y="218.167" width="40" height="40" rx="20" fill="#0A5F59"/>
<path d="M150.787 233.606V242.167H149.375V235.282L147.283 235.991V234.825L150.617 233.606H150.787ZM159.917 233.635V234.409L156.507 242.167H155.019L158.423 234.76H154.005V233.635H159.917Z" fill="white"/>
</g>
<g clip-path="url(#clip21_556_7143)">
<path d="M182.536 233.588V242.167H181.452V234.942L179.266 235.739V234.76L182.366 233.588H182.536ZM191.502 239.858C191.502 240.377 191.381 240.819 191.139 241.182C190.9 241.542 190.576 241.815 190.166 242.002C189.76 242.19 189.301 242.284 188.789 242.284C188.277 242.284 187.816 242.19 187.406 242.002C186.996 241.815 186.672 241.542 186.434 241.182C186.195 240.819 186.076 240.377 186.076 239.858C186.076 239.518 186.141 239.208 186.27 238.926C186.402 238.641 186.588 238.393 186.826 238.182C187.068 237.971 187.354 237.809 187.682 237.696C188.014 237.579 188.379 237.52 188.777 237.52C189.301 237.52 189.768 237.622 190.178 237.825C190.588 238.024 190.91 238.299 191.145 238.651C191.383 239.002 191.502 239.405 191.502 239.858ZM190.412 239.834C190.412 239.518 190.344 239.239 190.207 238.997C190.07 238.75 189.879 238.559 189.633 238.422C189.387 238.286 189.102 238.217 188.777 238.217C188.445 238.217 188.158 238.286 187.916 238.422C187.678 238.559 187.492 238.75 187.359 238.997C187.227 239.239 187.16 239.518 187.16 239.834C187.16 240.163 187.225 240.444 187.354 240.678C187.486 240.909 187.674 241.086 187.916 241.211C188.162 241.333 188.453 241.393 188.789 241.393C189.125 241.393 189.414 241.333 189.656 241.211C189.898 241.086 190.084 240.909 190.213 240.678C190.346 240.444 190.412 240.163 190.412 239.834ZM191.303 235.856C191.303 236.27 191.193 236.643 190.975 236.975C190.756 237.307 190.457 237.569 190.078 237.76C189.699 237.952 189.27 238.047 188.789 238.047C188.301 238.047 187.865 237.952 187.482 237.76C187.104 237.569 186.807 237.307 186.592 236.975C186.377 236.643 186.27 236.27 186.27 235.856C186.27 235.36 186.377 234.938 186.592 234.59C186.811 234.243 187.109 233.977 187.488 233.793C187.867 233.61 188.299 233.518 188.783 233.518C189.272 233.518 189.705 233.61 190.084 233.793C190.463 233.977 190.76 234.243 190.975 234.59C191.193 234.938 191.303 235.36 191.303 235.856ZM190.219 235.874C190.219 235.588 190.158 235.336 190.037 235.118C189.916 234.899 189.748 234.727 189.533 234.602C189.318 234.473 189.068 234.409 188.783 234.409C188.498 234.409 188.248 234.469 188.033 234.59C187.822 234.708 187.656 234.875 187.535 235.094C187.418 235.313 187.359 235.573 187.359 235.874C187.359 236.167 187.418 236.422 187.535 236.641C187.656 236.86 187.824 237.03 188.039 237.151C188.254 237.272 188.504 237.333 188.789 237.333C189.074 237.333 189.322 237.272 189.533 237.151C189.748 237.03 189.916 236.86 190.037 236.641C190.158 236.422 190.219 236.167 190.219 235.874Z" fill="#1C1B1F"/>
</g>
<g clip-path="url(#clip22_556_7143)">
<path d="M214.393 233.588V242.167H213.309V234.942L211.123 235.739V234.76L214.223 233.588H214.393ZM219.058 241.258H219.17C219.795 241.258 220.303 241.17 220.693 240.995C221.084 240.819 221.385 240.583 221.596 240.286C221.806 239.989 221.951 239.655 222.029 239.284C222.107 238.909 222.146 238.524 222.146 238.129V236.823C222.146 236.436 222.101 236.092 222.012 235.792C221.926 235.491 221.804 235.239 221.648 235.036C221.496 234.833 221.322 234.678 221.127 234.573C220.931 234.467 220.724 234.415 220.506 234.415C220.256 234.415 220.031 234.465 219.832 234.567C219.637 234.665 219.471 234.803 219.334 234.983C219.201 235.163 219.099 235.374 219.029 235.616C218.959 235.858 218.924 236.122 218.924 236.407C218.924 236.661 218.955 236.907 219.017 237.145C219.08 237.383 219.176 237.598 219.304 237.79C219.433 237.981 219.594 238.133 219.785 238.247C219.98 238.356 220.209 238.411 220.471 238.411C220.713 238.411 220.939 238.364 221.15 238.27C221.365 238.172 221.554 238.042 221.719 237.877C221.887 237.709 222.019 237.52 222.117 237.309C222.219 237.098 222.277 236.877 222.293 236.647H222.808C222.808 236.971 222.744 237.292 222.615 237.608C222.49 237.92 222.314 238.206 222.088 238.463C221.861 238.721 221.596 238.928 221.291 239.084C220.986 239.237 220.654 239.313 220.295 239.313C219.873 239.313 219.508 239.231 219.199 239.067C218.89 238.903 218.637 238.684 218.437 238.411C218.242 238.137 218.096 237.833 217.998 237.497C217.904 237.157 217.857 236.813 217.857 236.465C217.857 236.059 217.914 235.678 218.027 235.323C218.14 234.967 218.308 234.655 218.531 234.385C218.754 234.112 219.029 233.899 219.357 233.747C219.689 233.594 220.072 233.518 220.506 233.518C220.994 233.518 221.41 233.616 221.754 233.811C222.097 234.006 222.377 234.268 222.592 234.596C222.81 234.924 222.971 235.293 223.072 235.704C223.174 236.114 223.224 236.536 223.224 236.969V237.362C223.224 237.803 223.195 238.252 223.137 238.709C223.082 239.163 222.974 239.596 222.814 240.01C222.658 240.424 222.429 240.795 222.129 241.124C221.828 241.448 221.435 241.706 220.951 241.897C220.471 242.084 219.877 242.178 219.17 242.178H219.058V241.258Z" fill="#1C1B1F"/>
</g>
<g clip-path="url(#clip23_556_7143)">
<path d="M25.2773 271.609V272.5H19.6933V271.721L22.4882 268.609C22.832 268.227 23.0976 267.902 23.2851 267.637C23.4765 267.367 23.6093 267.127 23.6835 266.916C23.7617 266.701 23.8007 266.482 23.8007 266.26C23.8007 265.979 23.7421 265.725 23.625 265.498C23.5117 265.268 23.3437 265.084 23.121 264.947C22.8984 264.811 22.6289 264.742 22.3125 264.742C21.9335 264.742 21.6171 264.816 21.3632 264.965C21.1132 265.109 20.9257 265.312 20.8007 265.574C20.6757 265.836 20.6132 266.137 20.6132 266.477H19.5292C19.5292 265.996 19.6347 265.557 19.8457 265.158C20.0566 264.76 20.3691 264.443 20.7832 264.209C21.1972 263.971 21.707 263.852 22.3125 263.852C22.8515 263.852 23.3125 263.947 23.6953 264.139C24.0781 264.326 24.371 264.592 24.5742 264.936C24.7812 265.275 24.8847 265.674 24.8847 266.131C24.8847 266.381 24.8417 266.635 24.7558 266.893C24.6738 267.146 24.5585 267.4 24.4101 267.654C24.2656 267.908 24.0957 268.158 23.9003 268.404C23.7089 268.65 23.5039 268.893 23.2851 269.131L21 271.609H25.2773ZM32.1929 267.555V268.855C32.1929 269.555 32.1304 270.145 32.0054 270.625C31.8804 271.105 31.7007 271.492 31.4664 271.785C31.232 272.078 30.9488 272.291 30.6167 272.424C30.2886 272.553 29.9175 272.617 29.5035 272.617C29.1753 272.617 28.8726 272.576 28.5953 272.494C28.3179 272.412 28.0679 272.281 27.8453 272.102C27.6265 271.918 27.439 271.68 27.2828 271.387C27.1265 271.094 27.0074 270.738 26.9253 270.32C26.8433 269.902 26.8023 269.414 26.8023 268.855V267.555C26.8023 266.855 26.8648 266.27 26.9898 265.797C27.1187 265.324 27.3003 264.945 27.5347 264.66C27.7691 264.371 28.0503 264.164 28.3785 264.039C28.7105 263.914 29.0816 263.852 29.4917 263.852C29.8238 263.852 30.1285 263.893 30.4058 263.975C30.6871 264.053 30.9371 264.18 31.1558 264.355C31.3746 264.527 31.5601 264.758 31.7125 265.047C31.8687 265.332 31.9878 265.682 32.0699 266.096C32.1519 266.51 32.1929 266.996 32.1929 267.555ZM31.1031 269.031V267.373C31.1031 266.99 31.0796 266.654 31.0328 266.365C30.9898 266.072 30.9253 265.822 30.8394 265.615C30.7535 265.408 30.6441 265.24 30.5113 265.111C30.3824 264.982 30.232 264.889 30.0601 264.83C29.8921 264.768 29.7027 264.736 29.4917 264.736C29.2339 264.736 29.0054 264.785 28.8062 264.883C28.607 264.977 28.439 265.127 28.3023 265.334C28.1695 265.541 28.0679 265.812 27.9976 266.148C27.9273 266.484 27.8921 266.893 27.8921 267.373V269.031C27.8921 269.414 27.9136 269.752 27.9566 270.045C28.0035 270.338 28.0718 270.592 28.1617 270.807C28.2515 271.018 28.3609 271.191 28.4898 271.328C28.6187 271.465 28.7671 271.566 28.9351 271.633C29.107 271.695 29.2964 271.727 29.5035 271.727C29.7691 271.727 30.0015 271.676 30.2007 271.574C30.4 271.473 30.566 271.314 30.6988 271.1C30.8355 270.881 30.9371 270.602 31.0035 270.262C31.0699 269.918 31.1031 269.508 31.1031 269.031Z" fill="#1C1B1F"/>
</g>
<g clip-path="url(#clip24_556_7143)">
<path d="M57.1345 271.609V272.5H51.5505V271.721L54.3454 268.609C54.6892 268.227 54.9548 267.902 55.1423 267.637C55.3337 267.367 55.4665 267.127 55.5407 266.916C55.6188 266.701 55.6579 266.482 55.6579 266.26C55.6579 265.979 55.5993 265.725 55.4821 265.498C55.3688 265.268 55.2009 265.084 54.9782 264.947C54.7556 264.811 54.486 264.742 54.1696 264.742C53.7907 264.742 53.4743 264.816 53.2204 264.965C52.9704 265.109 52.7829 265.312 52.6579 265.574C52.5329 265.836 52.4704 266.137 52.4704 266.477H51.3864C51.3864 265.996 51.4919 265.557 51.7028 265.158C51.9138 264.76 52.2263 264.443 52.6403 264.209C53.0544 263.971 53.5642 263.852 54.1696 263.852C54.7087 263.852 55.1696 263.947 55.5524 264.139C55.9353 264.326 56.2282 264.592 56.4313 264.936C56.6384 265.275 56.7419 265.674 56.7419 266.131C56.7419 266.381 56.6989 266.635 56.613 266.893C56.531 267.146 56.4157 267.4 56.2673 267.654C56.1228 267.908 55.9528 268.158 55.7575 268.404C55.5661 268.65 55.361 268.893 55.1423 269.131L52.8571 271.609H57.1345ZM62.2571 263.922V272.5H61.1731V265.275L58.9876 266.072V265.094L62.0872 263.922H62.2571Z" fill="#1C1B1F"/>
</g>
<g clip-path="url(#clip25_556_7143)">
<path d="M88.9917 271.609V272.5H83.4077V271.721L86.2026 268.609C86.5463 268.227 86.812 267.902 86.9995 267.637C87.1909 267.367 87.3237 267.127 87.3979 266.916C87.476 266.701 87.5151 266.482 87.5151 266.26C87.5151 265.979 87.4565 265.725 87.3393 265.498C87.226 265.268 87.0581 265.084 86.8354 264.947C86.6127 264.811 86.3432 264.742 86.0268 264.742C85.6479 264.742 85.3315 264.816 85.0776 264.965C84.8276 265.109 84.6401 265.312 84.5151 265.574C84.3901 265.836 84.3276 266.137 84.3276 266.477H83.2436C83.2436 265.996 83.3491 265.557 83.56 265.158C83.7709 264.76 84.0834 264.443 84.4975 264.209C84.9116 263.971 85.4213 263.852 86.0268 263.852C86.5659 263.852 87.0268 263.947 87.4096 264.139C87.7924 264.326 88.0854 264.592 88.2885 264.936C88.4956 265.275 88.5991 265.674 88.5991 266.131C88.5991 266.381 88.5561 266.635 88.4702 266.893C88.3881 267.146 88.2729 267.4 88.1245 267.654C87.9799 267.908 87.81 268.158 87.6147 268.404C87.4233 268.65 87.2182 268.893 86.9995 269.131L84.7143 271.609H88.9917ZM96.1417 271.609V272.5H90.5577V271.721L93.3526 268.609C93.6963 268.227 93.962 267.902 94.1495 267.637C94.3409 267.367 94.4737 267.127 94.5479 266.916C94.626 266.701 94.6651 266.482 94.6651 266.26C94.6651 265.979 94.6065 265.725 94.4893 265.498C94.376 265.268 94.2081 265.084 93.9854 264.947C93.7627 264.811 93.4932 264.742 93.1768 264.742C92.7979 264.742 92.4815 264.816 92.2276 264.965C91.9776 265.109 91.7901 265.312 91.6651 265.574C91.5401 265.836 91.4776 266.137 91.4776 266.477H90.3936C90.3936 265.996 90.4991 265.557 90.71 265.158C90.9209 264.76 91.2334 264.443 91.6475 264.209C92.0616 263.971 92.5713 263.852 93.1768 263.852C93.7159 263.852 94.1768 263.947 94.5596 264.139C94.9424 264.326 95.2354 264.592 95.4385 264.936C95.6456 265.275 95.7491 265.674 95.7491 266.131C95.7491 266.381 95.7061 266.635 95.6202 266.893C95.5381 267.146 95.4229 267.4 95.2745 267.654C95.1299 267.908 94.96 268.158 94.7647 268.404C94.5733 268.65 94.3682 268.893 94.1495 269.131L91.8643 271.609H96.1417Z" fill="#1C1B1F"/>
</g>
<g clip-path="url(#clip26_556_7143)">
<path d="M120.849 271.609V272.5H115.265V271.721L118.06 268.609C118.404 268.227 118.669 267.902 118.857 267.637C119.048 267.367 119.181 267.127 119.255 266.916C119.333 266.701 119.372 266.482 119.372 266.26C119.372 265.979 119.314 265.725 119.196 265.498C119.083 265.268 118.915 265.084 118.693 264.947C118.47 264.811 118.2 264.742 117.884 264.742C117.505 264.742 117.189 264.816 116.935 264.965C116.685 265.109 116.497 265.312 116.372 265.574C116.247 265.836 116.185 266.137 116.185 266.477H115.101C115.101 265.996 115.206 265.557 115.417 265.158C115.628 264.76 115.941 264.443 116.355 264.209C116.769 263.971 117.279 263.852 117.884 263.852C118.423 263.852 118.884 263.947 119.267 264.139C119.65 264.326 119.943 264.592 120.146 264.936C120.353 265.275 120.456 265.674 120.456 266.131C120.456 266.381 120.413 266.635 120.327 266.893C120.245 267.146 120.13 267.4 119.982 267.654C119.837 267.908 119.667 268.158 119.472 268.404C119.28 268.65 119.075 268.893 118.857 269.131L116.571 271.609H120.849ZM123.991 267.701H124.764C125.143 267.701 125.456 267.639 125.702 267.514C125.952 267.385 126.138 267.211 126.259 266.992C126.384 266.77 126.446 266.52 126.446 266.242C126.446 265.914 126.391 265.639 126.282 265.416C126.173 265.193 126.009 265.025 125.79 264.912C125.571 264.799 125.294 264.742 124.958 264.742C124.653 264.742 124.384 264.803 124.149 264.924C123.919 265.041 123.737 265.209 123.604 265.428C123.475 265.646 123.411 265.904 123.411 266.201H122.327C122.327 265.768 122.436 265.373 122.655 265.018C122.874 264.662 123.18 264.379 123.575 264.168C123.973 263.957 124.434 263.852 124.958 263.852C125.473 263.852 125.925 263.943 126.311 264.127C126.698 264.307 126.999 264.576 127.214 264.936C127.429 265.291 127.536 265.734 127.536 266.266C127.536 266.48 127.485 266.711 127.384 266.957C127.286 267.199 127.132 267.426 126.921 267.637C126.714 267.848 126.444 268.021 126.112 268.158C125.78 268.291 125.382 268.357 124.917 268.357H123.991V267.701ZM123.991 268.592V267.941H124.917C125.46 267.941 125.909 268.006 126.264 268.135C126.62 268.264 126.899 268.436 127.102 268.65C127.309 268.865 127.454 269.102 127.536 269.359C127.622 269.613 127.665 269.867 127.665 270.121C127.665 270.52 127.596 270.873 127.46 271.182C127.327 271.49 127.138 271.752 126.891 271.967C126.649 272.182 126.364 272.344 126.036 272.453C125.708 272.562 125.35 272.617 124.964 272.617C124.593 272.617 124.243 272.564 123.915 272.459C123.591 272.354 123.304 272.201 123.054 272.002C122.804 271.799 122.608 271.551 122.468 271.258C122.327 270.961 122.257 270.623 122.257 270.244H123.341C123.341 270.541 123.405 270.801 123.534 271.023C123.667 271.246 123.854 271.42 124.096 271.545C124.343 271.666 124.632 271.727 124.964 271.727C125.296 271.727 125.581 271.67 125.819 271.557C126.061 271.439 126.247 271.264 126.376 271.029C126.509 270.795 126.575 270.5 126.575 270.145C126.575 269.789 126.501 269.498 126.352 269.271C126.204 269.041 125.993 268.871 125.72 268.762C125.45 268.648 125.132 268.592 124.764 268.592H123.991Z" fill="#1C1B1F"/>
</g>
<g clip-path="url(#clip27_556_7143)">
<path d="M152.706 271.609V272.5H147.122V271.721L149.917 268.609C150.26 268.227 150.526 267.902 150.714 267.637C150.905 267.367 151.038 267.127 151.112 266.916C151.19 266.701 151.229 266.482 151.229 266.26C151.229 265.979 151.171 265.725 151.053 265.498C150.94 265.268 150.772 265.084 150.55 264.947C150.327 264.811 150.057 264.742 149.741 264.742C149.362 264.742 149.046 264.816 148.792 264.965C148.542 265.109 148.354 265.312 148.229 265.574C148.104 265.836 148.042 266.137 148.042 266.477H146.958C146.958 265.996 147.063 265.557 147.274 265.158C147.485 264.76 147.798 264.443 148.212 264.209C148.626 263.971 149.135 263.852 149.741 263.852C150.28 263.852 150.741 263.947 151.124 264.139C151.507 264.326 151.8 264.592 152.003 264.936C152.21 265.275 152.313 265.674 152.313 266.131C152.313 266.381 152.27 266.635 152.184 266.893C152.102 267.146 151.987 267.4 151.839 267.654C151.694 267.908 151.524 268.158 151.329 268.404C151.137 268.65 150.932 268.893 150.714 269.131L148.428 271.609H152.706ZM160.032 269.629V270.52H153.867V269.881L157.688 263.969H158.573L157.623 265.68L155.098 269.629H160.032ZM158.842 263.969V272.5H157.758V263.969H158.842Z" fill="#1C1B1F"/>
</g>
<g clip-path="url(#clip28_556_7143)">
<path d="M184.563 271.609V272.5H178.979V271.721L181.774 268.609C182.118 268.227 182.383 267.902 182.571 267.637C182.762 267.367 182.895 267.127 182.969 266.916C183.047 266.701 183.086 266.482 183.086 266.26C183.086 265.979 183.028 265.725 182.911 265.498C182.797 265.268 182.629 265.084 182.407 264.947C182.184 264.811 181.915 264.742 181.598 264.742C181.219 264.742 180.903 264.816 180.649 264.965C180.399 265.109 180.211 265.312 180.086 265.574C179.961 265.836 179.899 266.137 179.899 266.477H178.815C178.815 265.996 178.92 265.557 179.131 265.158C179.342 264.76 179.655 264.443 180.069 264.209C180.483 263.971 180.993 263.852 181.598 263.852C182.137 263.852 182.598 263.947 182.981 264.139C183.364 264.326 183.657 264.592 183.86 264.936C184.067 265.275 184.17 265.674 184.17 266.131C184.17 266.381 184.127 266.635 184.041 266.893C183.959 267.146 183.844 267.4 183.696 267.654C183.551 267.908 183.381 268.158 183.186 268.404C182.995 268.65 182.79 268.893 182.571 269.131L180.286 271.609H184.563ZM187.494 268.439L186.627 268.217L187.055 263.969H191.432V264.971H187.975L187.717 267.291C187.873 267.201 188.07 267.117 188.309 267.039C188.551 266.961 188.828 266.922 189.141 266.922C189.535 266.922 189.889 266.99 190.201 267.127C190.514 267.26 190.779 267.451 190.998 267.701C191.221 267.951 191.391 268.252 191.508 268.604C191.625 268.955 191.684 269.348 191.684 269.781C191.684 270.191 191.627 270.568 191.514 270.912C191.404 271.256 191.238 271.557 191.016 271.814C190.793 272.068 190.512 272.266 190.172 272.406C189.836 272.547 189.44 272.617 188.982 272.617C188.639 272.617 188.313 272.57 188.004 272.477C187.699 272.379 187.426 272.232 187.184 272.037C186.945 271.838 186.75 271.592 186.598 271.299C186.449 271.002 186.356 270.654 186.316 270.256H187.348C187.395 270.576 187.488 270.846 187.629 271.064C187.77 271.283 187.953 271.449 188.18 271.562C188.41 271.672 188.678 271.727 188.982 271.727C189.24 271.727 189.469 271.682 189.668 271.592C189.867 271.502 190.035 271.373 190.172 271.205C190.309 271.037 190.412 270.834 190.482 270.596C190.557 270.357 190.594 270.09 190.594 269.793C190.594 269.523 190.557 269.273 190.482 269.043C190.408 268.812 190.297 268.611 190.148 268.439C190.004 268.268 189.826 268.135 189.615 268.041C189.404 267.943 189.162 267.895 188.889 267.895C188.525 267.895 188.25 267.943 188.063 268.041C187.879 268.139 187.69 268.271 187.494 268.439Z" fill="#1C1B1F"/>
</g>
<g clip-path="url(#clip29_556_7143)">
<path d="M216.42 271.609V272.5H210.836V271.721L213.631 268.609C213.975 268.227 214.24 267.902 214.428 267.637C214.619 267.367 214.752 267.127 214.826 266.916C214.904 266.701 214.944 266.482 214.944 266.26C214.944 265.979 214.885 265.725 214.768 265.498C214.654 265.268 214.487 265.084 214.264 264.947C214.041 264.811 213.772 264.742 213.455 264.742C213.076 264.742 212.76 264.816 212.506 264.965C212.256 265.109 212.069 265.312 211.944 265.574C211.819 265.836 211.756 266.137 211.756 266.477H210.672C210.672 265.996 210.778 265.557 210.988 265.158C211.199 264.76 211.512 264.443 211.926 264.209C212.34 263.971 212.85 263.852 213.455 263.852C213.994 263.852 214.455 263.947 214.838 264.139C215.221 264.326 215.514 264.592 215.717 264.936C215.924 265.275 216.028 265.674 216.028 266.131C216.028 266.381 215.985 266.635 215.899 266.893C215.817 267.146 215.701 267.4 215.553 267.654C215.408 267.908 215.238 268.158 215.043 268.404C214.852 268.65 214.647 268.893 214.428 269.131L212.143 271.609H216.42ZM222.14 263.957H222.234V264.877H222.14C221.566 264.877 221.086 264.971 220.699 265.158C220.312 265.342 220.006 265.59 219.779 265.902C219.553 266.211 219.388 266.559 219.287 266.945C219.189 267.332 219.14 267.725 219.14 268.123V269.377C219.14 269.756 219.185 270.092 219.275 270.385C219.365 270.674 219.488 270.918 219.644 271.117C219.801 271.316 219.976 271.467 220.172 271.568C220.371 271.67 220.578 271.721 220.793 271.721C221.043 271.721 221.265 271.674 221.461 271.58C221.656 271.482 221.82 271.348 221.953 271.176C222.09 271 222.193 270.793 222.263 270.555C222.334 270.316 222.369 270.055 222.369 269.77C222.369 269.516 222.338 269.271 222.275 269.037C222.213 268.799 222.117 268.588 221.988 268.404C221.859 268.217 221.697 268.07 221.502 267.965C221.31 267.855 221.082 267.801 220.816 267.801C220.515 267.801 220.234 267.875 219.972 268.023C219.715 268.168 219.502 268.359 219.334 268.598C219.17 268.832 219.076 269.088 219.053 269.365L218.478 269.359C218.533 268.922 218.635 268.549 218.783 268.24C218.935 267.928 219.123 267.674 219.346 267.479C219.572 267.279 219.824 267.135 220.101 267.045C220.383 266.951 220.679 266.904 220.992 266.904C221.418 266.904 221.785 266.984 222.094 267.145C222.402 267.305 222.656 267.52 222.855 267.789C223.054 268.055 223.201 268.355 223.295 268.691C223.392 269.023 223.441 269.365 223.441 269.717C223.441 270.119 223.385 270.496 223.271 270.848C223.158 271.199 222.988 271.508 222.762 271.773C222.539 272.039 222.263 272.246 221.935 272.395C221.607 272.543 221.226 272.617 220.793 272.617C220.332 272.617 219.929 272.523 219.586 272.336C219.242 272.145 218.957 271.891 218.73 271.574C218.504 271.258 218.334 270.906 218.221 270.52C218.107 270.133 218.051 269.74 218.051 269.342V268.832C218.051 268.23 218.111 267.641 218.232 267.062C218.353 266.484 218.562 265.961 218.859 265.492C219.16 265.023 219.576 264.65 220.107 264.373C220.638 264.096 221.316 263.957 222.14 263.957Z" fill="#1C1B1F"/>
</g>
<g clip-path="url(#clip30_556_7143)">
<path d="M25.2773 301.942V302.833H19.6933V302.054L22.4882 298.942C22.832 298.56 23.0976 298.235 23.2851 297.97C23.4765 297.7 23.6093 297.46 23.6835 297.249C23.7617 297.034 23.8007 296.815 23.8007 296.593C23.8007 296.312 23.7421 296.058 23.625 295.831C23.5117 295.601 23.3437 295.417 23.121 295.28C22.8984 295.144 22.6289 295.075 22.3125 295.075C21.9335 295.075 21.6171 295.149 21.3632 295.298C21.1132 295.442 20.9257 295.646 20.8007 295.907C20.6757 296.169 20.6132 296.47 20.6132 296.81H19.5292C19.5292 296.329 19.6347 295.89 19.8457 295.491C20.0566 295.093 20.3691 294.776 20.7832 294.542C21.1972 294.304 21.707 294.185 22.3125 294.185C22.8515 294.185 23.3125 294.28 23.6953 294.472C24.0781 294.659 24.371 294.925 24.5742 295.269C24.7812 295.608 24.8847 296.007 24.8847 296.464C24.8847 296.714 24.8417 296.968 24.7558 297.226C24.6738 297.479 24.5585 297.733 24.4101 297.987C24.2656 298.241 24.0957 298.491 23.9003 298.737C23.7089 298.983 23.5039 299.226 23.2851 299.464L21 301.942H25.2773ZM32.3511 294.302V294.911L28.8179 302.833H27.6753L31.2027 295.192H26.5855V294.302H32.3511Z" fill="#1C1B1F"/>
</g>
<g clip-path="url(#clip31_556_7143)">
<path d="M57.1345 301.942V302.833H51.5505V302.054L54.3454 298.942C54.6892 298.56 54.9548 298.235 55.1423 297.97C55.3337 297.7 55.4665 297.46 55.5407 297.249C55.6188 297.034 55.6579 296.815 55.6579 296.593C55.6579 296.312 55.5993 296.058 55.4821 295.831C55.3688 295.601 55.2009 295.417 54.9782 295.28C54.7556 295.144 54.486 295.075 54.1696 295.075C53.7907 295.075 53.4743 295.149 53.2204 295.298C52.9704 295.442 52.7829 295.646 52.6579 295.907C52.5329 296.169 52.4704 296.47 52.4704 296.81H51.3864C51.3864 296.329 51.4919 295.89 51.7028 295.491C51.9138 295.093 52.2263 294.776 52.6403 294.542C53.0544 294.304 53.5642 294.185 54.1696 294.185C54.7087 294.185 55.1696 294.28 55.5524 294.472C55.9353 294.659 56.2282 294.925 56.4313 295.269C56.6384 295.608 56.7419 296.007 56.7419 296.464C56.7419 296.714 56.6989 296.968 56.613 297.226C56.531 297.479 56.4157 297.733 56.2673 297.987C56.1228 298.241 55.9528 298.491 55.7575 298.737C55.5661 298.983 55.361 299.226 55.1423 299.464L52.8571 301.942H57.1345ZM64.0735 300.524C64.0735 301.044 63.9524 301.485 63.7103 301.849C63.472 302.208 63.1478 302.481 62.7376 302.669C62.3313 302.856 61.8724 302.95 61.3606 302.95C60.8489 302.95 60.388 302.856 59.9778 302.669C59.5677 302.481 59.2435 302.208 59.0052 301.849C58.7669 301.485 58.6478 301.044 58.6478 300.524C58.6478 300.185 58.7122 299.874 58.8411 299.593C58.9739 299.308 59.1595 299.06 59.3978 298.849C59.6399 298.638 59.9251 298.476 60.2532 298.362C60.5853 298.245 60.9505 298.187 61.3489 298.187C61.8724 298.187 62.3392 298.288 62.7493 298.491C63.1595 298.69 63.4817 298.966 63.7161 299.317C63.9544 299.669 64.0735 300.071 64.0735 300.524ZM62.9837 300.501C62.9837 300.185 62.9153 299.905 62.7786 299.663C62.6419 299.417 62.4505 299.226 62.2044 299.089C61.9583 298.952 61.6731 298.884 61.3489 298.884C61.0169 298.884 60.7298 298.952 60.4876 299.089C60.2493 299.226 60.0638 299.417 59.931 299.663C59.7981 299.905 59.7317 300.185 59.7317 300.501C59.7317 300.829 59.7962 301.11 59.9251 301.345C60.0579 301.575 60.2454 301.753 60.4876 301.878C60.7337 301.999 61.0247 302.06 61.3606 302.06C61.6966 302.06 61.9856 301.999 62.2278 301.878C62.47 301.753 62.6556 301.575 62.7845 301.345C62.9173 301.11 62.9837 300.829 62.9837 300.501ZM63.8743 296.522C63.8743 296.937 63.7649 297.31 63.5462 297.642C63.3274 297.974 63.0286 298.235 62.6497 298.427C62.2708 298.618 61.8411 298.714 61.3606 298.714C60.8724 298.714 60.4368 298.618 60.054 298.427C59.6751 298.235 59.3782 297.974 59.1634 297.642C58.9485 297.31 58.8411 296.937 58.8411 296.522C58.8411 296.026 58.9485 295.604 59.1634 295.257C59.3821 294.909 59.681 294.644 60.0599 294.46C60.4388 294.276 60.8704 294.185 61.3548 294.185C61.8431 294.185 62.2767 294.276 62.6556 294.46C63.0345 294.644 63.3313 294.909 63.5462 295.257C63.7649 295.604 63.8743 296.026 63.8743 296.522ZM62.7903 296.54C62.7903 296.255 62.7298 296.003 62.6087 295.784C62.4876 295.565 62.3196 295.394 62.1048 295.269C61.8899 295.14 61.6399 295.075 61.3548 295.075C61.0696 295.075 60.8196 295.136 60.6048 295.257C60.3938 295.374 60.2278 295.542 60.1067 295.761C59.9896 295.979 59.931 296.239 59.931 296.54C59.931 296.833 59.9896 297.089 60.1067 297.308C60.2278 297.526 60.3958 297.696 60.6106 297.817C60.8255 297.938 61.0755 297.999 61.3606 297.999C61.6458 297.999 61.8938 297.938 62.1048 297.817C62.3196 297.696 62.4876 297.526 62.6087 297.308C62.7298 297.089 62.7903 296.833 62.7903 296.54Z" fill="#1C1B1F"/>
</g>
<g clip-path="url(#clip32_556_7143)">
<path d="M88.9917 301.942V302.833H83.4077V302.054L86.2026 298.942C86.5463 298.56 86.812 298.235 86.9995 297.97C87.1909 297.7 87.3237 297.46 87.3979 297.249C87.476 297.034 87.5151 296.815 87.5151 296.593C87.5151 296.312 87.4565 296.058 87.3393 295.831C87.226 295.601 87.0581 295.417 86.8354 295.28C86.6127 295.144 86.3432 295.075 86.0268 295.075C85.6479 295.075 85.3315 295.149 85.0776 295.298C84.8276 295.442 84.6401 295.646 84.5151 295.907C84.3901 296.169 84.3276 296.47 84.3276 296.81H83.2436C83.2436 296.329 83.3491 295.89 83.56 295.491C83.7709 295.093 84.0834 294.776 84.4975 294.542C84.9116 294.304 85.4213 294.185 86.0268 294.185C86.5659 294.185 87.0268 294.28 87.4096 294.472C87.7924 294.659 88.0854 294.925 88.2885 295.269C88.4956 295.608 88.5991 296.007 88.5991 296.464C88.5991 296.714 88.5561 296.968 88.4702 297.226C88.3881 297.479 88.2729 297.733 88.1245 297.987C87.9799 298.241 87.81 298.491 87.6147 298.737C87.4233 298.983 87.2182 299.226 86.9995 299.464L84.7143 301.942H88.9917ZM91.6299 301.925H91.7413C92.3663 301.925 92.8741 301.837 93.2647 301.661C93.6553 301.485 93.9561 301.249 94.167 300.952C94.378 300.655 94.5225 300.321 94.6006 299.95C94.6788 299.575 94.7178 299.19 94.7178 298.796V297.489C94.7178 297.103 94.6729 296.759 94.5831 296.458C94.4971 296.157 94.376 295.905 94.2198 295.702C94.0674 295.499 93.8936 295.345 93.6983 295.239C93.503 295.134 93.2959 295.081 93.0772 295.081C92.8272 295.081 92.6026 295.132 92.4034 295.233C92.2081 295.331 92.042 295.47 91.9053 295.649C91.7725 295.829 91.6709 296.04 91.6006 296.282C91.5303 296.524 91.4952 296.788 91.4952 297.073C91.4952 297.327 91.5264 297.573 91.5889 297.812C91.6514 298.05 91.7471 298.265 91.876 298.456C92.0049 298.647 92.1651 298.8 92.3565 298.913C92.5518 299.022 92.7803 299.077 93.042 299.077C93.2842 299.077 93.5108 299.03 93.7217 298.937C93.9366 298.839 94.126 298.708 94.2901 298.544C94.4581 298.376 94.5909 298.187 94.6885 297.976C94.7901 297.765 94.8487 297.544 94.8643 297.313H95.3799C95.3799 297.638 95.3155 297.958 95.1866 298.274C95.0616 298.587 94.8858 298.872 94.6592 299.13C94.4327 299.388 94.167 299.595 93.8624 299.751C93.5577 299.903 93.2256 299.979 92.8663 299.979C92.4444 299.979 92.0792 299.897 91.7706 299.733C91.462 299.569 91.2081 299.351 91.0088 299.077C90.8135 298.804 90.667 298.499 90.5694 298.163C90.4756 297.823 90.4288 297.479 90.4288 297.132C90.4288 296.726 90.4854 296.345 90.5987 295.989C90.712 295.634 90.8799 295.321 91.1026 295.052C91.3252 294.778 91.6006 294.565 91.9288 294.413C92.2608 294.261 92.6436 294.185 93.0772 294.185C93.5655 294.185 93.9815 294.282 94.3252 294.478C94.669 294.673 94.9483 294.935 95.1631 295.263C95.3819 295.591 95.542 295.96 95.6436 296.37C95.7452 296.78 95.7959 297.202 95.7959 297.636V298.028C95.7959 298.47 95.7667 298.919 95.7081 299.376C95.6534 299.829 95.5459 300.263 95.3858 300.677C95.2295 301.091 95.001 301.462 94.7002 301.79C94.3995 302.114 94.0069 302.372 93.5225 302.563C93.042 302.751 92.4483 302.845 91.7413 302.845H91.6299V301.925Z" fill="#1C1B1F"/>
</g>
<g clip-path="url(#clip33_556_7143)">
<path d="M116.841 298.034H117.614C117.993 298.034 118.306 297.972 118.552 297.847C118.802 297.718 118.988 297.544 119.109 297.325C119.234 297.103 119.296 296.853 119.296 296.575C119.296 296.247 119.241 295.972 119.132 295.749C119.023 295.526 118.859 295.358 118.64 295.245C118.421 295.132 118.144 295.075 117.808 295.075C117.503 295.075 117.234 295.136 116.999 295.257C116.769 295.374 116.587 295.542 116.454 295.761C116.325 295.979 116.261 296.237 116.261 296.534H115.177C115.177 296.101 115.286 295.706 115.505 295.351C115.724 294.995 116.03 294.712 116.425 294.501C116.823 294.29 117.284 294.185 117.808 294.185C118.323 294.185 118.775 294.276 119.161 294.46C119.548 294.64 119.849 294.909 120.064 295.269C120.279 295.624 120.386 296.067 120.386 296.599C120.386 296.813 120.335 297.044 120.234 297.29C120.136 297.532 119.982 297.759 119.771 297.97C119.564 298.181 119.294 298.354 118.962 298.491C118.63 298.624 118.232 298.69 117.767 298.69H116.841V298.034ZM116.841 298.925V298.274H117.767C118.31 298.274 118.759 298.339 119.114 298.468C119.47 298.597 119.749 298.769 119.952 298.983C120.159 299.198 120.304 299.435 120.386 299.692C120.472 299.946 120.515 300.2 120.515 300.454C120.515 300.853 120.446 301.206 120.31 301.515C120.177 301.823 119.988 302.085 119.741 302.3C119.499 302.515 119.214 302.677 118.886 302.786C118.558 302.896 118.2 302.95 117.814 302.95C117.443 302.95 117.093 302.897 116.765 302.792C116.441 302.687 116.154 302.534 115.904 302.335C115.654 302.132 115.458 301.884 115.318 301.591C115.177 301.294 115.107 300.956 115.107 300.577H116.191C116.191 300.874 116.255 301.134 116.384 301.356C116.517 301.579 116.704 301.753 116.946 301.878C117.193 301.999 117.482 302.06 117.814 302.06C118.146 302.06 118.431 302.003 118.669 301.89C118.911 301.772 119.097 301.597 119.226 301.362C119.359 301.128 119.425 300.833 119.425 300.478C119.425 300.122 119.351 299.831 119.202 299.604C119.054 299.374 118.843 299.204 118.57 299.095C118.3 298.981 117.982 298.925 117.614 298.925H116.841ZM127.764 297.888V299.188C127.764 299.888 127.702 300.478 127.577 300.958C127.452 301.438 127.272 301.825 127.038 302.118C126.804 302.411 126.52 302.624 126.188 302.757C125.86 302.886 125.489 302.95 125.075 302.95C124.747 302.95 124.444 302.909 124.167 302.827C123.889 302.745 123.639 302.614 123.417 302.435C123.198 302.251 123.011 302.013 122.854 301.72C122.698 301.427 122.579 301.071 122.497 300.653C122.415 300.235 122.374 299.747 122.374 299.188V297.888C122.374 297.188 122.436 296.603 122.561 296.13C122.69 295.657 122.872 295.278 123.106 294.993C123.341 294.704 123.622 294.497 123.95 294.372C124.282 294.247 124.653 294.185 125.063 294.185C125.395 294.185 125.7 294.226 125.977 294.308C126.259 294.386 126.509 294.513 126.727 294.688C126.946 294.86 127.132 295.091 127.284 295.38C127.44 295.665 127.559 296.015 127.641 296.429C127.723 296.843 127.764 297.329 127.764 297.888ZM126.675 299.364V297.706C126.675 297.323 126.651 296.987 126.604 296.698C126.561 296.405 126.497 296.155 126.411 295.948C126.325 295.741 126.216 295.573 126.083 295.444C125.954 295.315 125.804 295.222 125.632 295.163C125.464 295.101 125.274 295.069 125.063 295.069C124.805 295.069 124.577 295.118 124.378 295.216C124.179 295.31 124.011 295.46 123.874 295.667C123.741 295.874 123.639 296.146 123.569 296.481C123.499 296.817 123.464 297.226 123.464 297.706V299.364C123.464 299.747 123.485 300.085 123.528 300.378C123.575 300.671 123.643 300.925 123.733 301.14C123.823 301.351 123.932 301.524 124.061 301.661C124.19 301.798 124.339 301.899 124.507 301.966C124.679 302.028 124.868 302.06 125.075 302.06C125.341 302.06 125.573 302.009 125.772 301.907C125.971 301.806 126.138 301.647 126.27 301.433C126.407 301.214 126.509 300.935 126.575 300.595C126.641 300.251 126.675 299.841 126.675 299.364Z" fill="#1C1B1F"/>
</g>
<g clip-path="url(#clip34_556_7143)">
<path d="M148.698 298.034H149.471C149.85 298.034 150.163 297.972 150.409 297.847C150.659 297.718 150.844 297.544 150.966 297.325C151.091 297.103 151.153 296.853 151.153 296.575C151.153 296.247 151.098 295.972 150.989 295.749C150.88 295.526 150.716 295.358 150.497 295.245C150.278 295.132 150.001 295.075 149.665 295.075C149.36 295.075 149.091 295.136 148.856 295.257C148.626 295.374 148.444 295.542 148.311 295.761C148.182 295.979 148.118 296.237 148.118 296.534H147.034C147.034 296.101 147.143 295.706 147.362 295.351C147.581 294.995 147.887 294.712 148.282 294.501C148.68 294.29 149.141 294.185 149.665 294.185C150.18 294.185 150.632 294.276 151.018 294.46C151.405 294.64 151.706 294.909 151.921 295.269C152.135 295.624 152.243 296.067 152.243 296.599C152.243 296.813 152.192 297.044 152.091 297.29C151.993 297.532 151.839 297.759 151.628 297.97C151.421 298.181 151.151 298.354 150.819 298.491C150.487 298.624 150.089 298.69 149.624 298.69H148.698V298.034ZM148.698 298.925V298.274H149.624C150.167 298.274 150.616 298.339 150.971 298.468C151.327 298.597 151.606 298.769 151.809 298.983C152.016 299.198 152.161 299.435 152.243 299.692C152.329 299.946 152.372 300.2 152.372 300.454C152.372 300.853 152.303 301.206 152.167 301.515C152.034 301.823 151.844 302.085 151.598 302.3C151.356 302.515 151.071 302.677 150.743 302.786C150.415 302.896 150.057 302.95 149.671 302.95C149.3 302.95 148.95 302.897 148.622 302.792C148.298 302.687 148.01 302.534 147.76 302.335C147.51 302.132 147.315 301.884 147.175 301.591C147.034 301.294 146.964 300.956 146.964 300.577H148.048C148.048 300.874 148.112 301.134 148.241 301.356C148.374 301.579 148.561 301.753 148.803 301.878C149.05 301.999 149.339 302.06 149.671 302.06C150.003 302.06 150.288 302.003 150.526 301.89C150.768 301.772 150.954 301.597 151.083 301.362C151.216 301.128 151.282 300.833 151.282 300.478C151.282 300.122 151.208 299.831 151.059 299.604C150.911 299.374 150.7 299.204 150.426 299.095C150.157 298.981 149.839 298.925 149.471 298.925H148.698ZM157.828 294.255V302.833H156.744V295.608L154.559 296.405V295.427L157.658 294.255H157.828Z" fill="#1C1B1F"/>
</g>
</g>
<defs>
<clipPath id="clip0_556_7143">
<rect width="243" height="314" rx="12" fill="white"/>
</clipPath>
<clipPath id="clip1_556_7143">
<rect x="187" y="20" width="40" height="40" rx="20" fill="white"/>
</clipPath>
<clipPath id="clip2_556_7143">
<rect x="139" y="84" width="40" height="40" rx="20" fill="white"/>
</clipPath>
<clipPath id="clip3_556_7143">
<rect x="187" y="84" width="40" height="40" rx="20" fill="white"/>
</clipPath>
<clipPath id="clip4_556_7143">
<rect x="69.6428" y="157.5" width="40" height="40" rx="20" fill="white"/>
</clipPath>
<clipPath id="clip5_556_7143">
<rect x="101.5" y="157.5" width="40" height="40" rx="20" fill="white"/>
</clipPath>
<clipPath id="clip6_556_7143">
<rect x="133.357" y="157.5" width="40" height="40" rx="20" fill="white"/>
</clipPath>
<clipPath id="clip7_556_7143">
<rect x="165.214" y="157.5" width="40" height="40" rx="20" fill="white"/>
</clipPath>
<clipPath id="clip8_556_7143">
<rect x="197.071" y="157.5" width="40" height="40" rx="20" fill="white"/>
</clipPath>
<clipPath id="clip9_556_7143">
<rect x="5.92847" y="187.833" width="40" height="40" rx="20" fill="white"/>
</clipPath>
<clipPath id="clip10_556_7143">
<rect x="37.7856" y="187.833" width="40" height="40" rx="20" fill="white"/>
</clipPath>
<clipPath id="clip11_556_7143">
<rect x="69.6428" y="187.833" width="40" height="40" rx="20" fill="white"/>
</clipPath>
<clipPath id="clip12_556_7143">
<rect x="101.5" y="187.833" width="40" height="40" rx="20" fill="white"/>
</clipPath>
<clipPath id="clip13_556_7143">
<rect x="133.357" y="187.833" width="40" height="40" rx="20" fill="white"/>
</clipPath>
<clipPath id="clip14_556_7143">
<rect x="165.214" y="187.833" width="40" height="40" rx="20" fill="white"/>
</clipPath>
<clipPath id="clip15_556_7143">
<rect x="197.071" y="187.833" width="40" height="40" rx="20" fill="white"/>
</clipPath>
<clipPath id="clip16_556_7143">
<rect x="5.92847" y="218.167" width="40" height="40" rx="20" fill="white"/>
</clipPath>
<clipPath id="clip17_556_7143">
<rect x="37.7856" y="218.167" width="40" height="40" rx="20" fill="white"/>
</clipPath>
<clipPath id="clip18_556_7143">
<rect x="69.6428" y="218.167" width="40" height="40" rx="20" fill="white"/>
</clipPath>
<clipPath id="clip19_556_7143">
<rect x="101.5" y="218.167" width="40" height="40" rx="20" fill="white"/>
</clipPath>
<clipPath id="clip20_556_7143">
<rect x="133.357" y="218.167" width="40" height="40" rx="20" fill="white"/>
</clipPath>
<clipPath id="clip21_556_7143">
<rect x="165.214" y="218.167" width="40" height="40" rx="20" fill="white"/>
</clipPath>
<clipPath id="clip22_556_7143">
<rect x="197.071" y="218.167" width="40" height="40" rx="20" fill="white"/>
</clipPath>
<clipPath id="clip23_556_7143">
<rect x="5.92847" y="248.5" width="40" height="40" rx="20" fill="white"/>
</clipPath>
<clipPath id="clip24_556_7143">
<rect x="37.7856" y="248.5" width="40" height="40" rx="20" fill="white"/>
</clipPath>
<clipPath id="clip25_556_7143">
<rect x="69.6428" y="248.5" width="40" height="40" rx="20" fill="white"/>
</clipPath>
<clipPath id="clip26_556_7143">
<rect x="101.5" y="248.5" width="40" height="40" rx="20" fill="white"/>
</clipPath>
<clipPath id="clip27_556_7143">
<rect x="133.357" y="248.5" width="40" height="40" rx="20" fill="white"/>
</clipPath>
<clipPath id="clip28_556_7143">
<rect x="165.214" y="248.5" width="40" height="40" rx="20" fill="white"/>
</clipPath>
<clipPath id="clip29_556_7143">
<rect x="197.071" y="248.5" width="40" height="40" rx="20" fill="white"/>
</clipPath>
<clipPath id="clip30_556_7143">
<rect x="5.92847" y="278.833" width="40" height="40" rx="20" fill="white"/>
</clipPath>
<clipPath id="clip31_556_7143">
<rect x="37.7856" y="278.833" width="40" height="40" rx="20" fill="white"/>
</clipPath>
<clipPath id="clip32_556_7143">
<rect x="69.6428" y="278.833" width="40" height="40" rx="20" fill="white"/>
</clipPath>
<clipPath id="clip33_556_7143">
<rect x="101.5" y="278.833" width="40" height="40" rx="20" fill="white"/>
</clipPath>
<clipPath id="clip34_556_7143">
<rect x="133.357" y="278.833" width="40" height="40" rx="20" fill="white"/>
</clipPath>
</defs>
</svg>
