<svg width="33" height="32" viewBox="0 0 33 32" fill="none" xmlns="http://www.w3.org/2000/svg">
<path d="M0.5 16C0.5 24.8366 7.66344 32 16.5 32C25.3366 32 32.5 24.8366 32.5 16C32.5 7.16344 25.3366 0 16.5 0C7.66344 0 0.5 7.16344 0.5 16Z" fill="#121933"/>
<path d="M16.5 9.2002C18.7 9.2002 19 9.2002 19.9 9.2002C20.7 9.2002 21.1 9.4002 21.4 9.5002C21.8 9.7002 22.1 9.8002 22.4 10.1002C22.7 10.4002 22.9 10.7002 23 11.1002C23.1 11.4002 23.2 11.8002 23.3 12.6002C23.3 13.5002 23.3 13.7002 23.3 16.0002C23.3 18.3002 23.3 18.5002 23.3 19.4002C23.3 20.2002 23.1 20.6002 23 20.9002C22.8 21.3002 22.7 21.6002 22.4 21.9002C22.1 22.2002 21.8 22.4002 21.4 22.5002C21.1 22.6002 20.7 22.7002 19.9 22.8002C19 22.8002 18.8 22.8002 16.5 22.8002C14.2 22.8002 14 22.8002 13.1 22.8002C12.3 22.8002 11.9 22.6002 11.6 22.5002C11.2 22.3002 10.9 22.2002 10.6 21.9002C10.3 21.6002 10.1 21.3002 10 20.9002C9.90001 20.6002 9.80001 20.2002 9.70001 19.4002C9.70001 18.5002 9.70001 18.3002 9.70001 16.0002C9.70001 13.7002 9.70001 13.5002 9.70001 12.6002C9.70001 11.8002 9.90001 11.4002 10 11.1002C10.2 10.7002 10.3 10.4002 10.6 10.1002C10.9 9.8002 11.2 9.6002 11.6 9.5002C11.9 9.4002 12.3 9.3002 13.1 9.2002C14 9.2002 14.3 9.2002 16.5 9.2002ZM16.5 7.7002C14.2 7.7002 14 7.7002 13.1 7.7002C12.2 7.7002 11.6 7.9002 11.1 8.1002C10.6 8.3002 10.1 8.6002 9.60001 9.1002C9.10001 9.6002 8.90001 10.0002 8.60001 10.6002C8.40001 11.1002 8.30001 11.7002 8.20001 12.6002C8.20001 13.5002 8.20001 13.8002 8.20001 16.0002C8.20001 18.3002 8.20001 18.5002 8.20001 19.4002C8.20001 20.3002 8.40001 20.9002 8.60001 21.4002C8.80001 21.9002 9.10001 22.4002 9.60001 22.9002C10.1 23.4002 10.5 23.6002 11.1 23.9002C11.6 24.1002 12.2 24.2002 13.1 24.3002C14 24.3002 14.3 24.3002 16.5 24.3002C18.7 24.3002 19 24.3002 19.9 24.3002C20.8 24.3002 21.4 24.1002 21.9 23.9002C22.4 23.7002 22.9 23.4002 23.4 22.9002C23.9 22.4002 24.1 22.0002 24.4 21.4002C24.6 20.9002 24.7 20.3002 24.8 19.4002C24.8 18.5002 24.8 18.2002 24.8 16.0002C24.8 13.8002 24.8 13.5002 24.8 12.6002C24.8 11.7002 24.6 11.1002 24.4 10.6002C24.2 10.1002 23.9 9.6002 23.4 9.1002C22.9 8.6002 22.5 8.4002 21.9 8.1002C21.4 7.9002 20.8 7.8002 19.9 7.7002C19 7.7002 18.8 7.7002 16.5 7.7002Z" fill="#FBFAFF"/>
<path d="M16.5 11.7002C14.1 11.7002 12.2 13.6002 12.2 16.0002C12.2 18.4002 14.1 20.3002 16.5 20.3002C18.9 20.3002 20.8 18.4002 20.8 16.0002C20.8 13.6002 18.9 11.7002 16.5 11.7002ZM16.5 18.8002C15 18.8002 13.7 17.6002 13.7 16.0002C13.7 14.5002 14.9 13.2002 16.5 13.2002C18 13.2002 19.3 14.4002 19.3 16.0002C19.3 17.5002 18 18.8002 16.5 18.8002Z" fill="#FBFAFF"/>
<path d="M20.9 12.6002C21.4523 12.6002 21.9 12.1525 21.9 11.6002C21.9 11.0479 21.4523 10.6002 20.9 10.6002C20.3477 10.6002 19.9 11.0479 19.9 11.6002C19.9 12.1525 20.3477 12.6002 20.9 12.6002Z" fill="#FBFAFF"/>
</svg>
