<svg width="15" height="15" viewBox="0 0 15 15" fill="none" xmlns="http://www.w3.org/2000/svg">
<g clip-path="url(#clip0_556_7281)">
<path d="M4.66477 5.06141L4.76475 5.05391C4.80095 5.05041 4.83558 5.03902 4.86545 5.02078C4.96115 5.30953 5.07756 5.61391 5.22396 5.93203C5.41179 6.34828 5.59676 6.69016 5.80387 7.02016L5.7753 6.97016C5.75816 7.19766 5.73745 7.43141 5.71031 7.65766C5.69842 7.79114 5.66747 7.92279 5.61818 8.04953L5.62175 8.03828C5.61318 8.04141 5.60104 9.33828 5.60104 9.33828C5.60131 9.74068 5.75628 10.1313 6.04102 10.4473C6.32576 10.7632 6.7237 10.9862 7.17079 11.0802L7.18507 11.0827C7.20493 11.0375 7.23989 10.9987 7.28538 10.9713C7.33088 10.9438 7.38478 10.9291 7.44003 10.9289H7.84996C7.90471 10.9296 7.95802 10.9443 8.00324 10.9713C8.04846 10.9983 8.08358 11.0364 8.10421 11.0808L8.10492 11.0827C8.5558 10.9914 8.95829 10.7697 9.2472 10.4533C9.53612 10.137 9.69454 9.74452 9.6968 9.33953C9.6968 9.33953 9.67181 8.04766 9.65895 8.03891C9.61639 7.9181 9.58721 7.79398 9.57182 7.66828L9.57111 7.65891C9.54611 7.43141 9.52969 7.20328 9.50612 6.97141C9.68252 6.69266 9.86749 6.35141 10.0303 5.99953L10.0575 5.93328C10.2039 5.61516 10.3174 5.31203 10.4167 5.02266C10.446 5.04089 10.4802 5.05229 10.516 5.05578L10.6174 5.06328C10.7388 5.07453 10.8459 4.98703 10.8559 4.85141L10.9645 3.64453V3.64328C10.9644 3.59472 10.9441 3.54783 10.9075 3.51137C10.8708 3.47492 10.8202 3.45138 10.7652 3.44516H10.7516C10.8467 2.81671 10.7878 2.17775 10.5788 1.57078L10.5881 1.60266C10.3866 1.21123 10.0803 0.868109 9.69499 0.602408C9.3097 0.336707 8.85685 0.156269 8.37488 0.0764063L8.35631 0.0739063C8.12263 0.032905 7.88538 0.00948619 7.64714 0.00390625H7.63214C7.38292 0.00781194 7.1347 0.0325071 6.89083 0.0776563L6.91654 0.0739063C6.43482 0.152157 5.98153 0.330255 5.59461 0.593294C5.20769 0.856332 4.8984 1.19666 4.69262 1.58578L4.68476 1.60266C4.47915 2.20728 4.42435 2.84351 4.52408 3.46828L4.52122 3.44516C4.46604 3.45038 4.41499 3.47322 4.37784 3.50931C4.34068 3.5454 4.32003 3.59221 4.31982 3.64078V3.64516L4.42838 4.85203C4.43838 4.99078 4.54693 5.07453 4.66405 5.06328L4.66477 5.06141Z" fill="#1E617A"/>
<path d="M15.296 13.0485C15.246 11.1485 15.0289 10.7185 14.9117 10.4273C14.8653 10.3104 14.8275 9.52039 13.3363 9.00789C12.4221 8.69289 11.2423 8.68664 10.2439 8.31727V9.34477C10.2429 9.87152 10.0326 10.3816 9.64898 10.7875C9.26539 11.1934 8.73243 11.47 8.14142 11.5698L8.12499 11.5723C8.11429 11.6277 8.08169 11.6781 8.03288 11.7146C7.98406 11.7512 7.92213 11.7716 7.8579 11.7723H7.84504V12.5473C7.84504 12.9109 8.01012 13.2597 8.30397 13.5169C8.59782 13.774 8.99636 13.9185 9.41193 13.9185C9.82749 13.9185 10.226 13.774 10.5199 13.5169C10.8137 13.2597 10.9788 12.9109 10.9788 12.5473V12.006C10.7631 11.9783 10.5665 11.8824 10.4262 11.7365C10.2858 11.5905 10.2114 11.4046 10.2172 11.2139C10.2229 11.0232 10.3082 10.8409 10.4571 10.7015C10.606 10.5622 10.8081 10.4754 11.0251 10.4577C11.2422 10.4399 11.4591 10.4924 11.635 10.6051C11.8108 10.7179 11.9333 10.8831 11.9793 11.0696C12.0253 11.2561 11.9917 11.4509 11.8847 11.6171C11.7777 11.7833 11.6048 11.9094 11.3987 11.9716L11.3923 11.9735V12.5766C11.3923 13.0365 11.1836 13.4774 10.8121 13.8026C10.4405 14.1277 9.93663 14.3104 9.41121 14.3104C8.88579 14.3104 8.38189 14.1277 8.01036 13.8026C7.63883 13.4774 7.43011 13.0365 7.43011 12.5766V12.5454V12.5466V11.7648C7.36895 11.7611 7.311 11.7395 7.26563 11.7034C7.22026 11.6674 7.19014 11.6189 7.18015 11.566V11.5648C6.58849 11.466 6.05448 11.1903 5.6696 10.7848C5.28471 10.3794 5.07292 9.86938 5.07049 9.34227V8.30664C4.0678 8.68352 2.88085 8.69102 1.96171 9.00664C0.466244 9.51852 0.431964 10.3066 0.386257 10.4254C0.27199 10.7179 0.0520262 11.146 0.00203436 13.0473C-0.00653567 13.2973 0.0020344 13.6804 0.863322 14.0154C2.73873 14.6591 5.15476 14.8591 7.53652 15.0029H7.76505C10.1518 14.8604 12.5643 14.661 14.4382 14.0154C15.296 13.6823 15.3038 13.301 15.296 13.0485ZM4.81125 12.2735H3.92139V13.0554H3.28578V12.276H2.39593V11.7198H3.28578V10.941H3.92139V11.7198H4.81125V12.2735Z" fill="#1E617A"/>
<path d="M11.5887 11.2281C11.5886 11.1165 11.5379 11.009 11.4477 10.9302C11.3576 10.8513 11.2353 10.8071 11.1079 10.8071C10.9805 10.8072 10.8583 10.8515 10.7682 10.9304C10.6781 11.0093 10.6274 11.1162 10.6274 11.2278C10.6274 11.3393 10.6781 11.4462 10.7682 11.5251C10.8583 11.604 10.9805 11.6483 11.1079 11.6484C11.2353 11.6484 11.3576 11.6042 11.4477 11.5253C11.5379 11.4465 11.5886 11.3396 11.5887 11.2281Z" fill="#FDCF6F"/>
</g>
<defs>
<clipPath id="clip0_556_7281">
<rect width="15" height="15" fill="white"/>
</clipPath>
</defs>
</svg>
