<svg width="20" height="21" viewBox="0 0 20 21" fill="none" xmlns="http://www.w3.org/2000/svg">
<g clip-path="url(#clip0_556_7167)">
<path d="M2.5 16.5532C2.0875 16.5532 1.73425 16.4065 1.44025 16.113C1.14675 15.819 1 15.4657 1 15.0532L1 4.55322C1 4.14072 1.14675 3.78747 1.44025 3.49347C1.73425 3.19997 2.0875 3.05322 2.5 3.05322L13 3.05322C13.4125 3.05322 13.7658 3.19997 14.0598 3.49347C14.3533 3.78747 14.5 4.14072 14.5 4.55322L14.5 8.79072C14.2625 8.67822 14.0187 8.58747 13.7687 8.51847C13.5187 8.44997 13.2625 8.39697 13 8.35947V4.55322L2.5 4.55322L2.5 11.3032H5.65C5.7625 11.6407 5.95 11.9345 6.2125 12.1845C6.475 12.4345 6.76875 12.6095 7.09375 12.7095C7.05625 12.9595 7.03125 13.2125 7.01875 13.4685C7.00625 13.725 7.01875 13.9782 7.05625 14.2282C6.60625 14.1407 6.18425 13.9752 5.79025 13.7317C5.39675 13.4877 5.05 13.1782 4.75 12.8032H2.5V15.0532L7.24375 15.0532C7.33125 15.3282 7.43125 15.5907 7.54375 15.8407C7.65625 16.0907 7.79375 16.3282 7.95625 16.5532H2.5ZM2.5 15.0532L7.24375 15.0532L2.5 15.0532ZM11.5187 17.3032L11.2938 16.1782C11.1438 16.1157 11.0033 16.0502 10.8723 15.9817C10.7408 15.9127 10.6063 15.8282 10.4687 15.7282L9.38125 16.0657L8.63125 14.7907L9.49375 14.0407C9.46875 13.8907 9.45625 13.7282 9.45625 13.5532C9.45625 13.3782 9.46875 13.2157 9.49375 13.0657L8.63125 12.3157L9.38125 11.0407L10.4687 11.3782C10.6063 11.2782 10.7408 11.1937 10.8723 11.1247C11.0033 11.0562 11.1438 10.9907 11.2938 10.9282L11.5187 9.80322H13.0187L13.2438 10.9282C13.3938 10.9907 13.5345 11.0562 13.666 11.1247C13.797 11.1937 13.9312 11.2782 14.0687 11.3782L15.1562 11.0407L15.9062 12.3157L15.0438 13.0657C15.0688 13.2157 15.0812 13.3782 15.0812 13.5532C15.0812 13.7282 15.0688 13.8907 15.0438 14.0407L15.9062 14.7907L15.1562 16.0657L14.0687 15.7282C13.9312 15.8282 13.797 15.9127 13.666 15.9817C13.5345 16.0502 13.3938 16.1157 13.2438 16.1782L13.0187 17.3032H11.5187ZM12.2687 15.0532C12.6812 15.0532 13.0345 14.9065 13.3285 14.613C13.622 14.319 13.7687 13.9657 13.7687 13.5532C13.7687 13.1407 13.622 12.7875 13.3285 12.4935C13.0345 12.2 12.6812 12.0532 12.2687 12.0532C11.8562 12.0532 11.5033 12.2 11.2098 12.4935C10.9158 12.7875 10.7687 13.1407 10.7687 13.5532C10.7687 13.9657 10.9158 14.319 11.2098 14.613C11.5033 14.9065 11.8562 15.0532 12.2687 15.0532Z" fill="#FDCF6F"/>
</g>
<defs>
<clipPath id="clip0_556_7167">
<rect width="20" height="20" fill="white" transform="translate(0 0.0532227)"/>
</clipPath>
</defs>
</svg>
