<svg width="19" height="21" viewBox="0 0 19 21" fill="#1E617A" xmlns="http://www.w3.org/2000/svg">
<path d="M0.14022 9.21998C0.760679 8.31387 1.58861 7.60051 2.54147 7.15103C2.02014 6.63214 1.65511 5.95396 1.49425 5.20542C1.33338 4.45688 1.3842 3.67293 1.64003 2.95636C1.89586 2.23979 2.34477 1.62406 2.92788 1.1899C3.51099 0.755746 4.20108 0.523437 4.90767 0.523437C5.61426 0.523437 6.30436 0.755746 6.88747 1.1899C7.47058 1.62406 7.91949 2.23979 8.17532 2.95636C8.43115 3.67293 8.48197 4.45688 8.3211 5.20542C8.16024 5.95396 7.79521 6.63214 7.27387 7.15103C7.96052 7.47588 8.58484 7.9384 9.11425 8.51444C9.64367 7.9384 10.268 7.47588 10.9546 7.15103C10.4333 6.63214 10.0683 5.95396 9.9074 5.20542C9.74654 4.45688 9.79735 3.67293 10.0532 2.95636C10.309 2.23979 10.7579 1.62406 11.341 1.1899C11.9241 0.755746 12.6142 0.523437 13.3208 0.523437C14.0274 0.523437 14.7175 0.755746 15.3006 1.1899C15.8837 1.62406 16.3326 2.23979 16.5885 2.95636C16.8443 3.67293 16.8951 4.45688 16.7343 5.20542C16.5734 5.95396 16.2084 6.63214 15.687 7.15103C16.6399 7.60051 17.4678 8.31387 18.0883 9.21998C18.1435 9.30012 18.1837 9.3913 18.2066 9.48833C18.2294 9.58536 18.2345 9.68634 18.2215 9.7855C18.2084 9.88466 18.1776 9.98006 18.1307 10.0662C18.0838 10.1524 18.0217 10.2277 17.9481 10.2878C17.7985 10.4068 17.6121 10.4574 17.4288 10.4289C17.2454 10.4004 17.0795 10.295 16.9665 10.1353C16.542 9.51954 15.9916 9.01976 15.3588 8.67555C14.7261 8.33134 14.0283 8.15214 13.3208 8.15214C12.6134 8.15214 11.9156 8.33134 11.2828 8.67555C10.65 9.01976 10.0996 9.51954 9.67513 10.1353L9.62255 10.1925H9.61378L9.56996 10.2402L9.54367 10.2592C9.54367 10.2618 9.54275 10.2642 9.54111 10.266C9.53946 10.2678 9.53724 10.2688 9.53491 10.2688L9.50862 10.2878L9.48233 10.3069L9.43851 10.3355H9.42098L9.272 10.3927H8.9828L8.91269 10.3736H8.8864L8.80752 10.3355L8.78123 10.3164C8.753 10.3007 8.72654 10.2815 8.70236 10.2592H8.69359L8.6673 10.2306H8.64978C8.63225 10.2116 8.61472 10.202 8.60596 10.183H8.59719L8.54461 10.1162C8.11928 9.50283 7.56874 9.00539 6.93643 8.66316C6.30412 8.32092 5.60735 8.14325 4.90111 8.14418C4.19487 8.1451 3.49849 8.32459 2.86694 8.66848C2.23538 9.01238 1.68594 9.51125 1.26197 10.1257C1.19759 10.2222 1.11332 10.301 1.01591 10.3556C0.918507 10.4102 0.810684 10.4393 0.701097 10.4404C0.549086 10.4425 0.40086 10.3888 0.280439 10.2878C0.206783 10.2277 0.14473 10.1524 0.0978212 10.0662C0.0509125 9.98006 0.0200673 9.88466 0.00704671 9.7855C-0.00597385 9.68634 -0.000914861 9.58536 0.021935 9.48833C0.0447848 9.3913 0.084978 9.30012 0.14022 9.21998ZM15.687 17.0668C16.2084 16.5479 16.5734 15.8697 16.7343 15.1212C16.8951 14.3726 16.8443 13.5887 16.5885 12.8721C16.3326 12.1555 15.8837 11.5398 15.3006 11.1056C14.7175 10.6715 14.0274 10.4392 13.3208 10.4392C12.6142 10.4392 11.9241 10.6715 11.341 11.1056C10.7579 11.5398 10.309 12.1555 10.0532 12.8721C9.79735 13.5887 9.74654 14.3726 9.9074 15.1212C10.0683 15.8697 10.4333 16.5479 10.9546 17.0668C10.268 17.3916 9.64367 17.8541 9.11425 18.4302C8.58484 17.8541 7.96052 17.3916 7.27387 17.0668C7.79521 16.5479 8.16024 15.8697 8.3211 15.1212C8.48197 14.3726 8.43115 13.5887 8.17532 12.8721C7.91949 12.1555 7.47058 11.5398 6.88747 11.1056C6.30436 10.6715 5.61426 10.4392 4.90767 10.4392C4.20108 10.4392 3.51099 10.6715 2.92788 11.1056C2.34477 11.5398 1.89586 12.1555 1.64003 12.8721C1.3842 13.5887 1.33338 14.3726 1.49425 15.1212C1.65511 15.8697 2.02014 16.5479 2.54147 17.0668C1.58861 17.5162 0.760679 18.2296 0.14022 19.1357C0.0620984 19.249 0.0145261 19.3838 0.00283325 19.5249C-0.00885962 19.6659 0.0157889 19.8078 0.074017 19.9345C0.132245 20.0612 0.221752 20.1677 0.332509 20.2422C0.443265 20.3167 0.570895 20.3561 0.701097 20.3561H17.5274C17.6576 20.3561 17.7852 20.3167 17.896 20.2422C18.0068 20.1677 18.0963 20.0612 18.1545 19.9345C18.2127 19.8078 18.2374 19.6659 18.2257 19.5249C18.214 19.3838 18.1664 19.249 18.0883 19.1357C17.4678 18.2296 16.6399 17.5162 15.687 17.0668Z" fill="#1E617A"/>
</svg>
