<svg width="15" height="15" viewBox="0 0 15 15" fill="none" xmlns="http://www.w3.org/2000/svg">
<path d="M3.08242 2.67871C2.54961 2.67871 2.03864 2.89037 1.66189 3.26711C1.28514 3.64386 1.07349 4.15484 1.07349 4.68764V5.08943H13.9285V4.68764C13.9285 4.15484 13.7168 3.64386 13.3401 3.26711C12.9633 2.89037 12.4524 2.67871 11.9196 2.67871H3.08242ZM1.07349 10.3126V5.893H13.9285V10.3126C13.9285 10.8454 13.7168 11.3564 13.3401 11.7332C12.9633 12.1099 12.4524 12.3216 11.9196 12.3216H3.08295C2.55015 12.3216 2.03917 12.1099 1.66242 11.7332C1.28568 11.3564 1.07402 10.8454 1.07402 10.3126H1.07349ZM9.7767 8.83943C9.67014 8.83943 9.56795 8.88176 9.4926 8.95711C9.41725 9.03246 9.37492 9.13465 9.37492 9.24121C9.37492 9.34777 9.41725 9.44997 9.4926 9.52532C9.56795 9.60067 9.67014 9.643 9.7767 9.643H11.6517C11.7583 9.643 11.8605 9.60067 11.9358 9.52532C12.0112 9.44997 12.0535 9.34777 12.0535 9.24121C12.0535 9.13465 12.0112 9.03246 11.9358 8.95711C11.8605 8.88176 11.7583 8.83943 11.6517 8.83943H9.7767Z" fill="#1E617A"/>
</svg>
