<svg width="21" height="21" viewBox="0 0 21 21" fill="none" xmlns="http://www.w3.org/2000/svg">
<path d="M6.60595 11.2327C7.78176 11.2327 8.72408 12.1842 8.72408 13.3683V16.2111C8.72408 17.387 7.78176 18.346 6.60595 18.346H3.78733C2.61985 18.346 1.66919 17.387 1.66919 16.2111L1.66919 13.3683C1.66919 12.1842 2.61985 11.2327 3.78733 11.2327L6.60595 11.2327ZM16.2294 11.2327C17.3969 11.2327 18.3475 12.1842 18.3475 13.3683V16.2111C18.3475 17.387 17.3969 18.346 16.2294 18.346H13.4108C12.2349 18.346 11.2926 17.387 11.2926 16.2111L11.2926 13.3683C11.2926 12.1842 12.2349 11.2327 13.4108 11.2327H16.2294ZM6.60595 1.66797C7.78176 1.66797 8.72408 2.62697 8.72408 3.80362V6.64642C8.72408 7.83058 7.78176 8.78124 6.60595 8.78124H3.78733C2.61985 8.78124 1.66919 7.83058 1.66919 6.64642L1.66919 3.80362C1.66919 2.62697 2.61985 1.66797 3.78733 1.66797L6.60595 1.66797ZM16.2294 1.66797C17.3969 1.66797 18.3475 2.62697 18.3475 3.80362V6.64642C18.3475 7.83058 17.3969 8.78124 16.2294 8.78124H13.4108C12.2349 8.78124 11.2926 7.83058 11.2926 6.64642L11.2926 3.80362C11.2926 2.62697 12.2349 1.66797 13.4108 1.66797L16.2294 1.66797Z" fill="#1E617A"/>
</svg>
