<svg width="282" height="513" viewBox="0 0 282 513" fill="none" xmlns="http://www.w3.org/2000/svg">
<g filter="url(#filter0_dd_556_7108)">
<rect x="16" y="8" width="250" height="481" rx="20" fill="white"/>
<path d="M77.988 47H75.468L69.762 38.378V47H67.242V34.418H69.762L75.468 43.058V34.418H77.988V47ZM84.9063 47.162C83.9463 47.162 83.0823 46.952 82.3143 46.532C81.5463 46.1 80.9403 45.494 80.4963 44.714C80.0643 43.934 79.8483 43.034 79.8483 42.014C79.8483 40.994 80.0703 40.094 80.5143 39.314C80.9703 38.534 81.5883 37.934 82.3683 37.514C83.1483 37.082 84.0183 36.866 84.9783 36.866C85.9383 36.866 86.8083 37.082 87.5883 37.514C88.3683 37.934 88.9803 38.534 89.4243 39.314C89.8803 40.094 90.1083 40.994 90.1083 42.014C90.1083 43.034 89.8743 43.934 89.4063 44.714C88.9503 45.494 88.3263 46.1 87.5343 46.532C86.7543 46.952 85.8783 47.162 84.9063 47.162ZM84.9063 44.966C85.3623 44.966 85.7883 44.858 86.1843 44.642C86.5923 44.414 86.9163 44.078 87.1563 43.634C87.3963 43.19 87.5163 42.65 87.5163 42.014C87.5163 41.066 87.2643 40.34 86.7603 39.836C86.2683 39.32 85.6623 39.062 84.9423 39.062C84.2223 39.062 83.6163 39.32 83.1243 39.836C82.6443 40.34 82.4043 41.066 82.4043 42.014C82.4043 42.962 82.6383 43.694 83.1063 44.21C83.5863 44.714 84.1863 44.966 84.9063 44.966ZM94.8908 39.098V43.922C94.8908 44.258 94.9688 44.504 95.1248 44.66C95.2928 44.804 95.5688 44.876 95.9528 44.876H97.1228V47H95.5388C93.4148 47 92.3528 45.968 92.3528 43.904V39.098H91.1648V37.028H92.3528V34.562H94.8908V37.028H97.1228V39.098H94.8908ZM108.205 41.798C108.205 42.158 108.181 42.482 108.133 42.77H100.843C100.903 43.49 101.155 44.054 101.599 44.462C102.043 44.87 102.589 45.074 103.237 45.074C104.173 45.074 104.839 44.672 105.235 43.868H107.953C107.665 44.828 107.113 45.62 106.297 46.244C105.481 46.856 104.479 47.162 103.291 47.162C102.331 47.162 101.467 46.952 100.699 46.532C99.9434 46.1 99.3494 45.494 98.9174 44.714C98.4974 43.934 98.2874 43.034 98.2874 42.014C98.2874 40.982 98.4974 40.076 98.9174 39.296C99.3374 38.516 99.9254 37.916 100.681 37.496C101.437 37.076 102.307 36.866 103.291 36.866C104.239 36.866 105.085 37.07 105.829 37.478C106.585 37.886 107.167 38.468 107.575 39.224C107.995 39.968 108.205 40.826 108.205 41.798ZM105.595 41.078C105.583 40.43 105.349 39.914 104.893 39.53C104.437 39.134 103.879 38.936 103.219 38.936C102.595 38.936 102.067 39.128 101.635 39.512C101.215 39.884 100.957 40.406 100.861 41.078H105.595ZM113.861 47.162C113.045 47.162 112.313 47.018 111.665 46.73C111.017 46.43 110.501 46.028 110.117 45.524C109.745 45.02 109.541 44.462 109.505 43.85H112.043C112.091 44.234 112.277 44.552 112.601 44.804C112.937 45.056 113.351 45.182 113.843 45.182C114.323 45.182 114.695 45.086 114.959 44.894C115.235 44.702 115.373 44.456 115.373 44.156C115.373 43.832 115.205 43.592 114.869 43.436C114.545 43.268 114.023 43.088 113.303 42.896C112.559 42.716 111.947 42.53 111.467 42.338C110.999 42.146 110.591 41.852 110.243 41.456C109.907 41.06 109.739 40.526 109.739 39.854C109.739 39.302 109.895 38.798 110.207 38.342C110.531 37.886 110.987 37.526 111.575 37.262C112.175 36.998 112.877 36.866 113.681 36.866C114.869 36.866 115.817 37.166 116.525 37.766C117.233 38.354 117.623 39.152 117.695 40.16H115.283C115.247 39.764 115.079 39.452 114.779 39.224C114.491 38.984 114.101 38.864 113.609 38.864C113.153 38.864 112.799 38.948 112.547 39.116C112.307 39.284 112.187 39.518 112.187 39.818C112.187 40.154 112.355 40.412 112.691 40.592C113.027 40.76 113.549 40.934 114.257 41.114C114.977 41.294 115.571 41.48 116.039 41.672C116.507 41.864 116.909 42.164 117.245 42.572C117.593 42.968 117.773 43.496 117.785 44.156C117.785 44.732 117.623 45.248 117.299 45.704C116.987 46.16 116.531 46.52 115.931 46.784C115.343 47.036 114.653 47.162 113.861 47.162Z" fill="black"/>
<rect x="38" y="400" width="206" height="42" rx="12" fill="#E7E7E7"/>
<path d="M127.402 416.146V419.818H131.722V421.492H127.402V425.326H132.262V427H125.35V414.472H132.262V416.146H127.402ZM134.105 421.996C134.105 421 134.309 420.118 134.717 419.35C135.137 418.582 135.701 417.988 136.409 417.568C137.129 417.136 137.927 416.92 138.803 416.92C139.451 416.92 140.087 417.064 140.711 417.352C141.347 417.628 141.851 418 142.223 418.468V413.68H144.293V427H142.223V425.506C141.887 425.986 141.419 426.382 140.819 426.694C140.231 427.006 139.553 427.162 138.785 427.162C137.921 427.162 137.129 426.946 136.409 426.514C135.701 426.07 135.137 425.458 134.717 424.678C134.309 423.886 134.105 422.992 134.105 421.996ZM142.223 422.032C142.223 421.348 142.079 420.754 141.791 420.25C141.515 419.746 141.149 419.362 140.693 419.098C140.237 418.834 139.745 418.702 139.217 418.702C138.689 418.702 138.197 418.834 137.741 419.098C137.285 419.35 136.913 419.728 136.625 420.232C136.349 420.724 136.211 421.312 136.211 421.996C136.211 422.68 136.349 423.28 136.625 423.796C136.913 424.312 137.285 424.708 137.741 424.984C138.209 425.248 138.701 425.38 139.217 425.38C139.745 425.38 140.237 425.248 140.693 424.984C141.149 424.72 141.515 424.336 141.791 423.832C142.079 423.316 142.223 422.716 142.223 422.032ZM148.033 415.768C147.661 415.768 147.349 415.642 147.097 415.39C146.845 415.138 146.719 414.826 146.719 414.454C146.719 414.082 146.845 413.77 147.097 413.518C147.349 413.266 147.661 413.14 148.033 413.14C148.393 413.14 148.699 413.266 148.951 413.518C149.203 413.77 149.329 414.082 149.329 414.454C149.329 414.826 149.203 415.138 148.951 415.39C148.699 415.642 148.393 415.768 148.033 415.768ZM149.041 417.082V427H146.989V417.082H149.041ZM154.129 418.756V424.246C154.129 424.618 154.213 424.888 154.381 425.056C154.561 425.212 154.861 425.29 155.281 425.29H156.541V427H154.921C153.997 427 153.289 426.784 152.797 426.352C152.305 425.92 152.059 425.218 152.059 424.246V418.756H150.889V417.082H152.059V414.616H154.129V417.082H156.541V418.756H154.129Z" fill="black"/>
<path d="M92.402 235.146V238.818H96.722V240.492H92.402V244.326H97.262V246H90.35V233.472H97.262V235.146H92.402ZM111.795 235.92C112.575 235.92 113.271 236.082 113.883 236.406C114.507 236.73 114.993 237.21 115.341 237.846C115.701 238.482 115.881 239.25 115.881 240.15V246H113.847V240.456C113.847 239.568 113.625 238.89 113.181 238.422C112.737 237.942 112.131 237.702 111.363 237.702C110.595 237.702 109.983 237.942 109.527 238.422C109.083 238.89 108.861 239.568 108.861 240.456V246H106.827V240.456C106.827 239.568 106.605 238.89 106.161 238.422C105.717 237.942 105.111 237.702 104.343 237.702C103.575 237.702 102.963 237.942 102.507 238.422C102.063 238.89 101.841 239.568 101.841 240.456V246H99.7895V236.082H101.841V237.216C102.177 236.808 102.603 236.49 103.119 236.262C103.635 236.034 104.187 235.92 104.775 235.92C105.567 235.92 106.275 236.088 106.899 236.424C107.523 236.76 108.003 237.246 108.339 237.882C108.639 237.282 109.107 236.808 109.743 236.46C110.379 236.1 111.063 235.92 111.795 235.92ZM120.545 237.54C120.893 237.084 121.367 236.7 121.967 236.388C122.567 236.076 123.245 235.92 124.001 235.92C124.865 235.92 125.651 236.136 126.359 236.568C127.079 236.988 127.643 237.582 128.051 238.35C128.459 239.118 128.663 240 128.663 240.996C128.663 241.992 128.459 242.886 128.051 243.678C127.643 244.458 127.079 245.07 126.359 245.514C125.651 245.946 124.865 246.162 124.001 246.162C123.245 246.162 122.573 246.012 121.985 245.712C121.397 245.4 120.917 245.016 120.545 244.56V250.716H118.493V236.082H120.545V237.54ZM126.575 240.996C126.575 240.312 126.431 239.724 126.143 239.232C125.867 238.728 125.495 238.35 125.027 238.098C124.571 237.834 124.079 237.702 123.551 237.702C123.035 237.702 122.543 237.834 122.075 238.098C121.619 238.362 121.247 238.746 120.959 239.25C120.683 239.754 120.545 240.348 120.545 241.032C120.545 241.716 120.683 242.316 120.959 242.832C121.247 243.336 121.619 243.72 122.075 243.984C122.543 244.248 123.035 244.38 123.551 244.38C124.079 244.38 124.571 244.248 125.027 243.984C125.495 243.708 125.867 243.312 126.143 242.796C126.431 242.28 126.575 241.68 126.575 240.996ZM133.086 237.756V243.246C133.086 243.618 133.17 243.888 133.338 244.056C133.518 244.212 133.818 244.29 134.238 244.29H135.498V246H133.878C132.954 246 132.246 245.784 131.754 245.352C131.262 244.92 131.016 244.218 131.016 243.246V237.756H129.846V236.082H131.016V233.616H133.086V236.082H135.498V237.756H133.086ZM146.317 236.082L140.233 250.662H138.109L140.125 245.838L136.219 236.082H138.505L141.295 243.642L144.193 236.082H146.317ZM157.545 235.92C158.325 235.92 159.021 236.082 159.633 236.406C160.257 236.73 160.743 237.21 161.091 237.846C161.439 238.482 161.613 239.25 161.613 240.15V246H159.579V240.456C159.579 239.568 159.357 238.89 158.913 238.422C158.469 237.942 157.863 237.702 157.095 237.702C156.327 237.702 155.715 237.942 155.259 238.422C154.815 238.89 154.593 239.568 154.593 240.456V246H152.541V236.082H154.593V237.216C154.929 236.808 155.355 236.49 155.871 236.262C156.399 236.034 156.957 235.92 157.545 235.92ZM168.533 246.162C167.597 246.162 166.751 245.952 165.995 245.532C165.239 245.1 164.645 244.5 164.213 243.732C163.781 242.952 163.565 242.052 163.565 241.032C163.565 240.024 163.787 239.13 164.231 238.35C164.675 237.57 165.281 236.97 166.049 236.55C166.817 236.13 167.675 235.92 168.623 235.92C169.571 235.92 170.429 236.13 171.197 236.55C171.965 236.97 172.571 237.57 173.015 238.35C173.459 239.13 173.681 240.024 173.681 241.032C173.681 242.04 173.453 242.934 172.997 243.714C172.541 244.494 171.917 245.1 171.125 245.532C170.345 245.952 169.481 246.162 168.533 246.162ZM168.533 244.38C169.061 244.38 169.553 244.254 170.009 244.002C170.477 243.75 170.855 243.372 171.143 242.868C171.431 242.364 171.575 241.752 171.575 241.032C171.575 240.312 171.437 239.706 171.161 239.214C170.885 238.71 170.519 238.332 170.063 238.08C169.607 237.828 169.115 237.702 168.587 237.702C168.059 237.702 167.567 237.828 167.111 238.08C166.667 238.332 166.313 238.71 166.049 239.214C165.785 239.706 165.653 240.312 165.653 241.032C165.653 242.1 165.923 242.928 166.463 243.516C167.015 244.092 167.705 244.38 168.533 244.38ZM178.103 237.756V243.246C178.103 243.618 178.187 243.888 178.355 244.056C178.535 244.212 178.835 244.29 179.255 244.29H180.515V246H178.895C177.971 246 177.263 245.784 176.771 245.352C176.279 244.92 176.033 244.218 176.033 243.246V237.756H174.863V236.082H176.033V233.616H178.103V236.082H180.515V237.756H178.103ZM191.497 240.798C191.497 241.17 191.473 241.506 191.425 241.806H183.847C183.907 242.598 184.201 243.234 184.729 243.714C185.257 244.194 185.905 244.434 186.673 244.434C187.777 244.434 188.557 243.972 189.013 243.048H191.227C190.927 243.96 190.381 244.71 189.589 245.298C188.809 245.874 187.837 246.162 186.673 246.162C185.725 246.162 184.873 245.952 184.117 245.532C183.373 245.1 182.785 244.5 182.353 243.732C181.933 242.952 181.723 242.052 181.723 241.032C181.723 240.012 181.927 239.118 182.335 238.35C182.755 237.57 183.337 236.97 184.081 236.55C184.837 236.13 185.701 235.92 186.673 235.92C187.609 235.92 188.443 236.124 189.175 236.532C189.907 236.94 190.477 237.516 190.885 238.26C191.293 238.992 191.497 239.838 191.497 240.798ZM189.355 240.15C189.343 239.394 189.073 238.788 188.545 238.332C188.017 237.876 187.363 237.648 186.583 237.648C185.875 237.648 185.269 237.876 184.765 238.332C184.261 238.776 183.961 239.382 183.865 240.15H189.355Z" fill="#DDD5D5"/>
</g>
<defs>
<filter id="filter0_dd_556_7108" x="0" y="0" width="282" height="513" filterUnits="userSpaceOnUse" color-interpolation-filters="sRGB">
<feFlood flood-opacity="0" result="BackgroundImageFix"/>
<feColorMatrix in="SourceAlpha" type="matrix" values="0 0 0 0 0 0 0 0 0 0 0 0 0 0 0 0 0 0 127 0" result="hardAlpha"/>
<feOffset dy="8"/>
<feGaussianBlur stdDeviation="8"/>
<feColorMatrix type="matrix" values="0 0 0 0 0.196487 0 0 0 0 0.196487 0 0 0 0 0.279476 0 0 0 0.06 0"/>
<feBlend mode="multiply" in2="BackgroundImageFix" result="effect1_dropShadow_556_7108"/>
<feColorMatrix in="SourceAlpha" type="matrix" values="0 0 0 0 0 0 0 0 0 0 0 0 0 0 0 0 0 0 127 0" result="hardAlpha"/>
<feOffset dy="8"/>
<feGaussianBlur stdDeviation="4"/>
<feColorMatrix type="matrix" values="0 0 0 0 0.196487 0 0 0 0 0.196487 0 0 0 0 0.279476 0 0 0 0.08 0"/>
<feBlend mode="multiply" in2="effect1_dropShadow_556_7108" result="effect2_dropShadow_556_7108"/>
<feBlend mode="normal" in="SourceGraphic" in2="effect2_dropShadow_556_7108" result="shape"/>
</filter>
</defs>
</svg>
