<svg width="928" height="478" viewBox="0 0 928 478" fill="none" xmlns="http://www.w3.org/2000/svg">
<g filter="url(#filter0_d_556_7076)">
<g clip-path="url(#clip0_556_7076)">
<rect x="70" y="70" width="768" height="318" rx="24" fill="white"/>
<line x1="89.5" y1="122.5" x2="776.5" y2="122.5" stroke="black" stroke-opacity="0.05" stroke-linecap="round"/>
<line x1="89.5" y1="162.5" x2="776.5" y2="162.5" stroke="black" stroke-opacity="0.05" stroke-linecap="round"/>
<line x1="89.5" y1="202.5" x2="776.5" y2="202.5" stroke="black" stroke-opacity="0.05" stroke-linecap="round"/>
<line x1="89.5" y1="242.5" x2="776.5" y2="242.5" stroke="black" stroke-opacity="0.05" stroke-linecap="round"/>
<line x1="89.5" y1="282.5" x2="776.5" y2="282.5" stroke="black" stroke-opacity="0.05" stroke-linecap="round"/>
<line x1="89.5" y1="322.5" x2="776.5" y2="322.5" stroke="black" stroke-opacity="0.05" stroke-linecap="round"/>
<g filter="url(#filter1_d_556_7076)">
<path d="M110 266.19C134.256 247.772 192.845 211.84 233.148 215.457C283.527 219.978 307.444 290.802 396.497 296.829C485.55 302.857 536.947 147.143 621.42 153.171C705.893 159.198 731.846 235.046 798 250.618" stroke="#252B42" stroke-width="4" stroke-linecap="round"/>
</g>
<g filter="url(#filter2_d_556_7076)">
<path d="M110 203.621C133.978 185.108 191.747 232.152 231.586 235.787C281.386 240.331 312.762 170.429 397.161 196.585C552.851 244.833 571.866 216.354 649.727 184.793C759 140.5 732.607 180.931 798 196.584" stroke="#FDCF6F" stroke-width="4" stroke-linecap="round"/>
</g>
<g filter="url(#filter3_d_556_7076)">
<circle cx="618" cy="153" r="8" fill="#242730"/>
<circle cx="618" cy="153" r="7" stroke="white" stroke-width="2"/>
</g>
<g filter="url(#filter4_d_556_7076)">
<rect x="578" y="94" width="80" height="47" rx="8" fill="#242730" shape-rendering="crispEdges"/>
<path d="M607.644 111.872V110.668L612.348 103.92H614.28V110.486H615.582V111.872H614.28V114H612.712V111.872H607.644ZM612.782 105.544L609.478 110.486H612.782V105.544ZM617.758 114.098C617.469 114.098 617.226 114 617.03 113.804C616.834 113.608 616.736 113.365 616.736 113.076C616.736 112.787 616.834 112.544 617.03 112.348C617.226 112.152 617.469 112.054 617.758 112.054C618.038 112.054 618.276 112.152 618.472 112.348C618.668 112.544 618.766 112.787 618.766 113.076C618.766 113.365 618.668 113.608 618.472 113.804C618.276 114 618.038 114.098 617.758 114.098ZM626.861 105.166H622.171V107.952C622.367 107.691 622.657 107.471 623.039 107.294C623.431 107.117 623.847 107.028 624.285 107.028C625.069 107.028 625.704 107.196 626.189 107.532C626.684 107.868 627.034 108.293 627.239 108.806C627.454 109.319 627.561 109.861 627.561 110.43C627.561 111.121 627.426 111.737 627.155 112.278C626.894 112.81 626.497 113.23 625.965 113.538C625.443 113.846 624.799 114 624.033 114C623.016 114 622.199 113.748 621.583 113.244C620.967 112.74 620.599 112.073 620.477 111.242H622.031C622.134 111.681 622.363 112.031 622.717 112.292C623.072 112.544 623.515 112.67 624.047 112.67C624.71 112.67 625.205 112.469 625.531 112.068C625.867 111.667 626.035 111.135 626.035 110.472C626.035 109.8 625.867 109.287 625.531 108.932C625.195 108.568 624.701 108.386 624.047 108.386C623.59 108.386 623.203 108.503 622.885 108.736C622.577 108.96 622.353 109.268 622.213 109.66H620.701V103.766H626.861V105.166Z" fill="white"/>
<path d="M606.516 126.084C606.516 126.78 606.276 127.36 605.796 127.824C605.324 128.28 604.6 128.508 603.624 128.508H602.016V132H600.924V123.636H603.624C604.568 123.636 605.284 123.864 605.772 124.32C606.268 124.776 606.516 125.364 606.516 126.084ZM603.624 127.608C604.232 127.608 604.68 127.476 604.968 127.212C605.256 126.948 605.4 126.572 605.4 126.084C605.4 125.052 604.808 124.536 603.624 124.536H602.016V127.608H603.624ZM610.741 132.108C610.125 132.108 609.565 131.968 609.061 131.688C608.565 131.408 608.173 131.012 607.885 130.5C607.605 129.98 607.465 129.38 607.465 128.7C607.465 128.028 607.609 127.436 607.897 126.924C608.193 126.404 608.593 126.008 609.097 125.736C609.601 125.456 610.165 125.316 610.789 125.316C611.413 125.316 611.977 125.456 612.481 125.736C612.985 126.008 613.381 126.4 613.669 126.912C613.965 127.424 614.113 128.02 614.113 128.7C614.113 129.38 613.961 129.98 613.657 130.5C613.361 131.012 612.957 131.408 612.445 131.688C611.933 131.968 611.365 132.108 610.741 132.108ZM610.741 131.148C611.133 131.148 611.501 131.056 611.845 130.872C612.189 130.688 612.465 130.412 612.673 130.044C612.889 129.676 612.997 129.228 612.997 128.7C612.997 128.172 612.893 127.724 612.685 127.356C612.477 126.988 612.205 126.716 611.869 126.54C611.533 126.356 611.169 126.264 610.777 126.264C610.377 126.264 610.009 126.356 609.673 126.54C609.345 126.716 609.081 126.988 608.881 127.356C608.681 127.724 608.581 128.172 608.581 128.7C608.581 129.236 608.677 129.688 608.869 130.056C609.069 130.424 609.333 130.7 609.661 130.884C609.989 131.06 610.349 131.148 610.741 131.148ZM616.113 124.356C615.905 124.356 615.729 124.284 615.585 124.14C615.441 123.996 615.369 123.82 615.369 123.612C615.369 123.404 615.441 123.228 615.585 123.084C615.729 122.94 615.905 122.868 616.113 122.868C616.313 122.868 616.481 122.94 616.617 123.084C616.761 123.228 616.833 123.404 616.833 123.612C616.833 123.82 616.761 123.996 616.617 124.14C616.481 124.284 616.313 124.356 616.113 124.356ZM616.641 125.424V132H615.549V125.424H616.641ZM621.706 125.304C622.506 125.304 623.154 125.548 623.65 126.036C624.146 126.516 624.394 127.212 624.394 128.124V132H623.314V128.28C623.314 127.624 623.15 127.124 622.822 126.78C622.494 126.428 622.046 126.252 621.478 126.252C620.902 126.252 620.442 126.432 620.098 126.792C619.762 127.152 619.594 127.676 619.594 128.364V132H618.502V125.424H619.594V126.36C619.81 126.024 620.102 125.764 620.47 125.58C620.846 125.396 621.258 125.304 621.706 125.304ZM627.51 126.324V130.2C627.51 130.52 627.578 130.748 627.714 130.884C627.85 131.012 628.086 131.076 628.422 131.076H629.226V132H628.242C627.634 132 627.178 131.86 626.874 131.58C626.57 131.3 626.418 130.84 626.418 130.2V126.324H625.566V125.424H626.418V123.768H627.51V125.424H629.226V126.324H627.51ZM632.877 132.108C632.373 132.108 631.921 132.024 631.521 131.856C631.121 131.68 630.805 131.44 630.573 131.136C630.341 130.824 630.213 130.468 630.189 130.068H631.317C631.349 130.396 631.501 130.664 631.773 130.872C632.053 131.08 632.417 131.184 632.865 131.184C633.281 131.184 633.609 131.092 633.849 130.908C634.089 130.724 634.209 130.492 634.209 130.212C634.209 129.924 634.081 129.712 633.825 129.576C633.569 129.432 633.173 129.292 632.637 129.156C632.149 129.028 631.749 128.9 631.437 128.772C631.133 128.636 630.869 128.44 630.645 128.184C630.429 127.92 630.321 127.576 630.321 127.152C630.321 126.816 630.421 126.508 630.621 126.228C630.821 125.948 631.105 125.728 631.473 125.568C631.841 125.4 632.261 125.316 632.733 125.316C633.461 125.316 634.049 125.5 634.497 125.868C634.945 126.236 635.185 126.74 635.217 127.38H634.125C634.101 127.036 633.961 126.76 633.705 126.552C633.457 126.344 633.121 126.24 632.697 126.24C632.305 126.24 631.993 126.324 631.761 126.492C631.529 126.66 631.413 126.88 631.413 127.152C631.413 127.368 631.481 127.548 631.617 127.692C631.761 127.828 631.937 127.94 632.145 128.028C632.361 128.108 632.657 128.2 633.033 128.304C633.505 128.432 633.889 128.56 634.185 128.688C634.481 128.808 634.733 128.992 634.941 129.24C635.157 129.488 635.269 129.812 635.277 130.212C635.277 130.572 635.177 130.896 634.977 131.184C634.777 131.472 634.493 131.7 634.125 131.868C633.765 132.028 633.349 132.108 632.877 132.108Z" fill="white"/>
</g>
<path d="M115.136 335.636V341.816C115.136 342.504 114.924 343.056 114.5 343.472C114.076 343.88 113.516 344.084 112.82 344.084C112.116 344.084 111.552 343.876 111.128 343.46C110.704 343.036 110.492 342.46 110.492 341.732H111.584C111.592 342.14 111.696 342.472 111.896 342.728C112.104 342.984 112.412 343.112 112.82 343.112C113.228 343.112 113.532 342.992 113.732 342.752C113.932 342.504 114.032 342.192 114.032 341.816V335.636H115.136ZM116.879 340.688C116.879 340.016 117.015 339.428 117.287 338.924C117.559 338.412 117.931 338.016 118.403 337.736C118.883 337.456 119.415 337.316 119.999 337.316C120.575 337.316 121.075 337.44 121.499 337.688C121.923 337.936 122.239 338.248 122.447 338.624V337.424H123.551V344H122.447V342.776C122.231 343.16 121.907 343.48 121.475 343.736C121.051 343.984 120.555 344.108 119.987 344.108C119.403 344.108 118.875 343.964 118.403 343.676C117.931 343.388 117.559 342.984 117.287 342.464C117.015 341.944 116.879 341.352 116.879 340.688ZM122.447 340.7C122.447 340.204 122.347 339.772 122.147 339.404C121.947 339.036 121.675 338.756 121.331 338.564C120.995 338.364 120.623 338.264 120.215 338.264C119.807 338.264 119.435 338.36 119.099 338.552C118.763 338.744 118.495 339.024 118.295 339.392C118.095 339.76 117.995 340.192 117.995 340.688C117.995 341.192 118.095 341.632 118.295 342.008C118.495 342.376 118.763 342.66 119.099 342.86C119.435 343.052 119.807 343.148 120.215 343.148C120.623 343.148 120.995 343.052 121.331 342.86C121.675 342.66 121.947 342.376 122.147 342.008C122.347 341.632 122.447 341.196 122.447 340.7ZM128.601 337.304C129.401 337.304 130.049 337.548 130.545 338.036C131.041 338.516 131.289 339.212 131.289 340.124V344H130.209V340.28C130.209 339.624 130.045 339.124 129.717 338.78C129.389 338.428 128.941 338.252 128.373 338.252C127.797 338.252 127.337 338.432 126.993 338.792C126.657 339.152 126.489 339.676 126.489 340.364V344H125.397V337.424H126.489V338.36C126.705 338.024 126.997 337.764 127.365 337.58C127.741 337.396 128.153 337.304 128.601 337.304Z" fill="#959BA5"/>
<path d="M176.652 335.636V336.524H173.016V339.344H175.968V340.232H173.016V344H171.924V335.636H176.652ZM183.971 340.46C183.971 340.668 183.959 340.888 183.935 341.12H178.679C178.719 341.768 178.939 342.276 179.339 342.644C179.747 343.004 180.239 343.184 180.815 343.184C181.287 343.184 181.679 343.076 181.991 342.86C182.311 342.636 182.535 342.34 182.663 341.972H183.839C183.663 342.604 183.311 343.12 182.783 343.52C182.255 343.912 181.599 344.108 180.815 344.108C180.191 344.108 179.631 343.968 179.135 343.688C178.647 343.408 178.263 343.012 177.983 342.5C177.703 341.98 177.563 341.38 177.563 340.7C177.563 340.02 177.699 339.424 177.971 338.912C178.243 338.4 178.623 338.008 179.111 337.736C179.607 337.456 180.175 337.316 180.815 337.316C181.439 337.316 181.991 337.452 182.471 337.724C182.951 337.996 183.319 338.372 183.575 338.852C183.839 339.324 183.971 339.86 183.971 340.46ZM182.843 340.232C182.843 339.816 182.751 339.46 182.567 339.164C182.383 338.86 182.131 338.632 181.811 338.48C181.499 338.32 181.151 338.24 180.767 338.24C180.215 338.24 179.743 338.416 179.351 338.768C178.967 339.12 178.747 339.608 178.691 340.232H182.843ZM186.504 338.648C186.728 338.256 187.056 337.936 187.488 337.688C187.92 337.44 188.412 337.316 188.964 337.316C189.556 337.316 190.088 337.456 190.56 337.736C191.032 338.016 191.404 338.412 191.676 338.924C191.948 339.428 192.084 340.016 192.084 340.688C192.084 341.352 191.948 341.944 191.676 342.464C191.404 342.984 191.028 343.388 190.548 343.676C190.076 343.964 189.548 344.108 188.964 344.108C188.396 344.108 187.896 343.984 187.464 343.736C187.04 343.488 186.72 343.172 186.504 342.788V344H185.412V335.12H186.504V338.648ZM190.968 340.688C190.968 340.192 190.868 339.76 190.668 339.392C190.468 339.024 190.196 338.744 189.852 338.552C189.516 338.36 189.144 338.264 188.736 338.264C188.336 338.264 187.964 338.364 187.62 338.564C187.284 338.756 187.012 339.04 186.804 339.416C186.604 339.784 186.504 340.212 186.504 340.7C186.504 341.196 186.604 341.632 186.804 342.008C187.012 342.376 187.284 342.66 187.62 342.86C187.964 343.052 188.336 343.148 188.736 343.148C189.144 343.148 189.516 343.052 189.852 342.86C190.196 342.66 190.468 342.376 190.668 342.008C190.868 341.632 190.968 341.192 190.968 340.688Z" fill="#959BA5"/>
<path d="M240.408 335.696V344H239.316V337.808L236.556 344H235.788L233.016 337.796V344H231.924V335.696H233.1L236.172 342.56L239.244 335.696H240.408ZM241.852 340.688C241.852 340.016 241.988 339.428 242.26 338.924C242.532 338.412 242.904 338.016 243.376 337.736C243.856 337.456 244.388 337.316 244.972 337.316C245.548 337.316 246.048 337.44 246.472 337.688C246.896 337.936 247.212 338.248 247.42 338.624V337.424H248.524V344H247.42V342.776C247.204 343.16 246.88 343.48 246.448 343.736C246.024 343.984 245.528 344.108 244.96 344.108C244.376 344.108 243.848 343.964 243.376 343.676C242.904 343.388 242.532 342.984 242.26 342.464C241.988 341.944 241.852 341.352 241.852 340.688ZM247.42 340.7C247.42 340.204 247.32 339.772 247.12 339.404C246.92 339.036 246.648 338.756 246.304 338.564C245.968 338.364 245.596 338.264 245.188 338.264C244.78 338.264 244.408 338.36 244.072 338.552C243.736 338.744 243.468 339.024 243.268 339.392C243.068 339.76 242.968 340.192 242.968 340.688C242.968 341.192 243.068 341.632 243.268 342.008C243.468 342.376 243.736 342.66 244.072 342.86C244.408 343.052 244.78 343.148 245.188 343.148C245.596 343.148 245.968 343.052 246.304 342.86C246.648 342.66 246.92 342.376 247.12 342.008C247.32 341.632 247.42 341.196 247.42 340.7ZM251.461 338.492C251.653 338.116 251.925 337.824 252.277 337.616C252.637 337.408 253.073 337.304 253.585 337.304V338.432H253.297C252.073 338.432 251.461 339.096 251.461 340.424V344H250.369V337.424H251.461V338.492Z" fill="#959BA5"/>
<path d="M297.868 342.14H294.22L293.548 344H292.396L295.42 335.684H296.68L299.692 344H298.54L297.868 342.14ZM297.556 341.252L296.044 337.028L294.532 341.252H297.556ZM302.102 338.636C302.318 338.26 302.638 337.948 303.062 337.7C303.494 337.444 303.994 337.316 304.562 337.316C305.146 337.316 305.674 337.456 306.146 337.736C306.626 338.016 307.002 338.412 307.274 338.924C307.546 339.428 307.682 340.016 307.682 340.688C307.682 341.352 307.546 341.944 307.274 342.464C307.002 342.984 306.626 343.388 306.146 343.676C305.674 343.964 305.146 344.108 304.562 344.108C304.002 344.108 303.506 343.984 303.074 343.736C302.65 343.48 302.326 343.164 302.102 342.788V347.12H301.01V337.424H302.102V338.636ZM306.566 340.688C306.566 340.192 306.466 339.76 306.266 339.392C306.066 339.024 305.794 338.744 305.45 338.552C305.114 338.36 304.742 338.264 304.334 338.264C303.934 338.264 303.562 338.364 303.218 338.564C302.882 338.756 302.61 339.04 302.402 339.416C302.202 339.784 302.102 340.212 302.102 340.7C302.102 341.196 302.202 341.632 302.402 342.008C302.61 342.376 302.882 342.66 303.218 342.86C303.562 343.052 303.934 343.148 304.334 343.148C304.742 343.148 305.114 343.052 305.45 342.86C305.794 342.66 306.066 342.376 306.266 342.008C306.466 341.632 306.566 341.192 306.566 340.688ZM310.211 338.492C310.403 338.116 310.675 337.824 311.027 337.616C311.387 337.408 311.823 337.304 312.335 337.304V338.432H312.047C310.823 338.432 310.211 339.096 310.211 340.424V344H309.119V337.424H310.211V338.492Z" fill="#959BA5"/>
<path d="M360.408 335.696V344H359.316V337.808L356.556 344H355.788L353.016 337.796V344H351.924V335.696H353.1L356.172 342.56L359.244 335.696H360.408ZM361.852 340.688C361.852 340.016 361.988 339.428 362.26 338.924C362.532 338.412 362.904 338.016 363.376 337.736C363.856 337.456 364.388 337.316 364.972 337.316C365.548 337.316 366.048 337.44 366.472 337.688C366.896 337.936 367.212 338.248 367.42 338.624V337.424H368.524V344H367.42V342.776C367.204 343.16 366.88 343.48 366.448 343.736C366.024 343.984 365.528 344.108 364.96 344.108C364.376 344.108 363.848 343.964 363.376 343.676C362.904 343.388 362.532 342.984 362.26 342.464C361.988 341.944 361.852 341.352 361.852 340.688ZM367.42 340.7C367.42 340.204 367.32 339.772 367.12 339.404C366.92 339.036 366.648 338.756 366.304 338.564C365.968 338.364 365.596 338.264 365.188 338.264C364.78 338.264 364.408 338.36 364.072 338.552C363.736 338.744 363.468 339.024 363.268 339.392C363.068 339.76 362.968 340.192 362.968 340.688C362.968 341.192 363.068 341.632 363.268 342.008C363.468 342.376 363.736 342.66 364.072 342.86C364.408 343.052 364.78 343.148 365.188 343.148C365.596 343.148 365.968 343.052 366.304 342.86C366.648 342.66 366.92 342.376 367.12 342.008C367.32 341.632 367.42 341.196 367.42 340.7ZM376.033 337.424L372.073 347.096H370.945L372.241 343.928L369.589 337.424H370.801L372.865 342.752L374.905 337.424H376.033Z" fill="#959BA5"/>
<path d="M420.136 335.636V341.816C420.136 342.504 419.924 343.056 419.5 343.472C419.076 343.88 418.516 344.084 417.82 344.084C417.116 344.084 416.552 343.876 416.128 343.46C415.704 343.036 415.492 342.46 415.492 341.732H416.584C416.592 342.14 416.696 342.472 416.896 342.728C417.104 342.984 417.412 343.112 417.82 343.112C418.228 343.112 418.532 342.992 418.732 342.752C418.932 342.504 419.032 342.192 419.032 341.816V335.636H420.136ZM428.119 337.424V344H427.027V343.028C426.819 343.364 426.527 343.628 426.151 343.82C425.783 344.004 425.375 344.096 424.927 344.096C424.415 344.096 423.955 343.992 423.547 343.784C423.139 343.568 422.815 343.248 422.575 342.824C422.343 342.4 422.227 341.884 422.227 341.276V337.424H423.307V341.132C423.307 341.78 423.471 342.28 423.799 342.632C424.127 342.976 424.575 343.148 425.143 343.148C425.727 343.148 426.187 342.968 426.523 342.608C426.859 342.248 427.027 341.724 427.027 341.036V337.424H428.119ZM433.167 337.304C433.967 337.304 434.615 337.548 435.111 338.036C435.607 338.516 435.855 339.212 435.855 340.124V344H434.775V340.28C434.775 339.624 434.611 339.124 434.283 338.78C433.955 338.428 433.507 338.252 432.939 338.252C432.363 338.252 431.903 338.432 431.559 338.792C431.223 339.152 431.055 339.676 431.055 340.364V344H429.963V337.424H431.055V338.36C431.271 338.024 431.563 337.764 431.931 337.58C432.307 337.396 432.719 337.304 433.167 337.304Z" fill="#959BA5"/>
<path d="M480.136 335.636V341.816C480.136 342.504 479.924 343.056 479.5 343.472C479.076 343.88 478.516 344.084 477.82 344.084C477.116 344.084 476.552 343.876 476.128 343.46C475.704 343.036 475.492 342.46 475.492 341.732H476.584C476.592 342.14 476.696 342.472 476.896 342.728C477.104 342.984 477.412 343.112 477.82 343.112C478.228 343.112 478.532 342.992 478.732 342.752C478.932 342.504 479.032 342.192 479.032 341.816V335.636H480.136ZM488.119 337.424V344H487.027V343.028C486.819 343.364 486.527 343.628 486.151 343.82C485.783 344.004 485.375 344.096 484.927 344.096C484.415 344.096 483.955 343.992 483.547 343.784C483.139 343.568 482.815 343.248 482.575 342.824C482.343 342.4 482.227 341.884 482.227 341.276V337.424H483.307V341.132C483.307 341.78 483.471 342.28 483.799 342.632C484.127 342.976 484.575 343.148 485.143 343.148C485.727 343.148 486.187 342.968 486.523 342.608C486.859 342.248 487.027 341.724 487.027 341.036V337.424H488.119ZM491.055 335.12V344H489.963V335.12H491.055Z" fill="#959BA5"/>
<path d="M535.868 342.14H532.22L531.548 344H530.396L533.42 335.684H534.68L537.692 344H536.54L535.868 342.14ZM535.556 341.252L534.044 337.028L532.532 341.252H535.556ZM544.842 337.424V344H543.75V343.028C543.542 343.364 543.25 343.628 542.874 343.82C542.506 344.004 542.098 344.096 541.65 344.096C541.138 344.096 540.678 343.992 540.27 343.784C539.862 343.568 539.538 343.248 539.298 342.824C539.066 342.4 538.95 341.884 538.95 341.276V337.424H540.03V341.132C540.03 341.78 540.194 342.28 540.522 342.632C540.85 342.976 541.298 343.148 541.866 343.148C542.45 343.148 542.91 342.968 543.246 342.608C543.582 342.248 543.75 341.724 543.75 341.036V337.424H544.842ZM549.398 337.316C549.966 337.316 550.462 337.44 550.886 337.688C551.318 337.936 551.638 338.248 551.846 338.624V337.424H552.95V344.144C552.95 344.744 552.822 345.276 552.566 345.74C552.31 346.212 551.942 346.58 551.462 346.844C550.99 347.108 550.438 347.24 549.806 347.24C548.942 347.24 548.222 347.036 547.646 346.628C547.07 346.22 546.73 345.664 546.626 344.96H547.706C547.826 345.36 548.074 345.68 548.45 345.92C548.826 346.168 549.278 346.292 549.806 346.292C550.406 346.292 550.894 346.104 551.27 345.728C551.654 345.352 551.846 344.824 551.846 344.144V342.764C551.63 343.148 551.31 343.468 550.886 343.724C550.462 343.98 549.966 344.108 549.398 344.108C548.814 344.108 548.282 343.964 547.802 343.676C547.33 343.388 546.958 342.984 546.686 342.464C546.414 341.944 546.278 341.352 546.278 340.688C546.278 340.016 546.414 339.428 546.686 338.924C546.958 338.412 547.33 338.016 547.802 337.736C548.282 337.456 548.814 337.316 549.398 337.316ZM551.846 340.7C551.846 340.204 551.746 339.772 551.546 339.404C551.346 339.036 551.074 338.756 550.73 338.564C550.394 338.364 550.022 338.264 549.614 338.264C549.206 338.264 548.834 338.36 548.498 338.552C548.162 338.744 547.894 339.024 547.694 339.392C547.494 339.76 547.394 340.192 547.394 340.688C547.394 341.192 547.494 341.632 547.694 342.008C547.894 342.376 548.162 342.66 548.498 342.86C548.834 343.052 549.206 343.148 549.614 343.148C550.022 343.148 550.394 343.052 550.73 342.86C551.074 342.66 551.346 342.376 551.546 342.008C551.746 341.632 551.846 341.196 551.846 340.7Z" fill="#959BA5"/>
<path d="M595.576 344.084C595.024 344.084 594.528 343.988 594.088 343.796C593.656 343.596 593.316 343.324 593.068 342.98C592.82 342.628 592.692 342.224 592.684 341.768H593.848C593.888 342.16 594.048 342.492 594.328 342.764C594.616 343.028 595.032 343.16 595.576 343.16C596.096 343.16 596.504 343.032 596.8 342.776C597.104 342.512 597.256 342.176 597.256 341.768C597.256 341.448 597.168 341.188 596.992 340.988C596.816 340.788 596.596 340.636 596.332 340.532C596.068 340.428 595.712 340.316 595.264 340.196C594.712 340.052 594.268 339.908 593.932 339.764C593.604 339.62 593.32 339.396 593.08 339.092C592.848 338.78 592.732 338.364 592.732 337.844C592.732 337.388 592.848 336.984 593.08 336.632C593.312 336.28 593.636 336.008 594.052 335.816C594.476 335.624 594.96 335.528 595.504 335.528C596.288 335.528 596.928 335.724 597.424 336.116C597.928 336.508 598.212 337.028 598.276 337.676H597.076C597.036 337.356 596.868 337.076 596.572 336.836C596.276 336.588 595.884 336.464 595.396 336.464C594.94 336.464 594.568 336.584 594.28 336.824C593.992 337.056 593.848 337.384 593.848 337.808C593.848 338.112 593.932 338.36 594.1 338.552C594.276 338.744 594.488 338.892 594.736 338.996C594.992 339.092 595.348 339.204 595.804 339.332C596.356 339.484 596.8 339.636 597.136 339.788C597.472 339.932 597.76 340.16 598 340.472C598.24 340.776 598.36 341.192 598.36 341.72C598.36 342.128 598.252 342.512 598.036 342.872C597.82 343.232 597.5 343.524 597.076 343.748C596.652 343.972 596.152 344.084 595.576 344.084ZM605.967 340.46C605.967 340.668 605.955 340.888 605.931 341.12H600.675C600.715 341.768 600.935 342.276 601.335 342.644C601.743 343.004 602.235 343.184 602.811 343.184C603.283 343.184 603.675 343.076 603.987 342.86C604.307 342.636 604.531 342.34 604.659 341.972H605.835C605.659 342.604 605.307 343.12 604.779 343.52C604.251 343.912 603.595 344.108 602.811 344.108C602.187 344.108 601.627 343.968 601.131 343.688C600.643 343.408 600.259 343.012 599.979 342.5C599.699 341.98 599.559 341.38 599.559 340.7C599.559 340.02 599.695 339.424 599.967 338.912C600.239 338.4 600.619 338.008 601.107 337.736C601.603 337.456 602.171 337.316 602.811 337.316C603.435 337.316 603.987 337.452 604.467 337.724C604.947 337.996 605.315 338.372 605.571 338.852C605.835 339.324 605.967 339.86 605.967 340.46ZM604.839 340.232C604.839 339.816 604.747 339.46 604.563 339.164C604.379 338.86 604.127 338.632 603.807 338.48C603.495 338.32 603.147 338.24 602.763 338.24C602.211 338.24 601.739 338.416 601.347 338.768C600.963 339.12 600.743 339.608 600.687 340.232H604.839ZM608.5 338.636C608.716 338.26 609.036 337.948 609.46 337.7C609.892 337.444 610.392 337.316 610.96 337.316C611.544 337.316 612.072 337.456 612.544 337.736C613.024 338.016 613.4 338.412 613.672 338.924C613.944 339.428 614.08 340.016 614.08 340.688C614.08 341.352 613.944 341.944 613.672 342.464C613.4 342.984 613.024 343.388 612.544 343.676C612.072 343.964 611.544 344.108 610.96 344.108C610.4 344.108 609.904 343.984 609.472 343.736C609.048 343.48 608.724 343.164 608.5 342.788V347.12H607.408V337.424H608.5V338.636ZM612.964 340.688C612.964 340.192 612.864 339.76 612.664 339.392C612.464 339.024 612.192 338.744 611.848 338.552C611.512 338.36 611.14 338.264 610.732 338.264C610.332 338.264 609.96 338.364 609.616 338.564C609.28 338.756 609.008 339.04 608.8 339.416C608.6 339.784 608.5 340.212 608.5 340.7C608.5 341.196 608.6 341.632 608.8 342.008C609.008 342.376 609.28 342.66 609.616 342.86C609.96 343.052 610.332 343.148 610.732 343.148C611.14 343.148 611.512 343.052 611.848 342.86C612.192 342.66 612.464 342.376 612.664 342.008C612.864 341.632 612.964 341.192 612.964 340.688Z" fill="#959BA5"/>
<path d="M657.716 344.084C656.94 344.084 656.232 343.904 655.592 343.544C654.952 343.176 654.444 342.668 654.068 342.02C653.7 341.364 653.516 340.628 653.516 339.812C653.516 338.996 653.7 338.264 654.068 337.616C654.444 336.96 654.952 336.452 655.592 336.092C656.232 335.724 656.94 335.54 657.716 335.54C658.5 335.54 659.212 335.724 659.852 336.092C660.492 336.452 660.996 336.956 661.364 337.604C661.732 338.252 661.916 338.988 661.916 339.812C661.916 340.636 661.732 341.372 661.364 342.02C660.996 342.668 660.492 343.176 659.852 343.544C659.212 343.904 658.5 344.084 657.716 344.084ZM657.716 343.136C658.3 343.136 658.824 343 659.288 342.728C659.76 342.456 660.128 342.068 660.392 341.564C660.664 341.06 660.8 340.476 660.8 339.812C660.8 339.14 660.664 338.556 660.392 338.06C660.128 337.556 659.764 337.168 659.3 336.896C658.836 336.624 658.308 336.488 657.716 336.488C657.124 336.488 656.596 336.624 656.132 336.896C655.668 337.168 655.3 337.556 655.028 338.06C654.764 338.556 654.632 339.14 654.632 339.812C654.632 340.476 654.764 341.06 655.028 341.564C655.3 342.068 655.668 342.456 656.132 342.728C656.604 343 657.132 343.136 657.716 343.136ZM662.95 340.7C662.95 340.02 663.086 339.428 663.358 338.924C663.63 338.412 664.006 338.016 664.486 337.736C664.974 337.456 665.53 337.316 666.154 337.316C666.962 337.316 667.626 337.512 668.146 337.904C668.674 338.296 669.022 338.84 669.19 339.536H668.014C667.902 339.136 667.682 338.82 667.354 338.588C667.034 338.356 666.634 338.24 666.154 338.24C665.53 338.24 665.026 338.456 664.642 338.888C664.258 339.312 664.066 339.916 664.066 340.7C664.066 341.492 664.258 342.104 664.642 342.536C665.026 342.968 665.53 343.184 666.154 343.184C666.634 343.184 667.034 343.072 667.354 342.848C667.674 342.624 667.894 342.304 668.014 341.888H669.19C669.014 342.56 668.662 343.1 668.134 343.508C667.606 343.908 666.946 344.108 666.154 344.108C665.53 344.108 664.974 343.968 664.486 343.688C664.006 343.408 663.63 343.012 663.358 342.5C663.086 341.988 662.95 341.388 662.95 340.7ZM671.979 338.324V342.2C671.979 342.52 672.047 342.748 672.183 342.884C672.319 343.012 672.555 343.076 672.891 343.076H673.695V344H672.711C672.103 344 671.647 343.86 671.343 343.58C671.039 343.3 670.887 342.84 670.887 342.2V338.324H670.035V337.424H670.887V335.768H671.979V337.424H673.695V338.324H671.979Z" fill="#959BA5"/>
<path d="M720.5 344H719.408L715.016 337.34V344H713.924V335.624H715.016L719.408 342.272V335.624H720.5V344ZM725.23 344.108C724.614 344.108 724.054 343.968 723.55 343.688C723.054 343.408 722.662 343.012 722.374 342.5C722.094 341.98 721.954 341.38 721.954 340.7C721.954 340.028 722.098 339.436 722.386 338.924C722.682 338.404 723.082 338.008 723.586 337.736C724.09 337.456 724.654 337.316 725.278 337.316C725.902 337.316 726.466 337.456 726.97 337.736C727.474 338.008 727.87 338.4 728.158 338.912C728.454 339.424 728.602 340.02 728.602 340.7C728.602 341.38 728.45 341.98 728.146 342.5C727.85 343.012 727.446 343.408 726.934 343.688C726.422 343.968 725.854 344.108 725.23 344.108ZM725.23 343.148C725.622 343.148 725.99 343.056 726.334 342.872C726.678 342.688 726.954 342.412 727.162 342.044C727.378 341.676 727.486 341.228 727.486 340.7C727.486 340.172 727.382 339.724 727.174 339.356C726.966 338.988 726.694 338.716 726.358 338.54C726.022 338.356 725.658 338.264 725.266 338.264C724.866 338.264 724.498 338.356 724.162 338.54C723.834 338.716 723.57 338.988 723.37 339.356C723.17 339.724 723.07 340.172 723.07 340.7C723.07 341.236 723.166 341.688 723.358 342.056C723.558 342.424 723.822 342.7 724.15 342.884C724.478 343.06 724.838 343.148 725.23 343.148ZM732.485 342.992L734.525 337.424H735.689L733.109 344H731.837L729.257 337.424H730.433L732.485 342.992Z" fill="#959BA5"/>
<path d="M777.528 335.636C778.44 335.636 779.228 335.808 779.892 336.152C780.564 336.488 781.076 336.972 781.428 337.604C781.788 338.236 781.968 338.98 781.968 339.836C781.968 340.692 781.788 341.436 781.428 342.068C781.076 342.692 780.564 343.172 779.892 343.508C779.228 343.836 778.44 344 777.528 344H774.924V335.636H777.528ZM777.528 343.1C778.608 343.1 779.432 342.816 780 342.248C780.568 341.672 780.852 340.868 780.852 339.836C780.852 338.796 780.564 337.984 779.988 337.4C779.42 336.816 778.6 336.524 777.528 336.524H776.016V343.1H777.528ZM789.408 340.46C789.408 340.668 789.396 340.888 789.372 341.12H784.116C784.156 341.768 784.376 342.276 784.776 342.644C785.184 343.004 785.676 343.184 786.252 343.184C786.724 343.184 787.116 343.076 787.428 342.86C787.748 342.636 787.972 342.34 788.1 341.972H789.276C789.1 342.604 788.748 343.12 788.22 343.52C787.692 343.912 787.036 344.108 786.252 344.108C785.628 344.108 785.068 343.968 784.572 343.688C784.084 343.408 783.7 343.012 783.42 342.5C783.14 341.98 783 341.38 783 340.7C783 340.02 783.136 339.424 783.408 338.912C783.68 338.4 784.06 338.008 784.548 337.736C785.044 337.456 785.612 337.316 786.252 337.316C786.876 337.316 787.428 337.452 787.908 337.724C788.388 337.996 788.756 338.372 789.012 338.852C789.276 339.324 789.408 339.86 789.408 340.46ZM788.28 340.232C788.28 339.816 788.188 339.46 788.004 339.164C787.82 338.86 787.568 338.632 787.248 338.48C786.936 338.32 786.588 338.24 786.204 338.24C785.652 338.24 785.18 338.416 784.788 338.768C784.404 339.12 784.184 339.608 784.128 340.232H788.28ZM790.442 340.7C790.442 340.02 790.578 339.428 790.85 338.924C791.122 338.412 791.498 338.016 791.978 337.736C792.466 337.456 793.022 337.316 793.646 337.316C794.454 337.316 795.118 337.512 795.638 337.904C796.166 338.296 796.514 338.84 796.682 339.536H795.506C795.394 339.136 795.174 338.82 794.846 338.588C794.526 338.356 794.126 338.24 793.646 338.24C793.022 338.24 792.518 338.456 792.134 338.888C791.75 339.312 791.558 339.916 791.558 340.7C791.558 341.492 791.75 342.104 792.134 342.536C792.518 342.968 793.022 343.184 793.646 343.184C794.126 343.184 794.526 343.072 794.846 342.848C795.166 342.624 795.386 342.304 795.506 341.888H796.682C796.506 342.56 796.154 343.1 795.626 343.508C795.098 343.908 794.438 344.108 793.646 344.108C793.022 344.108 792.466 343.968 791.978 343.688C791.498 343.408 791.122 343.012 790.85 342.5C790.578 341.988 790.442 341.388 790.442 340.7Z" fill="#959BA5"/>
<path d="M107.879 99.4121C107.879 98.3234 108.13 97.3467 108.632 96.4821C109.144 95.6175 109.833 94.945 110.697 94.4647C111.572 93.9737 112.528 93.7282 113.563 93.7282C114.748 93.7282 115.799 94.0217 116.717 94.6088C117.646 95.1852 118.318 96.0071 118.735 97.0745H116.541C116.253 96.4874 115.853 96.0498 115.34 95.7616C114.828 95.4734 114.236 95.3293 113.563 95.3293C112.827 95.3293 112.17 95.4947 111.594 95.8256C111.017 96.1565 110.564 96.6315 110.233 97.2506C109.913 97.8697 109.752 98.5902 109.752 99.4121C109.752 100.234 109.913 100.955 110.233 101.574C110.564 102.193 111.017 102.673 111.594 103.015C112.17 103.346 112.827 103.511 113.563 103.511C114.236 103.511 114.828 103.367 115.34 103.079C115.853 102.79 116.253 102.353 116.541 101.766H118.735C118.318 102.833 117.646 103.655 116.717 104.231C115.799 104.808 114.748 105.096 113.563 105.096C112.517 105.096 111.562 104.856 110.697 104.376C109.833 103.885 109.144 103.207 108.632 102.342C108.13 101.478 107.879 100.501 107.879 99.4121ZM129.021 96.1779V105H127.196V103.959C126.907 104.322 126.528 104.61 126.059 104.824C125.6 105.027 125.109 105.128 124.586 105.128C123.892 105.128 123.268 104.984 122.712 104.696C122.168 104.408 121.736 103.981 121.416 103.415C121.106 102.849 120.951 102.166 120.951 101.365V96.1779H122.761V101.093C122.761 101.883 122.958 102.492 123.353 102.919C123.748 103.335 124.287 103.543 124.97 103.543C125.653 103.543 126.192 103.335 126.587 102.919C126.993 102.492 127.196 101.883 127.196 101.093V96.1779L129.021 96.1779ZM133.415 97.4588C133.681 97.0105 134.034 96.6635 134.471 96.418C134.92 96.1619 135.448 96.0338 136.056 96.0338V97.9231H135.592C134.877 97.9231 134.332 98.1045 133.959 98.4675C133.596 98.8304 133.415 99.4602 133.415 100.357V105L131.589 105V96.1779H133.415V97.4588ZM139.72 97.4588C139.986 97.0105 140.339 96.6635 140.776 96.418C141.225 96.1619 141.753 96.0338 142.361 96.0338V97.9231H141.897C141.182 97.9231 140.637 98.1045 140.264 98.4675C139.901 98.8304 139.72 99.4602 139.72 100.357V105H137.894V96.1779H139.72V97.4588ZM152.285 100.373C152.285 100.704 152.264 101.003 152.221 101.269H145.48C145.534 101.974 145.795 102.54 146.265 102.967C146.734 103.394 147.311 103.607 147.994 103.607C148.976 103.607 149.67 103.196 150.075 102.374H152.045C151.778 103.185 151.292 103.853 150.588 104.376C149.894 104.888 149.029 105.144 147.994 105.144C147.151 105.144 146.393 104.957 145.72 104.584C145.059 104.199 144.535 103.666 144.151 102.983C143.778 102.289 143.591 101.488 143.591 100.581C143.591 99.6736 143.772 98.8784 144.135 98.1953C144.509 97.5015 145.027 96.9678 145.688 96.5942C146.361 96.2206 147.129 96.0338 147.994 96.0338C148.826 96.0338 149.568 96.2152 150.219 96.5782C150.871 96.9411 151.378 97.4534 151.74 98.1152C152.103 98.7663 152.285 99.5189 152.285 100.373ZM150.38 99.7964C150.369 99.1239 150.129 98.5849 149.659 98.1793C149.189 97.7737 148.608 97.5708 147.914 97.5708C147.284 97.5708 146.745 97.7737 146.297 98.1793C145.848 98.5742 145.582 99.1132 145.496 99.7964H150.38ZM158.692 96.0338C159.386 96.0338 160.005 96.1779 160.55 96.4661C161.105 96.7543 161.537 97.1812 161.847 97.747C162.156 98.3127 162.311 98.9958 162.311 99.7964V105H160.502V100.069C160.502 99.2787 160.304 98.6756 159.909 98.2593C159.514 97.8324 158.975 97.6189 158.292 97.6189C157.609 97.6189 157.065 97.8324 156.659 98.2593C156.264 98.6756 156.066 99.2787 156.066 100.069V105H154.241V96.1779H156.066V97.1866C156.365 96.8237 156.744 96.5408 157.203 96.338C157.673 96.1352 158.169 96.0338 158.692 96.0338ZM166.929 97.6669V102.55C166.929 102.881 167.003 103.121 167.153 103.271C167.313 103.41 167.58 103.479 167.953 103.479H169.074V105H167.633C166.811 105 166.181 104.808 165.744 104.424C165.306 104.039 165.087 103.415 165.087 102.55V97.6669H164.047V96.1779H165.087V93.9844H166.929V96.1779H169.074V97.6669H166.929ZM183.017 97.1866C183.017 97.7523 182.884 98.286 182.617 98.7877C182.35 99.2894 181.923 99.7003 181.336 100.021C180.749 100.33 179.996 100.485 179.078 100.485H177.061V105H175.236V93.8723H179.078C179.932 93.8723 180.653 94.0217 181.24 94.3206C181.838 94.6088 182.281 95.0037 182.569 95.5054C182.868 96.0071 183.017 96.5675 183.017 97.1866ZM179.078 98.9958C179.772 98.9958 180.29 98.8411 180.632 98.5315C180.973 98.2113 181.144 97.763 181.144 97.1866C181.144 95.9697 180.455 95.3613 179.078 95.3613H177.061V98.9958H179.078ZM184.31 100.549C184.31 99.663 184.491 98.8784 184.854 98.1953C185.228 97.5121 185.729 96.9838 186.359 96.6102C187 96.2259 187.704 96.0338 188.473 96.0338C189.166 96.0338 189.77 96.1725 190.282 96.4501C190.805 96.7169 191.221 97.0532 191.531 97.4588V96.1779H193.372V105H191.531V103.687C191.221 104.103 190.8 104.45 190.266 104.728C189.732 105.005 189.124 105.144 188.441 105.144C187.683 105.144 186.989 104.952 186.359 104.568C185.729 104.173 185.228 103.628 184.854 102.935C184.491 102.23 184.31 101.435 184.31 100.549ZM191.531 100.581C191.531 99.9725 191.403 99.4441 191.146 98.9958C190.901 98.5475 190.575 98.206 190.17 97.9711C189.764 97.7363 189.327 97.6189 188.857 97.6189C188.387 97.6189 187.95 97.7363 187.544 97.9711C187.138 98.1953 186.807 98.5315 186.551 98.9798C186.306 99.4175 186.183 99.9405 186.183 100.549C186.183 101.157 186.306 101.691 186.551 102.15C186.807 102.609 187.138 102.961 187.544 103.207C187.96 103.442 188.398 103.559 188.857 103.559C189.327 103.559 189.764 103.442 190.17 103.207C190.575 102.972 190.901 102.63 191.146 102.182C191.403 101.723 191.531 101.189 191.531 100.581ZM198.059 97.6669V102.55C198.059 102.881 198.134 103.121 198.283 103.271C198.443 103.41 198.71 103.479 199.084 103.479L200.204 103.479V105H198.763C197.942 105 197.312 104.808 196.874 104.424C196.437 104.039 196.218 103.415 196.218 102.55V97.6669H195.177V96.1779H196.218V93.9844H198.059V96.1779H200.204V97.6669H198.059ZM202.976 95.0091C202.645 95.0091 202.367 94.897 202.143 94.6728C201.919 94.4487 201.807 94.1712 201.807 93.8403C201.807 93.5094 201.919 93.2318 202.143 93.0077C202.367 92.7835 202.645 92.6714 202.976 92.6714C203.296 92.6714 203.568 92.7835 203.792 93.0077C204.016 93.2318 204.128 93.5094 204.128 93.8403C204.128 94.1712 204.016 94.4487 203.792 94.6728C203.568 94.897 203.296 95.0091 202.976 95.0091ZM203.872 96.1779V105H202.047V96.1779H203.872ZM214.514 100.373C214.514 100.704 214.493 101.003 214.45 101.269H207.71C207.763 101.974 208.024 102.54 208.494 102.967C208.964 103.394 209.54 103.607 210.223 103.607C211.205 103.607 211.899 103.196 212.305 102.374H214.274C214.007 103.185 213.522 103.853 212.817 104.376C212.123 104.888 211.259 105.144 210.223 105.144C209.38 105.144 208.622 104.957 207.95 104.584C207.288 104.199 206.765 103.666 206.381 102.983C206.007 102.289 205.82 101.488 205.82 100.581C205.82 99.6736 206.002 98.8784 206.365 98.1953C206.738 97.5015 207.256 96.9678 207.918 96.5942C208.59 96.2206 209.359 96.0338 210.223 96.0338C211.056 96.0338 211.798 96.2152 212.449 96.5782C213.1 96.9411 213.607 97.4534 213.97 98.1152C214.333 98.7663 214.514 99.5189 214.514 100.373ZM212.609 99.7964C212.598 99.1239 212.358 98.5849 211.888 98.1793C211.419 97.7737 210.837 97.5708 210.143 97.5708C209.514 97.5708 208.974 97.7737 208.526 98.1793C208.078 98.5742 207.811 99.1132 207.726 99.7964H212.609ZM220.922 96.0338C221.616 96.0338 222.235 96.1779 222.779 96.4661C223.334 96.7543 223.766 97.1812 224.076 97.747C224.385 98.3127 224.54 98.9958 224.54 99.7964V105H222.731V100.069C222.731 99.2787 222.534 98.6756 222.139 98.2593C221.744 97.8324 221.205 97.6189 220.521 97.6189C219.838 97.6189 219.294 97.8324 218.888 98.2593C218.493 98.6756 218.296 99.2787 218.296 100.069V105H216.471V96.1779H218.296V97.1866C218.595 96.8237 218.974 96.5408 219.433 96.338C219.902 96.1352 220.399 96.0338 220.922 96.0338ZM229.158 97.6669V102.55C229.158 102.881 229.233 103.121 229.382 103.271C229.542 103.41 229.809 103.479 230.183 103.479H231.304V105H229.863C229.041 105 228.411 104.808 227.973 104.424C227.536 104.039 227.317 103.415 227.317 102.55V97.6669H226.276V96.1779H227.317V93.9844H229.158V96.1779H231.304V97.6669H229.158ZM244.654 93.8723V95.3613H241.692V105H239.867V95.3613H236.889V93.8723H244.654ZM248.488 97.4588C248.755 97.0105 249.107 96.6635 249.545 96.418C249.993 96.1619 250.522 96.0338 251.13 96.0338V97.9231H250.666C249.95 97.9231 249.406 98.1045 249.033 98.4675C248.67 98.8304 248.488 99.4602 248.488 100.357V105H246.663V96.1779H248.488V97.4588ZM252.359 100.549C252.359 99.663 252.541 98.8784 252.904 98.1953C253.277 97.5121 253.779 96.9838 254.409 96.6102C255.049 96.2259 255.754 96.0338 256.522 96.0338C257.216 96.0338 257.819 96.1725 258.332 96.4501C258.855 96.7169 259.271 97.0532 259.58 97.4588V96.1779H261.422V105H259.58V103.687C259.271 104.103 258.849 104.45 258.316 104.728C257.782 105.005 257.173 105.144 256.49 105.144C255.732 105.144 255.039 104.952 254.409 104.568C253.779 104.173 253.277 103.628 252.904 102.935C252.541 102.23 252.359 101.435 252.359 100.549ZM259.58 100.581C259.58 99.9725 259.452 99.4441 259.196 98.9958C258.951 98.5475 258.625 98.206 258.22 97.9711C257.814 97.7363 257.376 97.6189 256.907 97.6189C256.437 97.6189 255.999 97.7363 255.594 97.9711C255.188 98.1953 254.857 98.5315 254.601 98.9798C254.355 99.4175 254.233 99.9405 254.233 100.549C254.233 101.157 254.355 101.691 254.601 102.15C254.857 102.609 255.188 102.961 255.594 103.207C256.01 103.442 256.448 103.559 256.907 103.559C257.376 103.559 257.814 103.442 258.22 103.207C258.625 102.972 258.951 102.63 259.196 102.182C259.452 101.723 259.58 101.189 259.58 100.581ZM267.678 97.6669H266.045V105H264.203V97.6669L263.163 97.6669V96.1779L264.203 96.1779V95.5534C264.203 94.5394 264.47 93.8029 265.004 93.3439C265.548 92.8743 266.397 92.6394 267.55 92.6394V94.1605C266.995 94.1605 266.605 94.2672 266.381 94.4807C266.157 94.6835 266.045 95.0411 266.045 95.5534V96.1779H267.678V97.6669ZM273.154 97.6669H271.521V105H269.68V97.6669H268.639V96.1779H269.68V95.5534C269.68 94.5394 269.947 93.8029 270.48 93.3439C271.025 92.8743 271.873 92.6394 273.026 92.6394V94.1605C272.471 94.1605 272.081 94.2672 271.857 94.4807C271.633 94.6835 271.521 95.0411 271.521 95.5534V96.1779H273.154V97.6669ZM275.86 95.0091C275.53 95.0091 275.252 94.897 275.028 94.6728C274.804 94.4487 274.692 94.1712 274.692 93.8403C274.692 93.5094 274.804 93.2318 275.028 93.0077C275.252 92.7835 275.53 92.6714 275.86 92.6714C276.181 92.6714 276.453 92.7835 276.677 93.0077C276.901 93.2318 277.013 93.5094 277.013 93.8403C277.013 94.1712 276.901 94.4487 276.677 94.6728C276.453 94.897 276.181 95.0091 275.86 95.0091ZM276.757 96.1779V105H274.932V96.1779H276.757ZM278.705 100.581C278.705 99.6736 278.887 98.8784 279.25 98.1953C279.623 97.5015 280.136 96.9678 280.787 96.5942C281.438 96.2206 282.185 96.0338 283.028 96.0338C284.096 96.0338 284.976 96.29 285.67 96.8023C286.375 97.304 286.85 98.0245 287.095 98.9638H285.126C284.966 98.5262 284.709 98.1846 284.357 97.9391C284.005 97.6936 283.562 97.5708 283.028 97.5708C282.281 97.5708 281.683 97.8377 281.235 98.3714C280.797 98.8944 280.579 99.6309 280.579 100.581C280.579 101.531 280.797 102.273 281.235 102.806C281.683 103.34 282.281 103.607 283.028 103.607C284.085 103.607 284.784 103.143 285.126 102.214H287.095C286.839 103.111 286.359 103.826 285.654 104.36C284.95 104.883 284.074 105.144 283.028 105.144C282.185 105.144 281.438 104.957 280.787 104.584C280.136 104.199 279.623 103.666 279.25 102.983C278.887 102.289 278.705 101.488 278.705 100.581Z" fill="black"/>
</g>
</g>
<defs>
<filter id="filter0_d_556_7076" x="0" y="0" width="928" height="478" filterUnits="userSpaceOnUse" color-interpolation-filters="sRGB">
<feFlood flood-opacity="0" result="BackgroundImageFix"/>
<feColorMatrix in="SourceAlpha" type="matrix" values="0 0 0 0 0 0 0 0 0 0 0 0 0 0 0 0 0 0 127 0" result="hardAlpha"/>
<feOffset dx="10" dy="10"/>
<feGaussianBlur stdDeviation="40"/>
<feComposite in2="hardAlpha" operator="out"/>
<feColorMatrix type="matrix" values="0 0 0 0 0.2453 0 0 0 0 0.15125 0 0 0 0 0.39875 0 0 0 0.1 0"/>
<feBlend mode="normal" in2="BackgroundImageFix" result="effect1_dropShadow_556_7076"/>
<feBlend mode="normal" in="SourceGraphic" in2="effect1_dropShadow_556_7076" result="shape"/>
</filter>
<filter id="filter1_d_556_7076" x="68" y="119" width="772" height="228" filterUnits="userSpaceOnUse" color-interpolation-filters="sRGB">
<feFlood flood-opacity="0" result="BackgroundImageFix"/>
<feColorMatrix in="SourceAlpha" type="matrix" values="0 0 0 0 0 0 0 0 0 0 0 0 0 0 0 0 0 0 127 0" result="hardAlpha"/>
<feOffset dy="8"/>
<feGaussianBlur stdDeviation="20"/>
<feComposite in2="hardAlpha" operator="out"/>
<feColorMatrix type="matrix" values="0 0 0 0 0.286685 0 0 0 0 0.109375 0 0 0 0 0.390625 0 0 0 0.2 0"/>
<feBlend mode="normal" in2="BackgroundImageFix" result="effect1_dropShadow_556_7076"/>
<feBlend mode="normal" in="SourceGraphic" in2="effect1_dropShadow_556_7076" result="shape"/>
</filter>
<filter id="filter2_d_556_7076" x="68" y="130.686" width="772" height="155.314" filterUnits="userSpaceOnUse" color-interpolation-filters="sRGB">
<feFlood flood-opacity="0" result="BackgroundImageFix"/>
<feColorMatrix in="SourceAlpha" type="matrix" values="0 0 0 0 0 0 0 0 0 0 0 0 0 0 0 0 0 0 127 0" result="hardAlpha"/>
<feOffset dy="8"/>
<feGaussianBlur stdDeviation="20"/>
<feComposite in2="hardAlpha" operator="out"/>
<feColorMatrix type="matrix" values="0 0 0 0 0.286685 0 0 0 0 0.109375 0 0 0 0 0.390625 0 0 0 0.2 0"/>
<feBlend mode="normal" in2="BackgroundImageFix" result="effect1_dropShadow_556_7076"/>
<feBlend mode="normal" in="SourceGraphic" in2="effect1_dropShadow_556_7076" result="shape"/>
</filter>
<filter id="filter3_d_556_7076" x="602" y="137" width="36" height="36" filterUnits="userSpaceOnUse" color-interpolation-filters="sRGB">
<feFlood flood-opacity="0" result="BackgroundImageFix"/>
<feColorMatrix in="SourceAlpha" type="matrix" values="0 0 0 0 0 0 0 0 0 0 0 0 0 0 0 0 0 0 127 0" result="hardAlpha"/>
<feOffset dx="2" dy="2"/>
<feGaussianBlur stdDeviation="5"/>
<feComposite in2="hardAlpha" operator="out"/>
<feColorMatrix type="matrix" values="0 0 0 0 0.286685 0 0 0 0 0.109375 0 0 0 0 0.390625 0 0 0 0.25 0"/>
<feBlend mode="normal" in2="BackgroundImageFix" result="effect1_dropShadow_556_7076"/>
<feBlend mode="normal" in="SourceGraphic" in2="effect1_dropShadow_556_7076" result="shape"/>
</filter>
<filter id="filter4_d_556_7076" x="538" y="62" width="160" height="127" filterUnits="userSpaceOnUse" color-interpolation-filters="sRGB">
<feFlood flood-opacity="0" result="BackgroundImageFix"/>
<feColorMatrix in="SourceAlpha" type="matrix" values="0 0 0 0 0 0 0 0 0 0 0 0 0 0 0 0 0 0 127 0" result="hardAlpha"/>
<feOffset dy="8"/>
<feGaussianBlur stdDeviation="20"/>
<feComposite in2="hardAlpha" operator="out"/>
<feColorMatrix type="matrix" values="0 0 0 0 0.286685 0 0 0 0 0.109375 0 0 0 0 0.390625 0 0 0 0.2 0"/>
<feBlend mode="normal" in2="BackgroundImageFix" result="effect1_dropShadow_556_7076"/>
<feBlend mode="normal" in="SourceGraphic" in2="effect1_dropShadow_556_7076" result="shape"/>
</filter>
<clipPath id="clip0_556_7076">
<rect x="70" y="70" width="768" height="318" rx="24" fill="white"/>
</clipPath>
</defs>
</svg>
